<?xml version="1.0" encoding="UTF-8"?>
<svg id="Laag_2" xmlns="http://www.w3.org/2000/svg" viewBox="0 0 100.02 111.99">
  <defs>
    <style>
      .cls-1 {
        fill: #0c110d;
      }

      .cls-2 {
        fill: #6d8535;
      }

      .cls-3 {
        fill: #212d19;
      }

      .cls-4 {
        fill: #394522;
      }

      .cls-5 {
        fill: #a6b873;
      }

      .cls-6 {
        fill: #a6b67a;
      }

      .cls-7 {
        fill: #1a2216;
      }

      .cls-8 {
        fill: #33421e;
      }

      .cls-9 {
        fill: #6e8632;
      }

      .cls-10 {
        fill: #e1e6d7;
      }

      .cls-11 {
        fill: #333f1e;
      }

      .cls-12 {
        fill: #f8f8f3;
      }

      .cls-13 {
        fill: #26301a;
      }

      .cls-14 {
        fill: #70823f;
      }

      .cls-15 {
        fill: #a8ba71;
      }
    </style>
  </defs>
  <g id="Laag_1-2" data-name="Laag_1">
    <g>
      <path class="cls-3" d="M91.34,31.62c.89,1.9,1.63,3.86,2.11,5.91-.03.47-.39.74-.65,1.07-.35.46-.4.88.31,1.05,0,.98.07,1.96-.02,2.93-.22,2.42-.34,4.9-2.85,6.31-.52.29-.37.85-.39,1.33-1.18.39-2.36.79-3.54,1.18-.11,0-.21.01-.32.02l.02.03c-1.13-1.2-.99-2.96-1.78-4.31-.69.47-1.28.9-1.89,1.29-.63.39-1.32.78-1.37,1.6-.1,1.56-.9,2.7-1.98,3.71-.1.14-.21.27-.31.41-.12-.33-.24-.65-.36-.98-.52-1.11-.55-2.32-.66-3.51.08-.43,0-.82-.25-1.18.04-.1.03-.19-.03-.27-.01-.36-.02-.72-.03-1.08.08-.57.45-.93.88-1.29.74-.62,1.44-1.3,1.83-2.21.12-.05.24-.1.36-.15.07-.13.14-.27.22-.4.08-1.16.27-2.32-.26-3.43-.44-1.68-1.37-3.06-2.62-4.24-.41-.38-.71-.79-.64-1.39.35-.7.15-1.27-.53-1.56-.88-.38-1.54-.95-2.07-1.73-.29-.43-.75-.65-1.26-.32-.36.23-.75.43-.84.94-.13.78.62.58.93.88-1.52-.26-1.92.7-2.1,1.91-.35,2.38-1.09,4.5-3.37,5.79-.51.29-1.06.74-1.09,1.47-3.14,0-6.28.02-9.42,0-.83,0-1.32.17-1.23,1.13.17,1.98,0,1.85-1.97,1.82-.63-.01-1.28-.1-1.87-.31-.94-.33-1.68-1.02-2.2-1.84-.41-.64-.16-1.26.48-1.79.4-.33-.3-.5-.33-.82.69-.49,1.37-.98,2.06-1.47.77-.18,1.51-.33,2.29.02.5.23.75,0,.61-.56,0-.69.01-1.37.02-2.06.23-1.07-.32-2.23.37-3.25l.25-.19c.1-.04.2-.08.3-.12.52,0,1.05.06,1.56-.01.58-.09,1.38.42,1.7-.53.89-.13,1.33-.72,1.5-1.53.21-.98.37-1.98.55-2.96,1.39.51,1.92,1.5,1.83,2.96-.05.85-.13,2.05.97,2.18,1.64.2,3.32.07,4.98,0,.87-.03.95-.51.47-1.18-.45-.64-.96-1.26-.88-2.12.02-1.89.61-3.34,2.75-3.6.58.61,1.5.77,2,1.49.25.29.53.56.73.89,1.05,1.72,2.61,2.54,4.59,2.66.69.3,1.38.6,2.07.9.78,1.59,1.49,3.21,2.13,4.87.33.85.52,1.95,1.7,2.2-.18,1.02.59,1.81.72,2.77.08.6.62.43,1.01.13,2.13.31,3-.41,3.01-2.49,0-.39.02-.78,0-1.17-.05-1.11-.15-2.25,1.53-2.48-1.13-.78-2.09-1.33-3.29-1.2-1.26-.94-1.22-2.52-1.83-3.77.55-.73,1.01-1.58,2.13-1.53-.13.3-.27.59-.4.89-.03.03-.08.08-.07.1.03.07.08.13.13.19.98,1.06,2.31,1.48,3.58,2.03ZM91.75,35.96c.27.03.4-.08.35-.22-.05-.16-.18-.34-.32-.41-.2-.09-.39.05-.32.27.04.16.22.27.29.36Z"/>
      <path class="cls-11" d="M22.45,72.66c0-.48.02-.95.03-1.43.06-.06.13-.11.19-.17.03,1.69.11,3.38.06,5.07-.03,1,.26,1.34,1.22.96-.06.69-1.04,1.17-.69,1.83.29.55.96-.12,1.49-.06.61.06.7-.39.69-.87-.02-.98-.05-1.96-.07-2.94.44-.56,1.02-.63,1.7-.63,3.19.03,6.39.01,9.58.01,1.08,0,2.16,0,3.24,0-.18,1.58-.98,2.93-1.77,4.22-.75,1.22-1.86,2.23-2.71,3.4-1.02,1.41-2.31,2.49-3.66,3.57-1.06.84-2.46,1.26-3.32,2.38.33.31.55.19.8.17,2.38-.24,4.76-.4,7.14.07-1.85,0-3.7.01-5.55.02-.43,0-.97-.12-.72.64-2.4.34-4.67-1.03-4.97-2.98.77-1.03.24-2.22.35-3.32.16-1.55-.72-2.39-2.42-2.46l-.3.06c-.1-.04-.19-.08-.29-.13,0-2.47,0-4.94-.01-7.41Z"/>
      <path class="cls-12" d="M77.69,49.65c.11,1.19.14,2.39.66,3.51.1.72-.41,1.59.53,2.1,0,.11.02.22.03.33.01,1.12-.1,2.25.07,3.35.18,1.17.21,2.44,1.1,3.4.25,1.28.5,2.56.75,3.83-.01,1.87-.02,3.73-.04,5.6-.55,1.85.18,3.72-.04,5.58-.03,6.89-.06,13.79-.09,20.68-.95-.39-1.95-.27-2.94-.31,0-.59,0-1.17,0-1.76,0-.29,0-.59-.01-.88,0-.2,0-.4-.01-.6,0-.69.02-1.38.03-2.07.02-3.24.17-6.49-.21-9.72-.04-1.18-.07-2.36-.11-3.55,0-.49,0-.98,0-1.47,0-.2,0-.39,0-.59-.03-.17-.05-.34-.08-.51.09-1.51.25-3.03-.15-4.53.05-.1.03-.18-.07-.24,0-.12,0-.24-.01-.35.09-.05.13-.13.11-.24.3-.6.23-1.2-.05-1.78,0-1.28-.02-2.56-.02-3.84,0-.59,0-1.18,0-1.78,0-.2,0-.39,0-.59,0-.89-.02-1.77-.03-2.66.02-.97.04-1.94.06-2.91.01-1.51-.04-3.03.05-4.54.1-1.64-.33-3.3.23-4.91.06.09.07.18.03.27-.04.42-.12.85.25,1.18Z"/>
      <path class="cls-1" d="M56.33.31c1.37.1,2.74.29,4.1.26,1.76-.04,2.72.78,3.14,2.4-.97.91-2.48,1.21-3,2.64-.28.06-.56.11-.85.17-.33-.97-1.24-1.42-1.89-2.1-.77-.81-1.58-.94-2.38-.08-.75.81-.69,1.63.02,2.46.46.54,1.2.87,1.27,1.7-.5,1.05-1.56,1.5-2.38,2.22-.99.31-1.93.71-2.7,1.44-.46.17-.92.34-1.37.51-.25,0-.5.02-.75.02-.36,0-.72-.01-1.08-.02-.37-.98-1.21-1.15-2.11-1.23-.19-.91-1.07-.89-1.68-1.25-.39-.61-.98-1.01-1.54-1.43.37-.36.74-.55,1.31-.38.6.18,1.39.4,1.79-.16.41-.58.15-1.29-.31-1.9-.23-.3-.34-.7-.42-1.08-.41-1.86-.9-3.63-3.26-3.83,0-.08,0-.16,0-.25.42-.03.83-.07,1.25-.1,3.42.03,6.85.06,10.28.09-1.75.68-3.63-.07-5.46.42.36.94.95,1.6,1.54,2.21.47.48,1.22.94,1.83.37.79-.75,1.72-1.25,2.62-1.82.9-.57.24-.86-.22-1.18l2.24-.1Z"/>
      <path class="cls-13" d="M64.2,4.17c.68,1.21,1.44,2.39,2,3.65.38.87.94,1.39,1.78,1.7.11.22.02.8.21.65.94-.74,1.65.28,2.47.2.37.12.74.24,1.11.36,2.86,1.1,5.66,2.37,8.61,3.23.76.63,1.51,1.26,2.27,1.89-1.59,1.02-3.32,1.17-4.92.25-1.23-.71-2.34-.82-3.6-.34-1.08-.12-1.85.07-1.58,1.45.03.17-.23.4-.35.61-2.18-.18-4.03.45-5.43,2.2-.22.28-.52.43-.88.43-.91-.66-2.03-.05-2.97-.52.7-.89-.45-1.59-.25-2.43,1.37-1.78,3.45-3.05,3.98-5.71-.73.66-1.44.74-2.18.69.14-.57,1.11-.98.51-1.65-.95-1.06-.87-2.46-1.43-3.63.2-1.01,1.14-1.86.67-3.02Z"/>
      <path class="cls-3" d="M2.56,47.29l.09-.58c.62-2.25,1.24-4.51,1.86-6.76,1.92-1.07,2.04-3.1,2.64-4.88.08-.23.18-.46.5-.42.11.31.37.41.66.46.38.47.47,1.04.62,1.6.16.63.5,1.08,1.3,1.14,2.43.18,3.05.75,3.65,3.26.13.53.52.65.89.86-1.01,3.38-3.66,4.95-6.78,5.84-.93.26-1.8.61-2.69.95-.82-.49-2.14.51-2.66-.89,0,0-.14,0-.14,0,.02-.2.04-.39.06-.59Z"/>
      <path class="cls-11" d="M74.13,15.76c1.26-.48,2.37-.37,3.6.34,1.6.92,3.33.77,4.92-.25,0,0,0,0,0,0-.11.48.09.66.56.58l-.08.06s.09-.05.09-.05c.09.53-.06,1.25.88,1.06.05.03.07.08.08.14-.13.49-.84,1.28.52,1.01.62.84,1.24,1.68,1.62,2.66-.95.07-1.89.26-2.74-.49-2.61-2.32-3.34-2.36-6.14-.34-.43.31-1.23.72-.29,1.39-.74.03-1.31.41-1.84.89-1.06.25-1.58-.53-2.17-1.15-.54-.56-1.11-.66-1.82-.35-.69.3-1.17.68-.92,1.53.06.95,1.14,1.38,1.19,2.34-2.15.26-2.74,1.71-2.75,3.6-.51-.32-.7-.87-.73-1.37-.16-2.22-1.01-3.86-3.41-4.29.83-.68,1.77-1.31,1.18-2.63.36,0,.66-.16.88-.43,1.4-1.74,3.25-2.38,5.43-2.2-.19.6-.68,1.34-.48,1.76.33.7,1.24.07,1.87.28.46.15.91.34,1.38.49.5.15.87-.12,1.13-.5.26-.38.05-.71-.32-.8-1.13-.26-1.35-.92-1.08-1.97.12-.48-.27-.92-.56-1.32Z"/>
      <path class="cls-3" d="M25.12,85.91c.3,1.96,2.57,3.32,4.97,2.98.11.1.23.2.34.3.11.09.23.17.34.26.68.3,1.35.59,2.03.89.58,1.46,1.13,2.95,1.75,4.38.4.92.41,2.39,1.83,2.72.07,1.19.99,2.09,1.11,3.26-.01.34.53.88-.34.9-.27,0-.54,0-.8-.01l-.12-.07s-.13.03-.13.03c-.55-.17-1.11-.32-1.64-.53-.68-.26-1.6-.03-1.95-.95-.03-.4.17-.88-.35-1.13,0,0,0,.02,0,.02-.51-1.5-1.17-2.88-2.45-3.91-.45-.36-1.19-.59-1.03-1.42.77-1.77-1-1.9-1.75-2.7-.46-.71-.74-1.72-1.88-1.43-1.09.28-1.01,1.24-1.07,2.11-.03.47-.22.92-.34,1.39,0,0,0,.01,0,.01l-.28.29c-.04.06-.06.13-.06.21-.34.02-.42.55-.94.4v-5.3c.23-1.74-.18-3.52.37-5.23.22.37.45.73.67,1.1.24.88,1.35.73,1.73,1.45Z"/>
      <path class="cls-13" d="M97.25,47.87c.44,3.03.88,6.05,1.31,9.08.19,1.3.35,2.6.52,3.9,0,.2,0,.4,0,.6-.07.07-.09.15-.07.25-1.04.56-.21,1.56-.54,2.29-.03.43-.06.86-.1,1.42-.48-1.59-2.48-2.99-3.54-2.36-1.11.67-2.27,1.03-3.48,1.34-.1-.01-.2-.03-.3-.04.03-.24,0-.52.11-.71,2.86-4.49,3.72-9.37,2.83-14.58,1-.62,2.39-.2,3.25-1.19Z"/>
      <path class="cls-3" d="M4.44,103.58c-.04-.37-.09-.75-.13-1.12-.07-1.77-.79-3.48-.47-5.28,1.77-.56,3.06.49,4.42,1.3.14.25.35.49.41.76.35,1.4,1.12,2.11,2.66,2.16,1.08.04,2.38,1.72,2.48,2.77.05.57-.31.69-.73.64-.9-.11-1.76.17-2.6.36-1.1.26-1.77,1.02-1.63,2.25.13,1.15.87,1.72,1.96,1.81.88.07,1.77.09,2.64,0,.82-.09,1.26.28,1.61.91.23.12.25.33.23.55-2.56.23-5.11.46-7.67.69-.46-.08-1.02,0-.72-.82.15-.39.11-.86.16-1.29-.05-.83.29-1.75-.58-2.37.33-.53.3-1.11.24-1.7.48-1.22,1.07-.57,1.66-.11.18.15.4.37.62.1.2-.23.04-.43-.13-.63-.84-.93-3.13-1.12-4.15-.35-.1-.21-.19-.42-.29-.62Z"/>
      <path class="cls-1" d="M41.32,102.47c-.97-.11-1.93-.21-2.9-.32-.02-.07-.03-.13-.04-.2,1.99-1.09,2.18-1.5,1.51-3.33.06-.31.13-.61.19-.92.03-.19.06-.38.09-.57-.04-1.18.1-2.38-.3-3.52.15-1.28-.11-2.59.32-3.84.29.02.65-.07.87.07,1.9,1.23,3.77,1.03,5.64-.06,0,.2,0,.39,0,.59,0,.69,0,1.38,0,2.07.03.52.05,1.05.08,1.57,0,1.04,0,2.07-.01,3.11-1.03.12-2.46-.31-2.27,1.55.28,2.7-.44,3.58-3.18,3.81Z"/>
      <path class="cls-11" d="M2.64,47.88c.52,1.39,1.84.4,2.66.89,1.8.84,3.73,1.23,5.62,1.77.07.72-.13,1.35-.58,1.9-1.27,1.54-2.53,3.12-4.11,4.32-1.52,1.14-3.07,2.36-5.08,2.63.02-.54,0-1.08.08-1.61.45-3,.92-6.01,1.38-9.01.01-.29.03-.59.04-.88Z"/>
      <path class="cls-13" d="M9.42,29.63c.28-.62.56-1.24.83-1.85.98.48,1.3-.14,1.53-.91,1.24-1.14.85-2.83,1.42-4.2,1.38.57,1.92,1.54,1.86,3.08-.09,2,.35,2.35,2.32,2.74.61.12,1.2.39,1.8.59.04.33-.08.72.22.97,1.53,1.3.32,2.62-.05,3.84-.34,1.1-1.38,1.44-2.52,1.3-.31-.99-.9-1.78-1.77-2.35.01-.71-.78-.63-1.07-1.09-.79-1.26-1.65-1.16-2.5-.03-.99-.05-1.47-.99-2.29-1.33.02-.17.05-.34.07-.51.05-.09.1-.17.15-.26Z"/>
      <path class="cls-3" d="M77.15,21.87c-.94-.67-.14-1.08.29-1.39,2.81-2.01,3.53-1.98,6.14.34.85.75,1.79.56,2.74.49.74.99,1.38,2.03,1.77,3.2-.29.44-.48,1.1-1.03,1.16-1.37.15-2.43.99-3.64,1.48-.22.09-.48.36-.58.05-.25-.78-1.1-.9-1.54-1.51-.78-1.07-1.87-1.67-3.32-1.16-.33.12-.81.54-1.17-.05.12-.17.24-.33.36-.5h0c.8-.71.73-1.42-.01-2.12Z"/>
      <path class="cls-14" d="M80.65,98.02c.03-6.89.06-13.79.09-20.68.25-.01.49,0,.52.34-.24.15-.27.39-.27.64.03,3.91.06,7.82.08,11.73.62,1.26,1.51,2.17,2.99,2.37.8.11,1.33.74,1.97,1.15.74,1.16.46,2.87,1.94,3.63.17.46.34.92.51,1.37.86,2.28.06,4.61-1.86,5.8-.58.36-.85.26-1.17-.21-.03-.74-.5-1.32-.71-2,1.5-3.41.05-6.55-3.43-7.45-.64.23-.34.78-.35,1.17-.03,2.87-.03,5.73-.03,8.6-.06,0-.12,0-.19-.02-.03-.77-.07-1.54-.1-2.31,0-.39,0-.79,0-1.18,0-.49,0-.98,0-1.47,0-.49,0-.98,0-1.48Z"/>
      <path class="cls-9" d="M19.18,29.08c-.6-.2-1.18-.47-1.8-.59-1.97-.38-2.41-.74-2.32-2.74.07-1.54-.48-2.51-1.86-3.08,0-.27.02-.55.03-.82,0-.08.04-.15.09-.2.36-.21.55-.51.53-.93,0,0,0,0,0,0,.3-.13.55-.3.5-.68.03-.07.08-.13.14-.17.55-.21,1.1-.42,1.65-.63,1.75,0,2.96.71,3.35,2.54.23,1.09.55,2.16,1.14,3.13.04.71.3,1.3.88,1.74.04.09.08.18.13.27-.02.4-.04.8-.07,1.2-.68.62-1.3,1.41-2.41.97Z"/>
      <path class="cls-1" d="M32.22,9.36c.2-.04.39-.09.59-.13.25.89.53,1.73,1.67,1.87.17.02.31.46.42.72.18.42.53.34.86.35.02.13.05.27.07.4.48,1.38,1.66,2.28,2.42,3.45,1.01,1.55,2.66,2.52,3.59,4.16.24.43.4-.24.46-.53.47-.05.87-.25,1.18-.62.79-.38,1.07-1.18,1.51-1.84.67-.59,1.33-1.17,2-1.76.1.2.21.39.31.59-.96,1.12-.55,2.43-.5,3.68-.03.62-.12,1.25-.07,1.86.05.54-.42,1.32.56,1.52-.2.3-.39.6-.59.9-1.63-.58-1.25-1.91-1.07-3.08.12-.79-.09-1.37-.69-1.75-.32-.21-1.69,1.28-1.68,1.78.02,2.14-.87,3.04-3.03,3.04-.02-.63.04-1.27-.07-1.88-.13-.69.1-1.59-.85-1.94-.89-1.09-1.77-2.17-2.66-3.26-1.28-1.48-2.56-2.95-3.84-4.43-.39-1-1.28-1.91-.59-3.11Z"/>
      <path class="cls-8" d="M76.82,24.49c.36.59.84.17,1.17.05,1.45-.5,2.54.1,3.32,1.16.44.61,1.29.72,1.54,1.51.1.3.36.04.58-.05,1.21-.49,2.27-1.33,3.64-1.48.55-.06.74-.72,1.03-1.16.83,1.27,1.62,2.56,1.73,4.14-.59,0-1.02-.98-1.72-.26-1.12-.05-1.58.8-2.13,1.53-2-1.12-4.43-1.61-5.66-3.86-.04-.08-.14-.13-.23-.18-.56-.33-1.14-.64-1.79-.22-.58.37-.81.9-.88,1.6-.14,1.33.85,2.01,1.5,2.9-1.97-.12-3.54-.94-4.59-2.66-.2-.32-.48-.59-.73-.89.5-.49,1.01-.97,1.51-1.46.29-.18.59-.36.88-.53.27-.05.55-.1.82-.15Z"/>
      <path class="cls-3" d="M77.7,95.96c0,.59,0,1.17,0,1.76-.09.01-.18.03-.27.04-.77-.36.21-1.58-.88-1.79,0,0-.01,0-.01,0-.49-.46-1.09-.7-1.7-.94h0c0-.41-.06-.8-.59-.89h-.02c-.45-.67-.85-.39-1.25.05-.05.04-.05.09-.02.14-.8.32-.45,1.06-.58,1.62-1,.34-1.45-.79-2.29-.87-.44-.96-1.35-1.71-1.24-2.9.12-2.6.5-3.03,2.94-3.28.58.26,1.16.51,1.56,1.03.96.65,1.7,1.49,2.2,2.54.16.33.4.54.77.59.84.11,1.17.7,1.37,1.42,0,.2,0,.4.01.6-.32.3-.31.59.01.88Z"/>
      <path class="cls-7" d="M97.25,47.87c-.87.99-2.25.57-3.25,1.19-1.38.39-2.75.78-4.13,1.17.02-.48-.13-1.04.39-1.33,2.5-1.41,2.62-3.9,2.85-6.31.09-.97.02-1.95.02-2.93.58-.12,1.16-.25,1.73-.37,1.18,1.95,1.49,4.18,2.03,6.32.18.73.59,1.46.37,2.27Z"/>
      <path class="cls-6" d="M19.28,97.14c0,.19,0,.39,0,.58-.03,2.24-.06,4.48-.09,6.72-.48-.16.26-1.2-.79-1.01-2.18.38-2.64-.13-2.3-2.42.05-.3.1-.61.16-.91.2-.28.4-.56.6-.84.44-.22.87-.49,1.38-.37.61.14.77-.14.77-.69,0-1.94.16-3.88-.1-5.81,0-2.84,0-5.69,0-8.53.09-3.94.18-7.87,0-11.81,0-.19,0-.38,0-.56.02-.26.2-.55-.14-.72-.03-.02-.17.16-.25.25-.17.09-.34.19-.51.28-.6.34-1.22.72-1.88.15-.69-.6-.53-1.34-.17-2,.85-1.56,1.93-2.97,3.23-4.2v4.74c.04.88.07,1.77.09,2.65,0,1.67,0,3.35,0,5.02,0,.88,0,1.77,0,2.65,0,.79,0,1.58,0,2.37,0,.39,0,.78,0,1.17,0,4.43,0,8.86,0,13.29Z"/>
      <path class="cls-12" d="M98.47,63.99c.33-.73-.5-1.73.54-2.29,0,1.37,0,2.75.02,4.12,0,.91-.11,1.82.63,2.61.44.47.49,1.33.06,1.79-.8.84-.68,1.78-.68,2.75,0,2.21-.04,4.42,0,6.62.05,3.21-.64,6.33-.98,9.5-.23,2.11-.54,4.23-.66,6.33-.13,2.4-.94,4.6-1.21,6.92-.21,1.78-.09,3.59-.19,5.38-.06,1.18-.19,2.38-1.66,2.75-.05-.04-.09-.08-.14-.12.09-.76.18-1.52.27-2.28.42-1.77.82-3.54.98-5.36.39-1.51.57-3.05.67-4.6.16-.19.21-.41.14-.65.02-.2.04-.4.06-.6.35-1.56.6-3.13.63-4.73.48-2.71.81-5.44.93-8.19.04-.21.08-.41.12-.62.02-.21.05-.42.07-.63,0-.19.02-.39.02-.58,0-.19,0-.39,0-.58.09-1.07.18-2.15.27-3.22.4-3.19.53-6.39.22-9.59.23-1.58.21-3.15-.12-4.71Z"/>
      <path class="cls-2" d="M15.05,32.84c.87.57,1.45,1.36,1.77,2.35,0,.21.01.42.02.63-.26.59-.52,1.18-.78,1.77-1.29-.09-2.3-.52-3.17-1.64-1.13-1.45-3.33-1.7-4.58-.83-.29-.05-.55-.16-.66-.46.14-1.55.68-2.96,1.55-4.25.82.34,1.3,1.28,2.29,1.32,1.19.37,2.38.74,3.56,1.12Z"/>
      <path class="cls-2" d="M95.45,102.7c-.16,1.82-.56,3.59-.98,5.36-1.38.06-1.85.81-1.64,2.11.06.36.29.73.02,1.11-.8,0-1.59.01-2.39.02l-.11-.06s-.12.04-.12.04c-1.39-.17-2.78-.34-4.17-.51,1.09.04,1.87-.35,2.08-1.51,1.9.02,2.9-.75,2.88-2.26,0-.33-.19-.66.09-.96,1.84-.77,1.99-.98,1.56-2.95-.17-.79.16-1.18.75-1.53.6-.36,1.01-.05,1.38.38.22.25.43.51.65.77Z"/>
      <path class="cls-12" d="M22.67,71.06c-.07.05-.13.11-.19.17-.09-2.4-.59-4.79-.14-7.19.08-.42.12-.9-.37-.94-.62-.04-.37.55-.4.89-.05.48-.01.98-.02,1.46,0,.38-.13.67-.58.67-.45,0-.57-.3-.58-.68,0-.54,0-1.07-.01-1.61,0-.38.06-.82-.52-.86,0,0-.08-.06-.08-.06.32-1.99.64-3.99.96-5.98.31-1.63.62-3.27.93-4.9,1.12-.96.38-2.38.86-3.5.37.42.19.93.2,1.4.02,2.77.02,5.53.03,8.3,0,.98,0,1.97,0,2.95,0,.67,0,1.33,0,2,0,.69,0,1.38,0,2.08,0,.89-.02,1.78-.03,2.67,0,.49,0,.99,0,1.48-.13.55-.2,1.1-.06,1.66Z"/>
      <path class="cls-12" d="M2.6,48.76c-.46,3-.94,6-1.38,9.01-.08.53-.05,1.07-.08,1.61-.09.57-.45,1.27-.24,1.69.92,1.84.13,3.69.25,5.53.07,1.11.03,2.23.04,3.35,0,1.91,0,3.81.01,5.72-.31,1.9.88,3.32,1.55,4.95-.31-.18-.62-.35-1.12-.64.15,1.52,0,2.87.42,4.19.03.49.06.98.09,1.47-.04.1-.07.2-.11.31-1.12-.64-.23-1.71-.5-2.57-.31-1.01-.19-2.16-.94-3.05-.21-.24-.12-.48-.02-.67.65-1.21.53-2.37-.35-3.36-.56-.63.09-1.05.08-1.57-.06-2.62-.03-5.25-.02-7.87,0-.72-.08-1.41.42-2.1.27-.36.33-1.18.1-1.54-.76-1.17-.54-2.38-.57-3.63-.02-.8.27-1.38.5-2.07.36-1.11.26-2.44.1-3.64-.28-2.05.74-3.55,1.77-5.09Z"/>
      <path class="cls-12" d="M19.19,104.45c.03-2.24.06-4.48.09-6.72.63.13.5.63.51,1.06.08,3.1.27,6.2.19,9.29-.03,1.15.44,1.13,1.17,1.05.38-.04.86-.32.94.26.1.76.37,1.7-.16,2.26-.4.42-.71-.35-.81-.7-.37-1.29-.75-1.7-1.45-.17-.1.22-.46.33-.72.46-.12.06-.29.08-.43.07-3.99-.37-7.92.59-11.89.6-1.49,0-2.19-.67-2.2-2.18-.02-2.05,0-4.09.01-6.14.1.21.19.42.29.63.03.29.07.58.1.87.16.8.33,1.6.49,2.4,0,.2.01.4.02.61-.05.17.01.28.2.3.06.05.1.11.13.18,0,.58-.07,1.17.02,1.73.19,1.11.78,1.65,1.94,1.08,2.56-.23,5.11-.46,7.67-.69q3.44-.07,3.86-2.3c0-1.31.01-2.62.02-3.92Z"/>
      <path class="cls-12" d="M32.51,100.07c.36.92,1.28.69,1.95.95.54.21,1.09.35,1.64.53-.99.86-1.95,1.06-2.83-.16-.08-.11-.23-.29-.32-.28-1.57.29-2.67-1.15-4.24-1.07-1.58.08-3.03-.95-4.66-.95-.33,0-.67-.16-1-.13-1.66.17-1.83.01-1.58-1.66.12-.78.13-1.53-.07-2.31-.2-.77-.16-1.54.69-1.99.03,1.18.05,2.36.08,3.53-.23.92.21,1.34,1.09,1.5,1.15.22,2.28.7,3.42.73,1.82.06,3.63.93,5.48.18,0,0,0-.02,0-.02-.02.42-.15.87.35,1.13Z"/>
      <path class="cls-6" d="M35.19,4.89c.6-1.33,1.1-2.72,2.05-3.87.02,1.12.4,2.1,1.16,2.94.11.18.22.37.34.55-.09,1.39-.08,2.82-1.21,3.88-1.18.16-1.66-.51-1.96-1.53-.2-.66.12-1.39-.37-1.98Z"/>
      <path class="cls-4" d="M35.19,4.89c.49.59.17,1.32.37,1.98.31,1.02.79,1.69,1.96,1.53-.87,1.13-1.63,2.3-1.77,3.77-.33,0-.69.07-.86-.35-.11-.26-.25-.7-.42-.72-1.14-.14-1.42-.97-1.67-1.87.8-1.45,1.59-2.89,2.39-4.34Z"/>
      <path class="cls-7" d="M41.32,102.47c2.74-.23,3.46-1.12,3.18-3.81-.19-1.86,1.23-1.44,2.27-1.55,0,0,.11,0,.11,0l.11.03c-.32,1.01-.37,2.05-.21,3.09-.03.46-.05.92-.08,1.37-.02.1-.02.19,0,.29,0,.38,0,.76,0,1.14-.59,0-1.19.01-1.78.02-1.23,0-2.43-.19-3.6-.57Z"/>
      <path class="cls-13" d="M88.14,109.25c-.22,1.16-.99,1.55-2.08,1.51-1.66-.42-3.38-.1-5.06-.35,0,0,0,0,0,0-.32-1.16-.29-2.36-.39-3.54,0-.69-.02-1.38-.02-2.07.06-.11.11-.22.17-.33.06.01.12.02.19.02.12,0,.24.02.35.03-.19,1.39.36,2.76,0,4.4.75-1.01,1.08.08,1.62.02,1.76-.19,3.47.35,5.22.31Z"/>
      <path class="cls-4" d="M2.89,93.02c-.02-.2-.03-.39-.05-.59-.06-.89-.12-1.78-.19-2.67.45-.87.93-1.7,2.07-1.76-.6,2.05-.61,3.99,1,5.67.29.3.55.68.54,1.15-1.23.78-2.02-.3-2.97-.69-.14-.37-.27-.75-.41-1.12Z"/>
      <path class="cls-12" d="M77.42,97.97c-.14.42-.28.98-.79.94-1.93-.17-3.41,1.62-5.36,1.18-1.47-.34-2.62.34-3.58,1.23-1.19,1.11-2.63.45-3.91.82-.63.18-1.36.01-2.05,0,.81-.27,1.63-.54,2.44-.82,1.58-.17,3.02-.76,4.4-1.51.81-.06,1.6-.23,2.34-.57,2.17-.42,4.33-.84,6.5-1.26Z"/>
      <path class="cls-13" d="M46.7,103.02c0-.38,0-.76,0-1.14.5-.02.85.26,1.05.65.54,1.05,1.32.93,2.18.52.69.59.78-.21,1.06-.48,1.45-1.44,3.3-1.57,4.68-.31.46.42.61.73-.1,1v.08c-.19.02-.38.05-.57.07-.32-.06-.64-.1-.92.14-.19.03-.38.06-.57.08-.68,0-1.35.01-2.03.02-1.56-.02-3.13-.03-4.69-.05,0,0-.04-.08-.04-.08-.01-.17-.03-.33-.04-.5Z"/>
      <path class="cls-14" d="M23.62,12.45c.64-.47,1.42-.52,2.15-.75.14.08.29.16.43.23.39.82-.48,2.06.85,2.55.43.16,1.12.16.83.88-.26.64-.85.77-1.48.51-.54-.23-1.09-.57-1.68-.43-1.69.41-1.61-.35-1.05-1.48h0c.1-.1.2-.21.3-.31.26-.5.65-1.04-.33-1.2Z"/>
      <path class="cls-13" d="M26.19,11.93c-.14-.08-.29-.16-.43-.23.87-.34,1.73-.69,2.6-1.03.26.04.47-.04.63-.25.09.03.18,0,.25-.06.82-.26,1.72-.3,2.45-.81.18-.06.35-.13.53-.19-.68,1.2.21,2.11.59,3.11-1.47.53-2.77.22-3.91-.81-.43-.38-.85-.45-1.3-.05-.41.36-.93.24-1.4.33Z"/>
      <path class="cls-12" d="M19.28,97.14c0-4.43,0-8.86,0-13.29.7.18.5.75.51,1.21.02,1.47-.03,2.94.02,4.41.03,1.14.01,2.23.45,3.41.53,1.42.08,3-.97,4.26Z"/>
      <path class="cls-3" d="M4.73,88c-1.14.06-1.62.89-2.07,1.76-.1-.3-.2-.59-.3-.89-.01-.19-.03-.39-.04-.58.01-.7.04-1.41-.26-2.08,0-.09-.01-.19-.02-.28.04-.1.07-.2.11-.31.4-.54.67-1.31,1.53-1.13.92.19.93.94.95,1.71.01.42.27.83.41,1.24-.1.19-.2.37-.3.56Z"/>
      <path class="cls-12" d="M22.1,92.42c-.41-.05-1.11.13-1.06-.47.16-2.16-1.23-4.21-.45-6.58.59.72.55,1.79,1.51,2.03.04.38.07.77.11,1.15l-.11,3.87Z"/>
      <path class="cls-12" d="M2.89,93.02c.14.37.27.75.41,1.12-.11,1.06-.03,2.09.54,3.04-.31,1.8.41,3.51.47,5.28-.85.1-1.03-.3-1.11-1.1-.21-2.38-.5-4.76-.87-7.12-.11-.66.32-.84.56-1.21Z"/>
      <path class="cls-11" d="M64.2,4.17c.47,1.16-.47,2.01-.67,3.02-.83-.82-1.98-1.04-2.96-1.59.52-1.43,2.03-1.72,3-2.64.24.12.3.34.3.59,0,.27.01.52.33.62h0Z"/>
      <path class="cls-10" d="M80.38,13.96c-2.95-.87-5.75-2.13-8.61-3.23.75-1.07,1.71-.25,2.33,0,1.78.69,3.49,1.52,5.41,1.78.85.11.82.83.87,1.46Z"/>
      <path class="cls-13" d="M38.4,3.95c-.75-.83-1.14-1.81-1.16-2.94,1.64-.47,3.32-.6,5.02-.6,0,.08,0,.16,0,.25-.41.02-.82.04-1.23.06-.28.01-.58-.02-.84.07-.06.02.17.14.3.17-.7,1-1.39,1.99-2.09,2.99Z"/>
      <path class="cls-14" d="M88.11,28.4c.7-.72,1.13.26,1.72.26.9.79,1.07,1.94,1.51,2.96-1.27-.55-2.6-.98-3.58-2.03-.02-.1-.04-.2-.06-.3.13-.3.27-.59.4-.89Z"/>
      <path class="cls-12" d="M22.16,83.86c-1.28-.24-1.78-1.08-1.78-2.31,0-.98-.01-1.96,0-2.94,0-.31-.13-.79.39-.79.35,0,.63.33.7.68.15.77.07,1.55,0,2.33-.07.76-.27,1.64.66,2.12,0,0,.1.08.1.08-.02.28-.05.55-.07.83Z"/>
      <path class="cls-13" d="M23.62,12.45c.98.16.59.7.33,1.2-.1.1-.2.21-.3.31,0,0,0,0,0,0-.84.15-1.64-.24-2.55,0-1.48.38-2.31,1.49-3.38,2.35-.18-.11-.37-.21-.55-.32,1.61-2.15,4.09-2.72,6.44-3.53Z"/>
      <path class="cls-6" d="M17.18,15.98c.18.11.37.21.55.32.08,1.3-.62,2.18-1.57,2.94-.55.21-1.1.42-1.65.63.5-1.56,1.22-2.98,2.67-3.89Z"/>
      <path class="cls-12" d="M81,110.41c1.68.26,3.39-.06,5.06.35,1.39.17,2.78.34,4.17.51-.55.17-1.01.67-1.69.11-.3-.24-1.02-.22-1.42-.04-2.27,1.03-4.18.07-6.11-.94Z"/>
      <path class="cls-12" d="M4.51,39.95c-.62,2.25-1.24,4.51-1.86,6.76.06-2.12-.29-4.28.58-6.34.31-.74.58-1.09,1.28-.42Z"/>
      <path class="cls-6" d="M13.24,21.85c0,.27-.02.55-.03.82-.57,1.36-.18,3.06-1.42,4.2-.46.04-.92.09-1.37.13.78-1.8,1.66-3.55,2.83-5.14Z"/>
      <path class="cls-14" d="M77.42,97.97c-2.17.42-4.33.84-6.5,1.26.07-.78.16-1.55.91-2.03-.15,1.23.64,1.22,1.48,1.06.57-.11,1.03-.54,1.65-.54,1.17,0,1.64-.65,1.61-1.75,1.09.2.11,1.42.88,1.79-.01.07-.02.14-.02.21Z"/>
      <path class="cls-12" d="M22.45,72.66c0,2.47,0,4.94.01,7.41-.14.99.18,2.01-.23,2.97,0,0-.1-.08-.1-.08-.17-1.95.25-3.88-.45-5.88-.47-1.35-.38-3.1.77-4.42Z"/>
      <path class="cls-12" d="M61.19,102.2c-.04.46.13,1.13-.61,1.1-1.44-.06-2.8.3-4.18.6-.42.09-.79-.05-.84-.57,0,0,0-.08,0-.08.71.35.97-.48,1.52-.56,1.23-.46,2.62.11,3.82-.58.1.03.2.06.3.08Z"/>
      <path class="cls-12" d="M19.27,77.67c0-1.67,0-3.35,0-5.02.19.04.45.01.55.13.67.78.27,4.19-.55,4.9Z"/>
      <path class="cls-14" d="M61.19,102.2c-.1-.03-.2-.06-.3-.08.13-.76.94-1.43.3-2.29.81-.02,1.39.54,2.07.84.31.21.61.43.92.64-.81.27-1.63.54-2.44.82-.18.03-.36.05-.55.08Z"/>
      <path class="cls-6" d="M56.33.31c-.75.03-1.49.06-2.24.1-.1,0-.2,0-.31,0-3.43-.03-6.85-.06-10.28-.09,4.27-.43,8.55-.42,12.82,0Z"/>
      <path class="cls-12" d="M19.2,70c0-1.58,0-3.16-.01-4.74.2-.78.4-1.56.6-2.35,0,0,.08.06.08.06-.02,1.91-.03,3.83-.07,5.74-.01.49.24,1.15-.59,1.28Z"/>
      <path class="cls-14" d="M22.1,92.42c.04-1.29.07-2.58.11-3.87,0,0,.14.04.14.04v5.3c.52.15.6-.38.94-.39-.04,1.06-1.35,1.89-.55,3.09-.19-.02-.38-.04-.57-.05-.03-1.18-.05-2.36-.08-3.53,0-.2,0-.39,0-.59Z"/>
      <path class="cls-12" d="M80.65,99.5c0,.49,0,.98,0,1.47-.05,0-.1.01-.14,0-.6-.22-1.72.5-1.76-.57-.04-1.2,1.13-.85,1.9-.91Z"/>
      <path class="cls-12" d="M21.57,71.46c-.08.43.19,1.1-.55,1.13-.87.03-.61-.71-.62-1.18-.01-.44-.17-1.09.6-1.06.76.03.49.68.57,1.11Z"/>
      <path class="cls-6" d="M22.35,88.6s-.14-.04-.14-.04c-.04-.38-.07-.77-.11-1.15.02-1.18.04-2.36.06-3.54.02-.28.05-.55.07-.83.41-.96.1-1.98.23-2.97.1.04.19.08.29.13,0,1.06-.02,2.11-.03,3.17-.56,1.71-.14,3.5-.37,5.23Z"/>
      <path class="cls-12" d="M2.36,88.87c.1.3.2.59.3.89.06.89.12,1.78.19,2.67-.14-.02-.34.02-.42-.06-.52-.49-.55-2.87-.06-3.49Z"/>
      <path class="cls-12" d="M80.61,106.87c.1,1.18.08,2.38.39,3.54-.39-.16-1.19.17-.9-.79.27-.9-.56-2,.5-2.75Z"/>
      <path class="cls-12" d="M90.45,111.29c.8,0,1.59-.01,2.39-.02,1.1.62,1.1-.34,1.36-.93.05.04.09.08.14.12-.16.47.22,1.33-.49,1.34-1.13.03-2.43.65-3.4-.51Z"/>
      <path class="cls-12" d="M97.41,106.69c-.14-.76-.29-1.51-.41-2.27-.05-.29-.06-.63.34-.69.4-.06.5.25.49.56-.03.8.16,1.62-.42,2.4Z"/>
      <path class="cls-14" d="M94.85,39.28c-.58.12-1.16.25-1.73.37-.71-.17-.66-.59-.31-1.05.26-.34.62-.6.65-1.07.45.59.2,1.75,1.4,1.75Z"/>
      <path class="cls-12" d="M56.32,105.43c-.27.43-.67.58-1.11.54-.42-.04-.99-.11-.96-.64.03-.55.6-.53,1.03-.5.43.03.85.12,1.04.6Z"/>
      <path class="cls-10" d="M70.66,10.37c-.82.08-1.53-.95-2.47-.2-.19.15-.1-.43-.21-.65.66,0,1.32,0,1.98.02.52.02.99.11.7.83Z"/>
      <path class="cls-12" d="M70.78,101.92c-.82.23-1.34.46-1.58-.26-.09-.29-.16-.8.27-.86.82-.12.55.84,1.31,1.12Z"/>
      <path class="cls-12" d="M80.75,104.47c-.06.11-.11.22-.17.33-.66-.9-.93-1.79.07-2.64.03.77.07,1.54.1,2.31Z"/>
      <path class="cls-12" d="M19.27,82.69c0-.79,0-1.58,0-2.37.81.79.81,1.58,0,2.37Z"/>
      <path class="cls-4" d="M46.78,103.6c1.56.02,3.13.03,4.69.05-.08.07-.15.14-.23.21-1.48-.21-3.01.4-4.47-.26Z"/>
      <path class="cls-4" d="M10.41,26.99c.46-.04.92-.09,1.37-.13-.23.77-.55,1.39-1.53.91.05-.26.11-.52.16-.78Z"/>
      <path class="cls-10" d="M31.69,9.55c-.74.51-1.63.54-2.45.81.38-1.59,1.63-.55,2.45-.81Z"/>
      <path class="cls-12" d="M61.13,105.53c-.56.16-.98.35-1.28-.13-.04-.07.06-.3.16-.36.49-.3.79-.04,1.13.5Z"/>
      <path class="cls-12" d="M38.38,101.95c0,.07.02.14.04.2-.82.3-1.52.13-2.07-.56.27,0,.54,0,.8.01.41.12.82.23,1.23.35Z"/>
      <path class="cls-13" d="M84.71,18.66c-1.36.27-.65-.52-.52-1.01.39.23.3.7.52,1.01Z"/>
      <path class="cls-12" d="M54.06,103.55c.28-.23.6-.2.92-.14-.04.27.09.65-.33.69-.34.03-.47-.29-.59-.56Z"/>
      <path class="cls-12" d="M2.06,86.21c.3.67.27,1.37.26,2.08-.51-.64-.21-1.38-.26-2.08Z"/>
      <path class="cls-13" d="M84.11,17.51c-.94.18-.8-.54-.88-1.06.29.35.59.71.88,1.06Z"/>
      <path class="cls-12" d="M51.24,103.86c.08-.07.15-.14.23-.21.68,0,1.35-.01,2.03-.02-.7.55-1.49.24-2.25.23Z"/>
      <path class="cls-4" d="M46.7,103.02c.01.17.03.33.04.5-.61-.16-1.21-.32-1.82-.48.59,0,1.19-.01,1.78-.02Z"/>
      <path class="cls-6" d="M13.87,20.72c.02.42-.18.72-.53.93-.05-.44.06-.79.53-.93Z"/>
      <path class="cls-12" d="M99.08,61.45c0-.2,0-.4,0-.6.19.03.41.06.41.3,0,.24-.22.27-.42.29Z"/>
      <path class="cls-13" d="M83.21,16.43c-.47.08-.67-.1-.56-.58.19.19.37.38.56.58Z"/>
      <path class="cls-6" d="M14.37,20.04c.04.38-.2.55-.5.68,0-.35.19-.56.5-.68Z"/>
      <path class="cls-13" d="M64.21,4.18c-.32-.1-.34-.35-.33-.62.24.14.3.37.33.62Z"/>
      <path class="cls-10" d="M28.98,10.42c-.16.21-.37.29-.63.25.15-.24.36-.32.63-.25Z"/>
      <path class="cls-12" d="M2.56,47.29c-.02.2-.04.39-.06.59-.2-.22-.19-.42.06-.59Z"/>
      <path class="cls-2" d="M9.42,29.63c-.05.09-.1.17-.15.26.05-.09.1-.17.15-.26Z"/>
      <path class="cls-11" d="M50.26,39.56c.02.32.73.49.33.82-.64.52-.89,1.14-.48,1.79.52.82,1.26,1.51,2.2,1.84.59.21,1.24.3,1.87.31,1.97.03,2.14.16,1.97-1.82-.08-.96.4-1.14,1.23-1.13,3.14.03,6.28.01,9.42,0,1.28,0,2.56,0,3.84,0-.76,1.62-1.33,3.38-2.33,4.84-2.27,3.36-5.2,6.07-8.84,7.95-.42.22-.82.49-.82.95.01.6.62.27.92.45.29.17.53.41.79.62,0,1.35-1.04,1.55-2.02,1.63-1.21.11-2.44.05-3.66.06.94-1.42,1.82-2.84,1.48-4.69-.19-1.08-.21-2.18-.3-3.28,0-.19,0-.39,0-.58.09-.1.19-.2.28-.3.19-1.3-.06-2.5-.39-3.7-.17.02-.33.04-.5.07v1.86c-.09,0-.17,0-.26,0-.15-1.75-.35-1.89-1.84-1.14-.99.5-1.74.38-2.35-.62-.59-.97-1.48-1.59-2.55-.86-1.08.74-.72,1.75-.12,2.71.42.68,1.15,1.26.88,2.22-.26.22-.52.44-.78.67-.28-.06-.48-.1-.56-.5-.26-1.23-.63-2.44-.95-3.66,0-.88,0-1.77,0-2.65.04-.03.11-.07.11-.09-.02-.08-.07-.15-.11-.22,0-.98,0-1.96-.01-2.94,0-.69,0-1.37,0-2.06.77-.14,1.55-.61,2.32,0,.17.68,1.11.69,1.24,1.41Z"/>
      <path class="cls-11" d="M89.87,50.22c1.38-.39,2.75-.78,4.13-1.17.89,5.21.03,10.09-2.83,14.58-.12.19-.08.47-.11.71-1.77-.2-3.53.6-5.29.01h0c.02-.93-.79-1.22-1.36-1.59-1.01-.66-1.7-1.57-1.97-2.66-.39-1.54-.62-3.14.08-4.69,1.43.13,2.21.74,2.09,2.35-.21,2.8.78,4,3.59,4.74.95.25,1.25.1.94-.95-.97-3.37-1.87-6.77-2.8-10.15,1.18-.39,2.36-.79,3.54-1.18Z"/>
      <path class="cls-2" d="M85.76,64.36c1.77.59,3.53-.22,5.29-.01.1.01.2.03.3.04.64.66,1.02,1.43.95,2.38-.05.09-.07.18-.07.28-.09.1-.19.2-.28.3-.1.1-.2.21-.3.31l-.27.29-.02.02c-.2,0-.39,0-.59,0,.08-.28.14-.56.25-.83.56-1.4.1-2.09-1.45-2.14-.29,0-.59,0-.88,0-.47.01-1.07-.13-1.24.49-.17.61.34.95.73,1.3.45.4,1.28.34,1.39,1.15-.33-.09-.69-.11-.97-.27-1.92-1.09-3.43-.29-4.87.98-.62.54-1.04,1.29-1.84,1.63-.58-.77-.61-1.66-.62-2.58,0-.51.35-1.2-.45-1.51-.25-1.28-.5-2.56-.75-3.83-.24-1.66-.48-3.33-.71-4.99-.08-.61.43-1.36-.46-1.75,0-.11-.02-.22-.03-.33-.06-.37-.11-.75-.17-1.12.1-.14.21-.27.31-.41.92-.03,1.76.16,2.25,1.01.3.51.84.42,1.23.68-.7,1.55-.46,3.15-.08,4.69.27,1.09.96,1.99,1.97,2.66.57.37,1.37.67,1.36,1.59-1.34.04-.83,1.05-.9,1.74-.03.31.11.69.47.56.53-.18,1.2-.41,1.44-.83.34-.59-.59-.45-.78-.8-.11-.2-.15-.45-.23-.67Z"/>
      <path class="cls-2" d="M78.92,30.17c-.64-.89-1.64-1.57-1.5-2.9.07-.7.31-1.23.88-1.6.65-.42,1.22-.11,1.79.22.08.05.18.1.23.18,1.23,2.25,3.66,2.75,5.66,3.86.61,1.26.57,2.83,1.83,3.77.32.86.79,1.63.93,2.58.31,2.11-.78,3.48-2.18,4.76-.39.3-.94.46-1.01-.13-.13-.97-.89-1.75-.72-2.77.09-.11.23-.2.28-.33,1.11-2.79-.65-5.68-4.11-6.73-.69-.3-1.38-.6-2.07-.9Z"/>
      <path class="cls-5" d="M82.5,55.42c-.39-.26-.94-.17-1.23-.68-.49-.84-1.34-1.04-2.25-1.01,1.08-1.01,1.88-2.15,1.98-3.71.05-.82.73-1.2,1.37-1.6.62-.38,1.2-.82,1.89-1.29.79,1.35.65,3.11,1.78,4.31-.72-.16-1.4-.33-1.88-1.01-.26-.37-.76-.81-1.25-.61-.95.38-.7,1.22-.4,1.88.41.91.43,2.54,1.77,2.22.68-.16,2.04-1.06,1.73-2.5.11,0,.21-.01.32-.02.93,3.39,1.83,6.78,2.8,10.15.3,1.05,0,1.2-.94.95-2.8-.73-3.79-1.93-3.59-4.74.12-1.61-.66-2.22-2.09-2.35Z"/>
      <path class="cls-9" d="M64.71,23.07c2.4.44,3.24,2.07,3.41,4.29.04.5.22,1.06.73,1.37-.09.86.43,1.49.88,2.12.48.68.39,1.15-.47,1.18-1.66.07-3.34.2-4.98,0-1.1-.13-1.02-1.33-.97-2.18.08-1.46-.45-2.45-1.83-2.96.18-2.03,1.62-3.01,3.24-3.83Z"/>
      <path class="cls-7" d="M70.64,41.39c-1.28,0-2.56,0-3.84,0,.03-.73.58-1.19,1.09-1.47,2.28-1.29,3.02-3.42,3.37-5.79.18-1.22.58-2.17,2.1-1.91,1.29-.23,1.93.18,1.75,1.6-.09.71,0,1.45.02,2.18v4.33c.11.7-.42,1.01-.85,1.38-1.19-.4-2.42-.31-3.65-.3Z"/>
      <path class="cls-15" d="M64.71,23.07c-1.62.82-3.06,1.8-3.24,3.83-.18.99-.34,1.98-.55,2.96-.17.81-.61,1.41-1.5,1.53-1.45-.64-1.42-1.96-1.51-3.23.28-.83.37-1.65.1-2.53-.18-.59-.17-1.25.46-1.68,1.69.02,1.82-.14,1.46-1.81h-.02c.15,0,.32.13.43-.09-.12-.04-.23-.09-.35-.13,0-.1.02-.2.03-.3.71-.38.66-.96.41-1.59l.03-.04c.08.01.16.03.23.04-.05-.06-.1-.11-.16-.17.19-.41.73-.6.7-1.14.16,0,.33.01.49.02.4.4.79.8,1.19,1.2.94.47,2.07-.13,2.97.52.59,1.32-.35,1.95-1.18,2.63Z"/>
      <path class="cls-2" d="M58.46,23.95c-.63.43-.64,1.1-.46,1.69.27.88.17,1.7-.1,2.53-1.12,1.01-2.05,2.11-1.74,3.78-.1.04-.2.08-.3.12-.08.06-.17.12-.25.19-.69,1.02-.14,2.18-.37,3.25-.18,0-.35,0-.53,0,.07-.23.13-.44-.1-.66-1.7-1.61-2.42-3.52-1.67-5.83.1-.18.2-.36.3-.54.93-.77,1.84-1.63,2-2.86.11-.88.42-1.56.99-2.17.85-.02,1.7-.04,2.56-.07-.11.19-.22.39-.33.58Z"/>
      <path class="cls-5" d="M54.7,35.5c.18,0,.35,0,.53,0,0,.69-.01,1.37-.02,2.06-.96.23-2.11-.57-2.9.54-.69.49-1.37.98-2.06,1.47-.13-.71-1.07-.72-1.24-1.41.09-.94-.77-1.52-.89-2.38.39-1.29-.07-2.09-1.39-2.39.04-1-.3-2.02.23-2.98.81.06,1.45.51,2.09.95.1.09.2.19.3.28.75.95,1.43,1.97,2.27,2.83.81.83,1.73,1.63,3.07,1.02Z"/>
      <path class="cls-11" d="M75.15,40.31c0-1.44,0-2.88-.01-4.33.86-.47,1.39-1.27,2.01-1.99-.07.59.23,1,.64,1.39,1.25,1.18,2.18,2.56,2.62,4.24-.88.45-1.78.38-2.69.13-.95-.26-1.82-.15-2.56.55Z"/>
      <path class="cls-8" d="M80.99,31.07c3.46,1.06,5.22,3.94,4.11,6.73-.05.13-.18.22-.28.33-1.18-.25-1.38-1.35-1.7-2.2-.64-1.66-1.35-3.28-2.13-4.87Z"/>
      <path class="cls-6" d="M75.15,40.31c.74-.71,1.61-.81,2.56-.55.91.24,1.81.32,2.69-.13.53,1.11.34,2.28.26,3.43-.07.13-.14.27-.22.4-.12.05-.24.1-.36.15.01-.05.02-.1.02-.16q.01-2.96-2.92-2.96s-.1,0-.15,0c-1.3,0-2.49,1.41-2.23,2.71.17.85.71,1.38,1.62,1.42.54.03,1.08.01,1.62.02-.46.44-1.04.49-1.62.44-1.57-.13-2.08.62-1.44,2.12.26.61.84,1.09.74,1.85-.35.35-.41,1.2-1.08.96-.52-.18-.22-.87-.23-1.33-.07-2.33-.09-4.67-.13-7,.43-.37.95-.68.86-1.38Z"/>
      <path class="cls-8" d="M86.55,41.04c1.4-1.27,2.49-2.65,2.18-4.76-.14-.96-.61-1.73-.93-2.58,1.2-.13,2.16.42,3.29,1.2-1.69.23-1.59,1.36-1.53,2.48.02.39,0,.78,0,1.17,0,2.08-.88,2.8-3.01,2.49Z"/>
      <path class="cls-14" d="M77.15,34c-.61.72-1.15,1.52-2.01,1.99-.01-.73-.11-1.46-.02-2.18.18-1.43-.47-1.84-1.75-1.6-.3-.29-1.06-.1-.92-.88.09-.5.48-.71.84-.94.52-.33.97-.11,1.26.32.54.78,1.2,1.35,2.07,1.73.68.29.88.86.53,1.56Z"/>
      <path class="cls-4" d="M75.74,49.05c.1-.76-.48-1.24-.74-1.85-.64-1.51-.13-2.25,1.44-2.12.58.05,1.16,0,1.62-.44,0,0,0,0,0,0,.24-.07.43-.19.42-.48h.05c.39-.08.56-.41.76-.69l.83-.02c0,.05,0,.11-.02.16-.4.91-1.09,1.59-1.83,2.21-.43.36-.79.72-.88,1.29-.29-.18-.03-.69-.56-.83,0,.57,0,1.09,0,1.61-.75.03-.64.85-1.08,1.16Z"/>
      <path class="cls-8" d="M56.16,31.94c-.31-1.67.62-2.77,1.74-3.78.09,1.27.07,2.6,1.51,3.23-.32.95-1.11.44-1.7.53-.51.08-1.04.02-1.56.01Z"/>
      <path class="cls-6" d="M75.12,25.17c-.5.49-1.01.97-1.51,1.46-.5-.72-1.42-.89-2-1.49-.05-.95-1.13-1.39-1.19-2.34.52-.08.96.21,1.08.6.58,1.94,2.09,1.86,3.63,1.78Z"/>
      <path class="cls-10" d="M76.81,47.88v-1.61c.54.14.27.65.56.83.01.36.02.72.03,1.08-.56,1.61-.13,3.28-.23,4.91-.09,1.51-.04,3.02-.05,4.54-.28-.8.18-1.76-.52-2.48.1-.75.39-1.47.25-2.25-.02-1.68-.03-3.36-.05-5.03Z"/>
      <path class="cls-6" d="M52.32,38.09c.79-1.11,1.94-.31,2.9-.54.14.56-.11.79-.61.56-.78-.35-1.53-.2-2.29-.02Z"/>
      <path class="cls-10" d="M78.71,54.14c.06.37.11.75.17,1.12-.94-.51-.43-1.38-.53-2.1.12.33.24.65.36.98Z"/>
      <path class="cls-8" d="M91.75,35.96c-.07-.08-.25-.2-.29-.36-.06-.22.12-.37.32-.27.14.07.27.25.32.41.04.14-.08.25-.35.22Z"/>
      <path class="cls-10" d="M77.69,49.65c-.37-.34-.28-.76-.25-1.18.24.36.33.76.25,1.18Z"/>
      <path class="cls-8" d="M55.6,32.25c.08-.06.17-.13.25-.19-.09.06-.17.12-.25.19Z"/>
      <path class="cls-8" d="M87.71,29.29c.02.1.04.2.06.3-.04-.06-.1-.12-.13-.19,0-.02.05-.07.07-.1Z"/>
      <path class="cls-4" d="M80.44,43.46c.07-.13.14-.27.22-.4-.07.13-.14.27-.22.4Z"/>
      <path class="cls-3" d="M22.77,65.25c0-.69,0-1.38,0-2.07.45-.58.96-1.03,1.77-.8,1.29.18,2.35.79,3.24,1.72.03.08.04.15.03.23.07.12.14.24.2.35,1.12.97,3.12.85,4.01-.24.94.84,1.98,1.05,3.15.54,1.65.47,3.34.13,5,.29.3,0,.6,0,.91,0,.07,2.28-.74,4.23-2.04,6.09-.75,1.07-2.19,1.58-2.39,3.05-3.19,0-6.39.02-9.58-.01-.67,0-1.26.07-1.7.63-1.3.11-.93,1.38-1.42,2.05-.96.38-1.25.04-1.22-.96.05-1.69-.03-3.38-.06-5.07-.14-.56-.08-1.11.06-1.65,1.04-.02,2.25.19,2.08-1.5-.36-1.13-1.18-1.9-2.04-2.65Z"/>
      <path class="cls-13" d="M40.19,89.76c-.43,1.25-.18,2.56-.32,3.84-.92-.91-1.56-1.94-1.76-3.28-.15-.97-.74-1.74-1.75-2.09-2.37-.46-4.76-.31-7.14-.07-.24.02-.47.14-.8-.17.86-1.13,2.26-1.54,3.32-2.38,1.35-1.07,2.64-2.16,3.66-3.57.85-1.17,1.95-2.17,2.71-3.4.8-1.29,1.59-2.64,1.77-4.22,1.39-.03,2.78-.02,4.15.29-.29.48-.26,1.02-.31,1.55-.16,1.76.35,3.48.31,5.23-.66,1.5-.28,3.08-.25,4.61.03,1.49-.45,2.11-1.94,1.88-1.42-.22-2.03.32-1.66,1.77Z"/>
      <path class="cls-7" d="M44.04,74.72c-1.37-.3-2.76-.31-4.15-.29-1.08,0-2.16,0-3.24,0,.2-1.47,1.65-1.98,2.39-3.05,1.3-1.86,2.11-3.81,2.04-6.09.59,0,1.19.05,1.77-.01,1.33-.15,1.88.33,1.81,1.73-.05.99-.34,2.05.26,3-.59,1.34-.17,2.75-.3,4.12,0,.38-.2.59-.59.6Z"/>
      <path class="cls-2" d="M36.36,88.24c1,.35,1.6,1.12,1.75,2.09.21,1.33.85,2.36,1.76,3.28.41,1.15.26,2.34.3,3.52-.17.17-.24.35-.09.57-.06.31-.13.61-.19.92-.8.7-1.6,1.39-2.4,2.09-.12-1.17-1.04-2.07-1.11-3.26.31-.19.46-.47.56-.82.7-2.51-1.4-5.72-4.14-6.28-.68-.3-1.35-.59-2.03-.89-.11-.09-.23-.17-.34-.26-.11-.1-.23-.2-.34-.3-.25-.76.29-.64.72-.64,1.85,0,3.7-.01,5.55-.02Z"/>
      <path class="cls-15" d="M22.72,83.36c0-1.06.02-2.12.03-3.17.1-.02.2-.04.3-.06.1.57.49.84.91,1.21.54.47,1.25,1.18,1,1.96-.18.58-.6,1.39-1.58,1.16-.22-.37-.45-.73-.67-1.1Z"/>
      <path class="cls-6" d="M23.39,84.46c.98.23,1.4-.57,1.58-1.16.24-.79-.46-1.49-1-1.96-.42-.37-.82-.64-.91-1.21,1.7.07,2.58.9,2.42,2.46-.11,1.11.42,2.29-.35,3.32-.37-.72-1.48-.57-1.73-1.45Z"/>
      <path class="cls-2" d="M23.95,77.09c.49-.67.12-1.93,1.42-2.05.02.98.05,1.96.07,2.94.01.48-.08.94-.69.87-.53-.05-1.2.61-1.49.06-.35-.66.63-1.14.69-1.83Z"/>
      <path class="cls-13" d="M77.31,76.57c.03.17.05.34.08.51-.26.2-.26.39,0,.59,0,.49,0,.98,0,1.47-.73.04-1.47.01-2.19.13-.38.06-.99.12-.98.71.03,1.2-.31,2.43.23,3.6.04.06.07.13.08.2-.55.82.21,1.66-.04,2.48.1,1.64-.74,2.12-2.24,1.88-.22-.04-.46.11-.7.17-1.33-.31-2.62-.17-3.88.3-.09-.03-.17-.06-.26-.08,0-.09,0-.19-.01-.28-.46-.43-1.03-.25-1.55-.25-2.43-.02-4.86,0-7.74,0,.72-.27,1.04-.34,1.31-.5,2.98-1.76,5.72-3.83,7.65-6.75,1.24-1.87,2.99-3.52,2.98-6.03,1.27-.57,2.61-.18,3.92-.28.59-.04,1.38.03,1.34-.76-.12-2.01.68-4.06-.23-6.04.29,0,.58.01.87.02.04.94.44,1.71,1.11,2.36.04.4.07.8.11,1.2.02.11-.01.19-.11.24-.06.04-.12.09-.18.13.07.08.13.15.2.23.1.06.12.14.07.24-1.28,1.04-1.2,3.52.15,4.53Z"/>
      <path class="cls-8" d="M75.96,67.64c-.29,0-.58-.01-.87-.02,0-.78,0-1.56-.01-2.35.2-.16.34-.39.03-.51-.41-.17-.57.11-.61.48-.89,0-1.78.02-2.67.02-1.56-.14-3.15.3-4.68-.28-.21-.32-.42-.63-.63-.95-.07-.17-.15-.34-.22-.51-.12-.11-.24-.23-.36-.34-.06-.4-.31-.68-.62-.91-.07-.08-.14-.15-.21-.23-.29-.35-.42-.74-.42-1.19.2,0,.39,0,.59,0l.94.33c.26.32.62.24.96.21h.8c.51.52.79.37.86-.31v.02c.1-.08.22-.17.33-.25.14-.12.28-.24.42-.35.49-.07.45-.46.48-.81.09-.21.19-.42.28-.63,1.52.52,2,1.31,1.65,2.86-.12.55-.33,1.08.27,1.43.57.34,1.04.01,1.45-.36,1.19-1.1,2.27-2.25,2.52-3.97.25-1.7-.88-2.86-2.57-2.48-.75.17-1.44.23-2.13-.14.1-.39.2-.79.3-1.18,1.1.04,2.24.55,3.25-.32.44-.04.83.11,1.18.36.47,1.21.26,2.47.3,3.71.02.57-.11,1.18.51,1.55,0,.89.02,1.77.03,2.66-.19.03-.42.05-.41.3,0,.24.23.27.42.29,0,.59,0,1.18,0,1.78-1.03.33-.89,1.3-1.14,2.06ZM70.63,62.05c-.05-.14.06-.44-.27-.35-.11.03-.21.2-.25.32-.06.19-.02.41.22.44.26.03.27-.21.3-.42Z"/>
      <path class="cls-5" d="M81.26,77.68c-.03-.33-.26-.35-.52-.34.23-1.86-.5-3.72.04-5.58.08-.03.15-.06.23-.1.92.27,1.53.9,2,1.69.83.99,1.66.46,2.24-.18.91-1.01,1.13-.28,1.47.41.24.5-.03.95-.12,1.42-.69.41-1.38.83-2.07,1.24-.1.08-.21.16-.31.24h0c-.23.05-.38.19-.43.44l-.02.02c-.24.05-.39.2-.46.43-.12.17-.24.34-.36.51,0,0,0-.02,0-.02-.08,0-.15,0-.21.05-.43-.4-.97-.17-1.45-.24l-.05.02Z"/>
      <path class="cls-11" d="M74.46,83.58c-.54-1.17-.2-2.4-.23-3.6-.02-.59.59-.64.98-.71.72-.12,1.46-.1,2.19-.13.04,1.18.07,2.36.11,3.55-.29.86.45,2.17-.33,2.55-.81.4-1.6,1.18-2.67,1.02.25-.82-.51-1.66.04-2.48.65.11,1.5.16,1.61-.57.15-1.02-1.16-.79-1.69-1.82v2.18Z"/>
      <path class="cls-6" d="M74.5,86.26c1.06.16,1.86-.63,2.67-1.02.78-.38.05-1.69.33-2.55.38,3.24.23,6.48.21,9.73-.56-1.56.04-3.2-.29-4.79-1.29.52-2.54,1.05-3.4,2.2-.18.24-.43.18-.67.1-.4-.52-.98-.78-1.56-1.03-.08-.2-.15-.39-.23-.59.23-.06.48-.2.7-.17,1.5.25,2.34-.24,2.24-1.88Z"/>
      <path class="cls-11" d="M73.35,89.92c.24.08.49.14.67-.1.85-1.15,2.1-1.68,3.4-2.2.34,1.59-.26,3.23.29,4.79,0,.69-.02,1.38-.03,2.07-.2-.72-.53-1.31-1.37-1.42-.37-.05-.61-.26-.77-.59-.5-1.05-1.24-1.89-2.2-2.54Z"/>
      <path class="cls-14" d="M77.31,76.57c-1.35-1.01-1.44-3.49-.15-4.53.41,1.5.24,3.01.15,4.53Z"/>
      <path class="cls-4" d="M75.96,67.64c.24-.76.11-1.74,1.14-2.06,0,1.28.02,2.56.02,3.84-.02.19-.04.39-.06.58-.66-.65-1.07-1.42-1.11-2.36Z"/>
      <path class="cls-10" d="M78.9,55.59c.89.39.38,1.15.46,1.75.23,1.67.47,3.33.71,4.99-.89-.96-.92-2.23-1.1-3.4-.17-1.09-.06-2.23-.07-3.35Z"/>
      <path class="cls-14" d="M81.01,71.67c-.08.03-.15.07-.23.1.01-1.87.03-3.73.04-5.6.8.3.44,1,.45,1.51,0,.92.04,1.81.62,2.58-1.15-.06-.84.77-.87,1.41Z"/>
      <path class="cls-4" d="M77.07,60.55c-.62-.37-.49-.98-.51-1.55-.04-1.24.17-2.5-.3-3.71.12-.04.24-.08.35-.12.69.72.24,1.67.52,2.48-.02.97-.04,1.94-.06,2.91Z"/>
      <path class="cls-14" d="M77.07,70c.02-.19.04-.39.06-.58.28.59.35,1.18.05,1.78-.04-.4-.07-.8-.11-1.2Z"/>
      <path class="cls-4" d="M77.1,63.8c-.19-.03-.42-.05-.42-.29,0-.24.22-.27.41-.3,0,.2,0,.39,0,.59Z"/>
      <path class="cls-11" d="M77.7,95.96c-.33-.29-.33-.58-.01-.88,0,.29,0,.59.01.88Z"/>
      <path class="cls-11" d="M77.39,77.67c-.26-.2-.26-.39,0-.59,0,.2,0,.39,0,.59Z"/>
      <path class="cls-14" d="M77.08,71.8c-.07-.08-.13-.15-.2-.23.06-.04.12-.09.18-.13,0,.12,0,.24.01.35Z"/>
      <path class="cls-13" d="M58.79,23.36c-.85.02-1.7.04-2.56.07-1.18-.48-2.53-.2-3.68-.87-.34-.2-.75,0-1.02.37-1.2,1.61-2.93,2.1-4.81,2.24,0-.4,0-.79-.01-1.19.2-.3.39-.6.59-.9.52-.22.91-.55,1.18-1.05.51-.94,1.07-1.79,2.19-.61.17.18.43.28.65.06.2-.2.12-.45.04-.69-.29-.81-1-1.17-1.68-1.56-.18-1.01.33-1.94.29-2.93.51-.43,1.27-.47,1.71-1.03q-1.67-1.82-3.46-.12c-.11.1-.23.18-.35.27-.19.2-.37.4-.56.6-.1-.2-.21-.39-.31-.59.19-.79,1.18-.81,1.47-1.51.34-.67,1.23-1.04,1.1-1.97.25,0,.5-.02.75-.02-.22.75.27,1.12.8,1.46,0,0,0,0,0,0,.11.19.21.39.32.58.42.46,1.19.64,1.19,1.45-.78.2-.73.54-.16.95,1.6,1.16,2.6,2.89,3.98,4.26,1.56,1.54,1.81,1.6,3.23-.22l.07.06c-.14.44.12.78.27,1.14,0,.1-.02.2-.03.3-.07.06-.09.13-.08.22,0,0,.02,0,.02,0-.38.41-.76.82-1.14,1.22Z"/>
      <path class="cls-3" d="M54.38,9.97c.81-.72,1.87-1.17,2.38-2.22.26,0,.51,0,.77.01.24.11.47.22.71.33.11.07.23.15.34.22h.12s.12.04.12.04c-.13.3-.32.57-.07.93,1.27,1.88,1.86,4.06,2.74,6.12.03,2.26-2.05,2.85-3.27,4.13-.08-.97.36-2.04-.56-2.85.04-.71-.4-1.23-.65-1.84-.54-1.33-2.17-1.83-2.37-3.34.06-.54.16-1.08-.25-1.54Z"/>
      <path class="cls-7" d="M38.4,3.95c.7-1,1.39-1.99,2.09-2.99.18-.08.36-.16.54-.23.41-.02.82-.04,1.23-.06,2.36.2,2.86,1.97,3.26,3.83.08.38.19.78.42,1.08.46.6.72,1.32.31,1.9-.39.56-1.19.34-1.79.16-.57-.17-.94.02-1.31.38-.1,0-.19.01-.29.01,0,0,0,0,0,0-.14-.24-.33-.44-.62-.5-.34-.51-.94-.62-1.41-.94-.8-.59-1.61-1.18-2.09-2.09-.11-.18-.22-.37-.34-.55Z"/>
      <path class="cls-2" d="M58.81,8.35l-.12-.04s-.12,0-.12,0c-.11-.07-.23-.15-.34-.22-.24-.11-.47-.22-.71-.33.54-.88,1.67-1.11,2.2-2,.28-.06.56-.11.85-.17.97.55,2.13.77,2.96,1.59.56,1.18.48,2.58,1.43,3.63.6.67-.37,1.08-.51,1.65-.49.56-.98,1.13-1.47,1.69-.19-2.82-1.76-5.01-4.18-5.81Z"/>
      <path class="cls-7" d="M59.73,5.77c-.53.89-1.66,1.12-2.2,2-.26,0-.51,0-.77-.01-.07-.83-.81-1.17-1.27-1.7-.71-.83-.77-1.65-.02-2.46.8-.86,1.6-.74,2.38.08.65.68,1.56,1.13,1.89,2.1Z"/>
      <path class="cls-11" d="M48.46,13.91c-.29.7-1.28.72-1.47,1.51-.67.59-1.33,1.17-2,1.76-.09-.02-.19-.03-.28-.05-.03-.07-.06-.15-.08-.22-.19-1.07.42-1.83.96-2.64.88-1.32.77-2-.47-2.88-.38-.27-.5-.56-.49-.96.58.09,1.17.18,1.75.26.9.08,1.74.24,2.11,1.23.22.67-.76,1.32-.02,1.99Z"/>
      <path class="cls-13" d="M53.79.4c.1,0,.2,0,.31,0,.47.32,1.12.6.22,1.18-.89.57-1.83,1.07-2.62,1.82-.61.58-1.36.12-1.83-.37-.59-.61-1.19-1.28-1.54-2.21,1.84-.49,3.72.27,5.46-.42Z"/>
      <path class="cls-2" d="M54.38,9.97c.42.46.31,1,.25,1.54-.71.58-1.19,1.4-2.02,1.85-.51-.54-1.01.19-1.51.02,0,0,0,0,0,0,.02-.71.22-1.36.58-1.97.76-.73,1.71-1.13,2.7-1.44Z"/>
      <path class="cls-14" d="M48.46,13.91c-.74-.67.24-1.33.02-1.99.36,0,.72.01,1.08.02.13.93-.76,1.3-1.1,1.97Z"/>
      <path class="cls-14" d="M46.37,10.7c-.58-.09-1.17-.18-1.75-.26-.19-.11-.37-.22-.56-.32.36-.02.56-.19.54-.56l.1-.1c.6.36,1.49.34,1.68,1.25Z"/>
      <path class="cls-14" d="M51.68,11.41c-.36.61-.56,1.26-.58,1.97-.53-.35-1.02-.71-.8-1.46.46-.17.92-.34,1.38-.51Z"/>
      <path class="cls-14" d="M42.86,8.03c.1,0,.19,0,.29-.01.57.42,1.15.82,1.54,1.43,0,0-.09.1-.09.1-1.14.14-1.36-.78-1.74-1.51Z"/>
      <path class="cls-7" d="M62.99,14.17c.49-.56.98-1.13,1.47-1.69.74.05,1.45-.03,2.18-.69-.52,2.66-2.61,3.93-3.98,5.71-.64.16-.46.94-.94,1.23-.16,0-.33-.01-.49-.02-1.8-.6-1.44.77-1.56,1.7-1.43,1.83-1.68,1.77-3.23.22-1.39-1.37-2.38-3.1-3.98-4.26-.57-.41-.63-.75.16-.95.59.7,1.16,1.42,2.05,1.76.88.96,1.32,2.44,2.97,2.47.04.2.11.43.34.34.12-.05.17-.3.24-.47h0c1.21-1.27,3.3-1.87,3.27-4.13.78-.07,1.14-.66,1.5-1.24Z"/>
      <path class="cls-2" d="M74.13,15.76c.29.4.69.84.56,1.32-.28,1.05-.06,1.71,1.08,1.97.38.09.58.42.32.8-.26.38-.63.65-1.13.5-.47-.14-.92-.33-1.38-.49-.63-.21-1.54.43-1.87-.28-.2-.42.3-1.16.48-1.76.13-.2.39-.43.35-.61-.27-1.37.49-1.57,1.58-1.45Z"/>
      <path class="cls-4" d="M61.73,18.72c.47-.29.3-1.06.94-1.23-.19.84.95,1.54.25,2.43-.4-.4-.79-.8-1.19-1.2Z"/>
      <path class="cls-11" d="M8.31,35.12c1.26-.87,3.46-.63,4.58.83.87,1.12,1.87,1.55,3.17,1.64-.24,2.42.41,2.79,2.63,2.25,2.7-.65,3.84-.82,4.54,2.29.05.24.07.48.11.72-.63-.07-1.33-.56-1.86-.22-1.57,1.01-3.19.49-4.8.38-.27-1.01-1.25-.72-1.9-1.03-.37-.21-.77-.33-.89-.86-.6-2.5-1.22-3.08-3.65-3.26-.8-.06-1.14-.51-1.3-1.14-.14-.57-.24-1.13-.62-1.6Z"/>
      <path class="cls-7" d="M14.77,41.97c.66.3,1.63.02,1.9,1.03-.34,1.43-.68,2.87-1.02,4.3.12.23.34.28.57.29,0,0,.01.01.01.01.04.46-.04.84-.62.88-.86.05-.63.83-.87,1.3-.27.52-.13,1.31-.96,1.47-1.01-.01-1.92-.42-2.87-.71-1.89-.53-3.83-.93-5.62-1.77.89-.34,1.76-.69,2.69-.95,3.12-.88,5.76-2.45,6.78-5.84Z"/>
      <path class="cls-15" d="M75.12,25.17c-1.54.08-3.05.16-3.63-1.78-.12-.39-.56-.68-1.08-.6-.25-.84.23-1.22.92-1.53.71-.31,1.28-.21,1.82.35.59.62,1.11,1.4,2.17,1.15.91-.03,1.58.3,1.85,1.24,0,0,0,0,0,0-.49.04-1.16-.24-1.18.65-.29.18-.59.36-.88.53Z"/>
      <path class="cls-6" d="M77.17,24c-.27-.93-.94-1.27-1.85-1.24.52-.48,1.09-.87,1.84-.89.75.7.82,1.41.01,2.13Z"/>
      <path class="cls-4" d="M22.17,96.54c.19.02.38.04.57.05.61.64,1.28.54,1.98.15,1.48-.83,2.91-1.73,3.95-3.12-.16.83.59,1.06,1.03,1.42,1.28,1.03,1.94,2.42,2.45,3.91-1.85.75-3.65-.13-5.48-.18-1.15-.04-2.28-.51-3.42-.73-.88-.17-1.31-.58-1.09-1.5Z"/>
      <path class="cls-9" d="M28.67,93.62c-1.04,1.39-2.47,2.29-3.95,3.12-.7.39-1.36.49-1.98-.15-.8-1.21.51-2.04.55-3.09,0-.08.02-.14.06-.21.09-.1.18-.19.28-.29,0,0,0-.01,0,0,.48.02.79-.07.9-.67.4-2.14.63-2.25,2.39-1.41.74.8,2.52.92,1.75,2.7Z"/>
      <path class="cls-8" d="M32.8,90.34c2.73.56,4.84,3.77,4.14,6.28-.1.35-.25.63-.56.82-1.42-.34-1.43-1.8-1.83-2.72-.62-1.43-1.17-2.92-1.75-4.38Z"/>
      <path class="cls-11" d="M37.5,100.7c.8-.7,1.6-1.39,2.4-2.09.68,1.83.49,2.25-1.51,3.33-.41-.12-.82-.23-1.23-.35.87-.01.33-.56.34-.9Z"/>
      <path class="cls-14" d="M26.92,90.93c-1.76-.85-1.99-.73-2.39,1.41-.11.6-.42.69-.9.67.12-.46.3-.92.34-1.39.06-.87-.03-1.84,1.07-2.11,1.15-.29,1.43.72,1.88,1.43Z"/>
      <path class="cls-4" d="M32.51,100.07c-.5-.25-.37-.71-.35-1.13.52.25.32.72.35,1.13Z"/>
      <path class="cls-14" d="M23.62,93.01c-.09.1-.18.19-.28.29.09-.1.18-.19.28-.29Z"/>
      <path class="cls-11" d="M30.43,89.2c.11.09.23.17.34.26-.11-.09-.23-.17-.34-.26Z"/>
      <path class="cls-11" d="M92.3,66.77c.07-.95-.31-1.71-.95-2.38,1.21-.31,2.37-.68,3.48-1.34,1.06-.63,3.06.77,3.54,2.36.04-.56.07-.99.1-1.42.33,1.56.35,3.13.12,4.71-.75.41-1.32,1.15-2.23,1.28,0-3.43-.38-3.77-3.63-3.23-.14.02-.29.01-.44.02Z"/>
      <path class="cls-11" d="M19.19,104.45c0,1.31-.01,2.62-.02,3.92-.92.56-1.95.6-2.97.56-.9-.04-1.28.29-1.12,1.19-.35-.62-.79-1-1.61-.91-.87.1-1.77.08-2.64,0-1.08-.09-1.82-.66-1.96-1.81-.14-1.23.53-1.99,1.63-2.25.84-.2,1.7-.47,2.6-.36.42.05.78-.06.73-.64-.09-1.04-1.4-2.73-2.48-2.77-1.54-.05-2.31-.77-2.66-2.16-.07-.27-.27-.5-.41-.76.18-.16.37-.32.55-.48,2-.05,3.65.78,5.09,2.1.29,1.36,1.5.54,2.2.92-.34,2.29.12,2.8,2.3,2.42,1.04-.18.31.85.79,1.01Z"/>
      <path class="cls-5" d="M8.81,97.99c-.18.16-.37.32-.55.48-1.36-.82-2.65-1.86-4.42-1.3-.57-.94-.65-1.97-.54-3.04.95.39,1.74,1.47,2.97.69.38.01.71.19.79.55.23,1.12,1.04,1.84,1.76,2.62Z"/>
      <path class="cls-14" d="M15.07,110.12c-.16-.9.22-1.23,1.12-1.19,1.02.04,2.05,0,2.97-.56q-.43,2.22-3.86,2.3c.02-.23,0-.43-.23-.55Z"/>
      <path class="cls-11" d="M4.83,105.07c-.03-.29-.07-.58-.1-.87,1.01-.78,3.3-.58,4.15.35.18.2.33.4.13.63-.23.27-.44.04-.62-.1-.59-.47-1.18-1.12-1.66.11-.6-.63-1.25-.25-1.9-.11Z"/>
      <path class="cls-14" d="M4.83,105.07c.64-.14,1.3-.52,1.9.11.06.59.09,1.17-.24,1.7-.4.18-.67.59-1.16.59-.16-.8-.33-1.6-.49-2.4Z"/>
      <path class="cls-6" d="M7.63,111.36c-1.17.57-1.75.03-1.94-1.08-.1-.56-.02-1.15-.02-1.73.47.23.93.47,1.4.7-.05.43-.01.9-.16,1.29-.3.81.27.74.72.82Z"/>
      <path class="cls-4" d="M7.07,109.25c-.47-.23-.93-.47-1.4-.7-.03-.07-.07-.13-.13-.18-.07-.1-.13-.2-.2-.3,0-.2-.01-.4-.02-.61.49,0,.77-.41,1.16-.59.87.63.53,1.55.58,2.37Z"/>
      <path class="cls-11" d="M70.06,74.71c.01,2.5-1.74,4.16-2.98,6.03-1.93,2.92-4.67,4.98-7.65,6.75-.27.16-.59.23-1.31.5,2.88,0,5.31-.01,7.74,0,.52,0,1.09-.18,1.55.25-1.69.02-3.38.04-5.06.06-.25-.04-.51-.08-.58.27,0,0,0-.01,0-.01-1.28-.2-2.6.19-3.86-.29-.48-.06-1.1.05-1.4-.21-1.32-1.16-1.2.17-1.19.73.02,1.24-.59,1.87-1.69,2.19-.53-.25-.52-.8-.66-1.25-.15-.46-.1-1.02-.74-1.12-.64-.09-1.15.18-1.56.65-1.28,1.46-2.78,2.85-1.62,5.08.06.11,0,.29,0,.44-.72-.37-1.32-1.07-2.26-.8-.03-.52-.05-1.05-.08-1.57.45-.69.45-1.38,0-2.07,0-.2,0-.39,0-.59,0-.39,0-.78.01-1.17,1.96.12,3.54-.67,4.81-2.09.38-.42.68-.73,1.21-.36.83.58,1.84.19,2.71.57.3.13.66.01.66-.35.03-1.73.26-3.47-.26-5.17-.27-1.76.64-3.53,0-5.29.22-1.42,1.18-1.53,2.4-1.5,2.85.08,5.71.02,8.57.02,1.1-.08,2.18.07,3.26.29Z"/>
      <path class="cls-5" d="M46.78,94c.94-.26,1.55.43,2.26.8,0,0,0,0,0,0l.31.31h0c.79.99,1.52,2.05,2.39,2.96.79.82,1.73,1.51,3,.9,1.02,1.09,1.42,2.58,2.34,3.74-.55.08-.81.91-1.52.56.71-.27.56-.58.1-1-1.38-1.25-3.23-1.13-4.68.31-.28.28-.37,1.07-1.06.48-1.02-1.86-1.19-1.93-3.23-1.46.03-.46.05-.92.08-1.37.94-.27,1.5-.84,1.44-1.86-.04-.74-.34-1.3-1.22-1.24l-.11-.03s-.11,0-.11,0c0-1.04,0-2.07.01-3.11Z"/>
      <path class="cls-7" d="M46.71,88.6c0,.39,0,.78-.01,1.17-1.87,1.1-3.73,1.29-5.64.06-.21-.14-.58-.05-.87-.07-.37-1.45.24-1.99,1.66-1.77,1.48.23,1.96-.39,1.94-1.88-.03-1.53-.41-3.11.25-4.61,1.21,1.19,1.68,2.64,1.48,4.31-.11.91.18,1.51,1.18,1.59,0,.4,0,.79.01,1.19Z"/>
      <path class="cls-13" d="M46.7,90.35c.46.69.45,1.38,0,2.07,0-.69,0-1.38,0-2.07Z"/>
      <path class="cls-11" d="M40.08,97.7c-.15-.22-.08-.4.09-.57-.03.19-.06.38-.09.57Z"/>
      <path class="cls-13" d="M10.92,50.53c.94.29,1.85.7,2.86.71-.69,1.77-1.31,3.57-1.38,5.5,0,0,.01-.02.01-.02-.21-.11-.17.1-.23.18.01,1.16-.98,2.13-.67,3.35-.1,0-.2,0-.3.01-.25.13-.29.36-.27.61-.21.83-.48,1.66-.6,2.5-.14.98-.65,1.2-1.5.97-.91-.39-1.98-.25-2.8-1-.29-.27-.93-.59-1.36-.29-.52.38-.2.96-.07,1.48.09.32.07.68.1,1.02-1.23.28-1.75.95-1.15,2.19.4.83.45,1.66.07,2.5l-.99.08c-.42-.37-.92-.4-1.44-.39-.01-1.12.03-2.24-.04-3.35-.12-1.83.67-3.69-.25-5.53-.21-.42.14-1.12.24-1.69,2.01-.27,3.56-1.48,5.08-2.63,1.58-1.19,2.84-2.78,4.11-4.32.46-.55.66-1.19.58-1.9Z"/>
      <path class="cls-8" d="M16.84,35.82c0-.21-.01-.42-.02-.63,1.14.14,2.18-.2,2.52-1.3.38-1.22,1.59-2.55.05-3.84-.29-.25-.17-.64-.22-.97,1.11.45,1.73-.34,2.41-.97.98-.53,1.65.12,2.37.61-.11.67-.63,1.09-.97,1.62-.53.84-.87,1.77-.38,2.63.47.84,1.41.39,2.17.38.13.82-.01,1.62-.25,2.41-.56-.27-.93-1-1.63-.87-2.01.36-4.02.78-6.06.93Z"/>
      <path class="cls-8" d="M15.05,32.84c-1.19-.37-2.37-.74-3.56-1.12.84-1.13,1.71-1.24,2.5.03.28.46,1.08.37,1.07,1.09Z"/>
      <path class="cls-6" d="M76,24.64c.02-.89.69-.61,1.18-.65-.12.17-.24.33-.36.5-.27.05-.55.1-.82.15Z"/>
      <path class="cls-11" d="M86.03,93.57c-.64-.41-1.17-1.04-1.97-1.15-1.48-.2-2.37-1.11-2.99-2.37.5-.09.98-.42,1.42.24.41.61,1.05.46,1.56.08.57-.42,1.22-.64,1.87-.82,1.22-.34,2.07-.88,1.88-2.33-.15-1.18-1.17-2.07-2.53-2.18-1.78-.14-2.43-1.96-3.87-2.6-.11-.05-.03-.47-.1-.7-.37-1.26.51-2.06,1.07-2.98l.04.03c.78.05.68-.44.58-.94,0,0,0,.02,0,.02,1.02.03,2.04.06,3.06.09.65.26,1.08-.72,1.76-.3-.07.74-.79,1.58.32,2.14-.57.41-.97.96-1.26,1.59-.43.92.02,3.21.78,3.5,1.11.42,2.09.24,2.72-.97.38-.72,1.03-.73,1.79-.41,1.2.51,2.09,1.38,2.57,2.51.32.76.71,1.85-.64,2.29-.04-.92-.38-1.67-1.04-2.34-.73-.74-1.56-.8-2.42-.46-.48.19-1.02.58-.96,1.18.09.97.98,1.09,1.71,1.33.1.19.2.38.3.58,0,.2,0,.4,0,.6-.04.96-.97,1.48-1.18,2.35-.29.11-.59.22-.88.32-.97-.17-1.8-.12-1.85,1.17-.33-.12-.03-.84-.71-.68-.69.16-.91.62-.99,1.23Z"/>
      <path class="cls-3" d="M86.03,93.57c.07-.61.3-1.07.99-1.23.67-.16.37.56.71.68.45.65,1.02,1.09,1.83,1.18h0c.32.63.91.59,1.49.59l.1.03h.1c.37.34.82.26,1.26.19.2.02.41.04.61.06-.09.94.56.89,1.18.88.13.24.35.29.6.29.39.4.93.45,1.42.6-.02.2-.04.4-.06.6-.2.18-.2.41-.14.65-.09,1.55-.28,3.09-.67,4.6-.22-.26-.43-.52-.65-.77-.38-.43-.78-.74-1.38-.38-.59.35-.92.74-.75,1.53.43,1.97.28,2.18-1.56,2.95-1.99-.87-1.96-.87-1.6-2.99.11-.67.03-1.37.07-2.05.04-.76-.21-1.57.56-2.17.75-.59,1.12.5,1.82.46-.61-1.13-2.23-1.93-3.98-2.07-1.49-.76-1.2-2.47-1.94-3.63Z"/>
      <path class="cls-11" d="M87.97,97.2c1.75.13,3.37.94,3.98,2.07-.7.04-1.07-1.05-1.82-.46-.77.6-.52,1.41-.56,2.17-.03.68.05,1.39-.07,2.05-.36,2.13-.39,2.12,1.6,2.99-.28.3-.1.63-.09.96.02,1.51-.98,2.28-2.88,2.26-1.75.03-3.46-.51-5.22-.31-.55.06-.88-1.03-1.62-.02.36-1.64-.19-3.01,0-4.4,1.07.07,2.15-.16,3.21.22.48.17.88.02.96-.56.32.46.58.57,1.17.21,1.91-1.19,2.71-3.53,1.86-5.8-.17-.46-.34-.92-.51-1.37Z"/>
      <path class="cls-3" d="M82.35,78.76c-.55.92-1.43,1.73-1.07,2.98.07.23-.01.65.1.7,1.45.64,2.1,2.46,3.87,2.6,1.37.11,2.38,1,2.53,2.18.19,1.45-.66,1.99-1.88,2.33-.65.18-1.3.4-1.87.82-.5.38-1.15.52-1.56-.08-.44-.66-.92-.33-1.42-.24-.03-3.91-.06-7.82-.08-11.73,0-.25.03-.49.27-.64,0,0,.05-.02.05-.02.02.68.15,1.25,1.04,1.1Z"/>
      <path class="cls-3" d="M85.46,104.17c-.08.59-.48.74-.96.56-1.06-.38-2.14-.15-3.21-.22-.12,0-.24-.02-.35-.03,0-2.87,0-5.73.03-8.6,0-.39-.29-.94.35-1.17.86,2.61,1.65,5.25,3.43,7.45.21.68.68,1.26.71,2Z"/>
      <path class="cls-8" d="M84.74,102.17c-1.77-2.19-2.57-4.84-3.43-7.45,3.48.9,4.92,4.03,3.43,7.45Z"/>
      <path class="cls-3" d="M24.53,35.76c.24-.79.37-1.58.25-2.41.08-.44-.14-1.03.58-1.15.41.02.84.15,1.21-.15.12-.03.23-.07.35-.1.62.09,1.24.2,1.86.27.34.04.73,0,.89-.37.21-.48-.27-.57-.53-.7-.43-.22-.49-.57-.47-.97.52-1,.25-1.69-.82-2.06-.62-.22-1.04-.58-1.34-1.23-.53-1.14-1.17-1.16-2.3-.25-.55.63-.2,1.38-.26,2.08h0c-.72-.48-1.39-1.13-2.37-.6.02-.4.04-.8.07-1.2.02-.04.07-.1.06-.11-.05-.06-.12-.11-.19-.16-.58-.44-.84-1.03-.88-1.74.08-3.26.3-3.54,2.73-3.6.67.42,1.34.84,2.01,1.26.49.61.92,1.27,1.48,1.8.99.93,2.06,1.76,3.58,1.37.68.31,1.36.63,2.04.94.04.24,0,.56.14.71,1,1.02,1.58,2.2,1.72,3.64.05.57.56.9,1.18.91.54.01,1.08.02,1.63.03.14.04.27.07.41.11.86.36,1.76.09,2.64.16.29,0,.58,0,.87,0-.1.62-.23,1.23-.31,1.85-.28,2.26-.87,4.34-2.94,5.71-.52.35-1.14.79-1.18,1.58h-11.24s0,0,0,0c-.14-.08-.28-.17-.42-.25-.35-.53-.12-1.12-.19-1.68-.14-1.23.28-2.49-.27-3.69Z"/>
      <path class="cls-11" d="M23.39,21.3c-2.44.06-2.65.34-2.73,3.6-.59-.97-.91-2.04-1.14-3.13-.39-1.82-1.6-2.53-3.35-2.54.95-.75,1.64-1.64,1.57-2.94,1.06-.86,1.89-1.97,3.38-2.35.92-.23,1.71.16,2.55,0-.56,1.14-.63,1.9,1.05,1.48.59-.15,1.14.2,1.68.43.63.27,1.22.13,1.48-.51.29-.72-.39-.72-.83-.88-1.33-.5-.47-1.73-.85-2.55.47-.08.99.03,1.4-.33.45-.4.88-.33,1.3.05,1.14,1.03,2.44,1.34,3.91.81,1.28,1.48,2.56,2.95,3.84,4.43-.72,0-1.29-.25-1.76-.84-1.14-1.43-2.41-1.75-4.01-.91-1.11.58-2.15,1.31-3.21,1.98-.44.28-.13.45.13.61-.13.2-.22.46-.41.59-.73.51-1.39.64-1.97-.28-.66-1.04-1.53-1.91-2.88-1.24-.96.47-.84,1.7.2,3.21.28.4.61.77.64,1.29Z"/>
      <path class="cls-8" d="M21.54,26.64c.06.05.13.1.19.16,0,.01-.04.07-.06.11-.04-.09-.08-.18-.12-.27Z"/>
      <path class="cls-3" d="M27.8,17.74c-.26-.16-.57-.33-.13-.61,1.06-.68,2.1-1.4,3.21-1.98,1.59-.83,2.86-.52,4.01.91.47.59,1.04.84,1.76.84.89,1.09,1.77,2.17,2.66,3.26.11.85-.18,1.39-1.08,1.59-.56.13-1.09.42-1.63.64-2.15.88-2.15.85-3.69-.85-.74-.82-1.47-1.75-2.84-1.09-.65.32-.62-.41-.86-.69.25-2.01.01-2.35-1.41-2.02Z"/>
      <path class="cls-3" d="M44.06,10.11c.19.11.37.22.56.32,0,.41.12.7.49.96,1.24.88,1.36,1.56.47,2.88-.54.81-1.15,1.57-.96,2.64-.1-.02-.2-.04-.3-.07-.29-.34-.58-.32-.87-.01-.2.12-.4.24-.6.35-.43-1.28-1-2.45-2.35-3.02-.03-.32-.29-.47-.47-.68q-1.3-1.58-2.85-.38c-.59.16-.83-.53-1.35-.55-.02-.13-.05-.27-.07-.4.14-1.47.9-2.64,1.77-3.77,1.13-1.07,1.11-2.49,1.21-3.88.48.91,1.29,1.5,2.09,2.09-.13,2.87.3,3.34,3.23,3.51Z"/>
      <path class="cls-8" d="M29.2,19.75c.25.29.21,1.01.86.69,1.36-.66,2.1.27,2.84,1.09,1.54,1.7,1.54,1.73,3.69.85.54-.22,1.07-.51,1.63-.64.91-.2,1.19-.74,1.08-1.59.95.35.72,1.24.85,1.94.12.61.06,1.25.07,1.88,0,0-.12.04-.12.04-.32-.04-.53.15-.75.33-1.12-.37-1.17.71-1.64,1.21-.57-.29-1.12-.63-1.71-.85-1.43-.54-2.95-.83-3.72-2.48-.34-.73-1.29-1.07-2.18-.71-.89.36-.83,1.2-.9,1.99-.09,1.06.82,1.5,1.25,2.23-1.52.39-2.59-.45-3.58-1.37-.56-.53-.99-1.2-1.48-1.8.94-1.37,2.6-1.79,3.8-2.81Z"/>
      <path class="cls-7" d="M46.7,23.98c0,.4,0,.79.01,1.19,0,.39-.01.78-.01,1.17-1.67.74-3.3,1.94-5.1.16-.26-.26-.93-.12-1.41-.17,0-.21-.01-.42-.02-.63-.02-.56-.04-1.13-.06-1.69,0,0,.12-.04.12-.04,2.16,0,3.05-.89,3.03-3.04,0-.5,1.36-1.99,1.68-1.78.59.39.81.97.69,1.75-.18,1.17-.56,2.5,1.07,3.08Z"/>
      <path class="cls-2" d="M35.83,12.56c.52.02.76.71,1.35.55,1.01.66,2.19.78,3.32,1.06,1.35.57,1.92,1.73,2.35,3.02-.41.77-1.34,1.42-.55,2.45-.06.29-.22.96-.46.53-.93-1.64-2.58-2.61-3.59-4.16-.76-1.17-1.94-2.07-2.42-3.45Z"/>
      <path class="cls-6" d="M49.66,19.23c.68.39,1.39.75,1.68,1.56.08.23.16.49-.04.69-.22.22-.48.12-.65-.06-1.12-1.18-1.68-.33-2.19.61-.27.51-.67.84-1.18,1.05-.99-.2-.52-.99-.56-1.52-.05-.61.04-1.24.07-1.86.92-.36,1.86-.6,2.87-.46Z"/>
      <path class="cls-11" d="M49.66,19.23c-1-.13-1.94.1-2.87.46-.05-1.26-.46-2.56.5-3.68.19-.2.37-.4.56-.6.47.84,1.33.75,2.09.88.04.99-.47,1.93-.29,2.93Z"/>
      <path class="cls-15" d="M42.3,19.64c-.79-1.03.14-1.68.55-2.45.2-.12.4-.24.6-.35.29,0,.58,0,.87.01.1.02.2.04.3.07.03.07.05.15.08.22-1.54-.11-1.29.96-1.23,1.89-.31.37-.7.57-1.18.62Z"/>
      <path class="cls-6" d="M43.48,19.02c-.06-.93-.31-1.99,1.23-1.89.09.01.19.03.28.05-.44.66-.73,1.46-1.51,1.84Z"/>
      <path class="cls-9" d="M67.42,88.53c.09.02.17.05.26.08.49,1.16.14,2.58,1.16,3.57-.11,1.19.8,1.95,1.24,2.9-.53,1.44-1.62,1.73-2.98,1.46-.69-.06-1.21-.63-1.95-.56-1.03.09-1.53-.55-1.71-1.46-.12-.62-.12-1.26-.17-1.89-.1-1.14-.4-2.14-1.79-2.28.1-.6.2-1.19.3-1.79,0,0,0,.01,0,.01.18,0,.37-.01.55-.02,1.3.01,2.62.13,3.9-.03.43-.05.86.93,1.21,0Z"/>
      <path class="cls-8" d="M67.1,96.54c1.37.26,2.46-.02,2.98-1.46.84.08,1.29,1.21,2.29.87.09.44-.24.77-.33,1.16-.08,0-.16.04-.22.09-.74.48-.84,1.25-.91,2.03-.74.34-1.53.51-2.34.57-.12-.95.11-2.04-1.03-2.58-.29-.14-.43-.36-.45-.68Z"/>
      <path class="cls-9" d="M71.83,97.2c.06-.06.14-.09.22-.09.56.06.98-.04.96-.74-.02-.68-.03-1.36-.05-2.04-.03-.05-.03-.1.02-.14.42-.02.84-.04,1.25-.05,0,0,.02,0,.02,0-.08.48.11.78.59.9,0,0,0-.01,0-.01.01.66-.29,1.36.45,2.28-.17-1.35.62-1.22,1.24-1.34,0,0,.01,0,.01,0,.04,1.11-.44,1.76-1.61,1.75-.62,0-1.08.43-1.65.54-.83.16-1.62.17-1.48-1.06Z"/>
      <path class="cls-8" d="M68.84,92.17c-1.02-.98-.68-2.41-1.16-3.57,1.27-.47,2.56-.61,3.88-.3.08.2.15.39.23.59-2.44.25-2.83.68-2.94,3.28Z"/>
      <path class="cls-14" d="M76.54,95.97c-.62.12-1.42-.01-1.24,1.34-.75-.92-.44-1.62-.45-2.28.6.25,1.21.49,1.7.94Z"/>
      <path class="cls-14" d="M72.96,94.33c.02.68.03,1.36.05,2.04.02.69-.4.8-.96.74.09-.39.42-.72.33-1.16.13-.56-.21-1.3.58-1.62Z"/>
      <path class="cls-14" d="M74.23,94.14c-.42.02-.84.04-1.25.05.4-.45.81-.72,1.25-.05Z"/>
      <path class="cls-14" d="M74.84,95.03c-.48-.11-.67-.42-.59-.9.53.08.58.47.59.9Z"/>
      <path class="cls-13" d="M18.91,92.39c.26,1.93.1,3.88.1,5.81,0,.55-.16.82-.77.69-.51-.11-.94.16-1.38.37-.13-.86-.2-1.74-1.15-2.17,0,0-.02.01-.02.01-.3-.89-1.3-.81-1.87-1.33-.37-1.83-.66-1.96-2.12-.97-.23.15-.54.19-.81.28-.59-.33-.93-.89-1.26-1.45,1.16-.81,1.16-2.38,2.17-3.28,1.23-1.14.76-2.85,1.42-4.18,1.39.46,1.81,1.52,1.8,2.86,0,.58.03,1.14.27,1.72.66,1.56,2.15,1.06,3.28,1.43.11.07.22.13.32.2Z"/>
      <path class="cls-8" d="M19.78,62.91c-.2.78-.4,1.56-.6,2.35-1.3,1.23-2.37,2.64-3.23,4.2-.36.66-.52,1.41.17,2,.66.57,1.27.19,1.88-.15.17-.1.34-.19.51-.28.13.15.26.31.4.46,0,.19,0,.38,0,.56-1.29.27-2.19,1.19-3.24,1.88-.95.63-1.25,1.5-1.23,2.62.01,1,.56,1.75.92,2.59-.52.13-.93.02-1.23-.47-.34-.55-.87-.88-1.45-1.13-.09-.16-.19-.32-.28-.49.94-1.05,1.79-2.12.9-3.61.02-.78-.08-1.59.11-2.33.23-.88,1.02-1.71,1.01-2.55-.03-1.81.87-2.62,2.32-3.45,2.69-1.55,2.91-3.68.92-6-.65-.76-1.42-1.51-1.38-2.65,1.45.59,2.89,1.27,4.48.47-.32,1.99-.64,3.99-.96,5.98Z"/>
      <path class="cls-13" d="M15.36,79.14c-.36-.84-.9-1.58-.92-2.59-.02-1.12.28-2,1.23-2.62,1.05-.69,1.95-1.61,3.24-1.88.17,3.94.08,7.87,0,11.81-.09-.02-.18-.04-.26-.06.02-.6-.29-.85-.88-.87-.46-.02-.98-.03-1.24-.55.21-.27.41-.54.62-.81.42-.51.83-1.04.49-1.72-.3-.6-.92-.66-1.54-.66-.24,0-.49-.03-.73-.05Z"/>
      <path class="cls-14" d="M18.64,83.8c.09.02.17.04.26.06,0,2.84,0,5.69,0,8.53-.11-.07-.22-.13-.32-.2.02-2.8.04-5.59.06-8.39Z"/>
      <path class="cls-14" d="M16.1,101.01c-.7-.39-1.91.43-2.2-.92.78,0,1.55-.01,2.33-.02,0,0,.03.03.03.03-.05.3-.1.61-.16.91Z"/>
      <path class="cls-14" d="M15.71,97.09c.94.43,1.02,1.31,1.15,2.17-.2.28-.4.56-.6.84,0,0-.03-.03-.03-.03.44-1.1-.77-1.92-.51-2.98Z"/>
      <path class="cls-13" d="M18.91,71.49c-.13-.15-.26-.31-.4-.46.09-.09.22-.27.25-.25.34.17.16.46.14.72Z"/>
      <path class="cls-3" d="M94.05,88.3c1.35-.44.96-1.53.64-2.29-.48-1.13-1.37-2-2.57-2.51-.75-.32-1.41-.31-1.79.41-.63,1.21-1.61,1.39-2.72.97-.76-.29-1.21-2.58-.78-3.5.29-.62.7-1.17,1.26-1.59,1.27-.84,2.62-1.14,4.11-.67,1.96.56,1.93.55,1.55,2.53-.1.53-.29,1.2.33,1.62.58.39,1.18.36,1.81.08.92-.4,1.54-1.15,2.2-1.85,0,.19,0,.39,0,.58-.26.18-.27.38-.02.58-.02.21-.05.42-.07.63-.04.21-.08.41-.12.62-.12,2.75-.44,5.48-.93,8.19-.31-.42-.72-.42-1.17-.27-.35.03-.7.06-1.05.1-1.16-1.04-.92-2.34-.68-3.64Z"/>
      <path class="cls-5" d="M96.37,69.98c.91-.14,1.47-.87,2.23-1.28.31,3.21.17,6.4-.22,9.59-.56.49-.87.12-1.12-.35-.56-1.01-1.25-.9-2.01-.26-.33-.01-.68-.09-.93.24-.3.02-.6.03-.9.05-.45-.51-.06-1.29-.58-1.77,0-.2,0-.4,0-.61.26-.17.28-.39.14-.64v-.08c1.13-.62,2.85-.41,3.08-2.25.85-.79.59-1.72.31-2.64Z"/>
      <path class="cls-8" d="M95.24,77.69c.76-.65,1.45-.75,2.01.26.26.46.56.84,1.12.35-.09,1.07-.18,2.15-.27,3.22-.66.7-1.28,1.44-2.2,1.85-.63.28-1.24.31-1.81-.08-.61-.42-.43-1.09-.33-1.62.38-1.98.41-1.97-1.55-2.53.4-.38.81-.77,1.21-1.15.3-.02.6-.03.9-.05.35.08.73.29.93-.24Z"/>
      <path class="cls-4" d="M95.78,91.85c.45-.15.86-.15,1.17.27-.04,1.6-.29,3.17-.63,4.73-.49-.15-1.03-.2-1.42-.6,1.03-1.32,1.37-2.78.89-4.4Z"/>
      <path class="cls-4" d="M94.2,110.34c-.26.59-.26,1.56-1.36.93.28-.37.04-.74-.02-1.11-.21-1.3.27-2.05,1.64-2.11-.09.76-.18,1.52-.27,2.28Z"/>
      <path class="cls-4" d="M96.11,98.11c-.06-.24-.05-.47.14-.65.07.24.02.46-.14.65Z"/>
      <path class="cls-8" d="M97.88,83.93c.04-.21.08-.41.12-.62-.04.21-.08.41-.12.62Z"/>
      <path class="cls-8" d="M98.06,82.68c-.25-.2-.23-.4.02-.58,0,.19-.02.39-.02.58Z"/>
      <path class="cls-15" d="M24.53,35.76c.56,1.2.13,2.46.27,3.69.06.56-.17,1.15.19,1.68.14.08.28.17.42.25,0,0,0,0,0,0,.02,1.24.09,2.48.06,3.72-.02.91-.4.21-.63.1-.4-.85-.58-1.84-1.5-2.36-.03-.24-.05-.48-.11-.72-.7-3.1-1.84-2.94-4.54-2.29-2.22.54-2.87.17-2.63-2.25.26-.59.52-1.18.78-1.77,2.05-.15,4.05-.57,6.06-.93.69-.13,1.07.6,1.63.87Z"/>
      <path class="cls-13" d="M22.75,61.18c0-.98,0-1.97,0-2.95.11-2.26.22-4.51.33-6.77.08-.01.16-.03.24-.05.15.53.58.75,1.05.79,1.09.1,1.41.77,1.32,1.71-.09.99.23,1.48,1.29,1.35.43-.05.76.07.72.64-.07,1.11-2.42,3.58-3.47,3.43-.94-.13-.95.3-.91.95.02.39,0,.78,0,1.17-.34.21-.46-.06-.59-.28Z"/>
      <path class="cls-15" d="M20.74,56.93c-1.59.8-3.03.12-4.48-.47-.54-2.53,1.33-3.53,2.98-4.68.82-.06,1.46-.78,2.34-.67.03.3.07.61.1.91-.31,1.63-.62,3.27-.93,4.9Z"/>
      <path class="cls-10" d="M23.09,51.46c-.11,2.26-.22,4.51-.33,6.77,0-2.77,0-5.53-.03-8.3,0-.47.17-.98-.2-1.4,0,0-.08-.07-.08-.07-.02-.74.1-1.45.53-2.32.05.65.09,1.07.12,1.49,0,.16,0,.32-.01.48,0,1.12,0,2.23,0,3.35Z"/>
      <path class="cls-6" d="M22.77,65.25c.85.75,1.68,1.52,2.04,2.65-.69,0-1.38.02-2.07.02,0-.89.02-1.78.03-2.67Z"/>
      <path class="cls-11" d="M22.74,67.92c.69,0,1.38-.02,2.07-.02.17,1.69-1.03,1.48-2.08,1.5,0-.49,0-.99,0-1.48Z"/>
      <path class="cls-6" d="M22.75,61.18c.13.23.25.49.59.28,1.31.09,1.44.19,1.19.92-.81-.23-1.32.21-1.77.8,0-.67,0-1.33,0-2Z"/>
      <path class="cls-10" d="M21.67,52.03c-.03-.3-.07-.61-.1-.91.32-.49.36-1,.11-1.53l.59-1.09s.09,0,.09,0l.09-.03s.08.07.08.07c-.48,1.12.26,2.54-.86,3.5Z"/>
      <path class="cls-13" d="M2.06,84.16c-.42-1.31-.27-2.66-.42-4.19.5.29.81.46,1.12.64-.67-1.63-1.85-3.05-1.55-4.95.65-.02,1.19-.35,1.72-.69.95-.27,1.59.18,2.1.92.57.82,1.28,1.33,2.34,1.14.56.43,1.01,1.15,1.88.67.56-.1.39.84.86.66.41-.15.17-.66.22-1l.14-.03s.15,0,.15,0c.6.7-.04,1.7.58,2.4.93,1.42-.27,2.25-.9,3.23-.66-.15-1.31-.37-2.01-.26-1.16-.12-2.54.12-3.42-.44-1.59-1.02-1.75.33-2.35,1.02-.21.24-.31.58-.46.88Z"/>
      <path class="cls-8" d="M2.06,84.16c.15-.3.25-.64.46-.88.6-.69.76-2.03,2.35-1.02.88.56,2.26.32,3.42.44-.53.41-1.17.82-1.17,1.55,0,1.54-.85,2.47-2.08,3.19-.15-.41-.4-.82-.41-1.24-.02-.77-.03-1.53-.95-1.71-.86-.17-1.13.6-1.53,1.13-.03-.49-.06-.98-.09-1.47Z"/>
      <path class="cls-6" d="M2.93,74.97c-.53.34-1.06.66-1.72.69,0-1.91,0-3.81-.01-5.72.52,0,1.02.02,1.44.39-.06.87-1.54,1.24-.87,2.32.46.75.03,1.93,1.16,2.33Z"/>
      <path class="cls-6" d="M5.34,108.08c.07.1.13.2.2.3-.18-.03-.24-.13-.2-.3Z"/>
      <path class="cls-4" d="M46.69,101.6c2.04-.47,2.21-.4,3.23,1.46-.87.41-1.64.53-2.18-.52-.2-.38-.55-.67-1.05-.65-.02-.1-.02-.19,0-.29Z"/>
      <path class="cls-4" d="M46.99,97.13c.89-.06,1.18.5,1.22,1.24.06,1.01-.5,1.59-1.44,1.86-.16-1.05-.1-2.08.21-3.09Z"/>
      <path class="cls-9" d="M5.03,87.44c1.22-.72,2.07-1.65,2.08-3.19,0-.74.64-1.14,1.17-1.55.69-.11,1.35.12,2.01.26-.57.64-.8,1.31-.6,2.21.16.73-.03,1.52-.06,2.29-2.44,1.58-2.66,4.4-.48,6.19.14.56-.38,1.45.45,1.64,2.07.49,3.87,1.86,6.09,1.8,0,0,.02-.01.02-.01-.26,1.07.95,1.88.52,2.98-.78,0-1.55.01-2.33.02-1.44-1.31-3.08-2.14-5.09-2.1-.72-.78-1.53-1.5-1.76-2.62-.07-.36-.4-.54-.79-.55.02-.47-.25-.86-.54-1.15-1.61-1.68-1.6-3.62-1-5.67.1-.19.2-.37.3-.56Z"/>
      <path class="cls-13" d="M67.1,96.54c.01.32.16.54.45.68,1.14.54.92,1.63,1.03,2.58-1.38.75-2.82,1.34-4.4,1.51-.31-.21-.61-.43-.92-.64-.06-.5-.34-.84-.67-1.22-1.13-1.27-2.54-.25-3.78-.53-.44-.28-.85-.59-.88-1.18,1.14-.63.86-2.13,1.79-2.89.81-.25,1.09-.91,1.24-1.65.19-.95.35-1.9.52-2.84,1.39.14,1.68,1.14,1.79,2.28.06.63.05,1.27.17,1.89.18.9.68,1.55,1.71,1.46.74-.06,1.27.5,1.95.56Z"/>
      <path class="cls-11" d="M23.65,13.97c.1-.1.2-.21.3-.31-.1.1-.2.21-.3.31Z"/>
      <path class="cls-1" d="M41.03.73c-.18.08-.36.16-.54.23-.13-.03-.36-.15-.3-.17.26-.08.56-.05.84-.07Z"/>
      <path class="cls-9" d="M57.93,97.73c.03.59.44.9.88,1.18.64.7,1.61.55,2.37.92.64.86-.16,1.53-.3,2.29-1.2.7-2.58.12-3.82.58-.92-1.16-1.31-2.64-2.34-3.74.01-.43-.24-.73-.51-1.02-1.42-1.5-1.91-3.23-1.35-5.24.28-.56.72-1.05.75-1.72,1.1-.32,1.7-.95,1.69-2.19,0-.56-.13-1.89,1.19-.73.3.26.92.15,1.4.21.28,1.19.18,2.38.02,3.57-.52.21-.87.63-1.19,1.05-1.25,1.61-.62,4.1,1.19,4.84Z"/>
      <path class="cls-8" d="M61.18,99.83c-.77-.37-1.74-.21-2.37-.92,1.24.29,2.64-.73,3.78.53.34.38.61.72.67,1.22-.68-.3-1.26-.86-2.07-.84Z"/>
      <path class="cls-13" d="M75.08,54.93c-1.01.87-2.15.36-3.25.32-2.37,0-4.75.01-7.12.02-1.35,0-2.7,0-4.06,0-.45.2-.35.57-.3.93h.01c-.26-.2-.5-.44-.79-.61-.3-.17-.91.16-.92-.45,0-.47.4-.74.82-.95,3.64-1.89,6.57-4.6,8.84-7.95.99-1.47,1.56-3.22,2.33-4.84,1.23-.01,2.46-.1,3.65.3.04,2.33.07,4.67.13,7,.01.45-.29,1.14.23,1.33.68.24.73-.62,1.08-.96.44-.31.33-1.14,1.08-1.16.02,1.68.03,3.36.05,5.03-.63-.26-1.25-.52-1.89-.77-.32-.12-.76-.24-.76.29,0,.91-.4,2,.86,2.49Z"/>
      <path class="cls-7" d="M36.65,41.38c.04-.78.66-1.23,1.18-1.58,2.07-1.37,2.66-3.45,2.94-5.71.08-.62.2-1.23.31-1.85.73,0,1.46,0,2.19,0,.43,0,1.07-.09,1.16.38.27,1.48,1.36,1.04,2.25,1.09.25,1.11-.39,2.25.09,3.35-.02.36-.05.73-.07,1.09,0,.69,0,1.37,0,2.06-1.53.27-2.32,1.06-2.08,2.72.1.72.02,1.46.02,2.2,0,.45.03.91-.6.98-.52-.86-.32-1.76-.14-2.65.32-1.54-.07-2.04-1.67-2.06-.78-.01-1.56,0-2.33,0-1.08,0-2.16,0-3.24,0Z"/>
      <path class="cls-15" d="M54.68,57.91c1.22-.01,2.45.04,3.66-.06.97-.09,2.01-.28,2.02-1.63,0,0-.01-.01-.01-.01.08,0,.16-.03.23-.08,1.11-.25,2.24-.37,3.38-.22-1.42,1.23-2.4,2.67-2.2,4.66-1.18.65-2.7.19-3.77,1.01-1.88,1.46-3.85,1.42-5.94.68-.6-.77-.5-1.86-1.22-2.58-.36-1.13.75-1.02,1.23-1.45.89.03,1.79.12,2.62-.32Z"/>
      <path class="cls-2" d="M49.01,49.59c.27-.96-.46-1.54-.88-2.22-.59-.95-.95-1.97.12-2.71,1.07-.73,1.96-.11,2.55.86.61,1,1.36,1.12,2.35.62,1.49-.75,1.69-.61,1.84,1.14-.35.8-1.16,1.05-1.82,1.47-.71.08-1.09.63-1.52,1.09-1.65,1.79-1.64,1.8-2.66-.25Z"/>
      <path class="cls-3" d="M54.68,57.91c-.84.43-1.73.35-2.62.32-1.36-2.38-1.15-3.32,1.08-4.82.32-.22.62-.46.93-.69,1.23-.42,1.1-1.58,1.38-2.52.14-.08.27-.17.41-.25.1,1.09.11,2.2.3,3.28.33,1.85-.55,3.27-1.48,4.69Z"/>
      <path class="cls-1" d="M44.03,46.1c.63-.07.6-.53.6-.98,0-.73.09-1.48-.02-2.2-.24-1.66.55-2.45,2.08-2.72,0,.98,0,1.96.01,2.94,0,.1,0,.2,0,.31,0,.88,0,1.77,0,2.65-.43.31-.3.78-.31,1.19q-.07,2.66-2.66,2.64c.04-1.28-.15-2.58.29-3.83Z"/>
      <path class="cls-5" d="M55.46,50.19c-.28.94-.16,2.1-1.38,2.52-1.71-1.21-3.25-.77-4.7.48-1-.05-.27-1.2-.94-1.46-.32-.46-.42-.94-.2-1.47.26-.22.52-.44.78-.67,1.02,2.05,1.01,2.04,2.66.25.42-.46.81-1.01,1.52-1.09.49.3.99.6,1.48.91l.79.53Z"/>
      <path class="cls-3" d="M48.23,50.26c-.23.53-.12,1.01.2,1.47.14,1.59-.11,3.02-1.71,3.84.12-.99-.34-1.97-.04-2.98.13-.45-.05-.83-.65-.88-.76-.06-1.52-.19-2.27-.29,0-.49,0-.99,0-1.48q2.6.02,2.66-2.64c.01-.42-.12-.88.31-1.19.33,1.22.69,2.43.95,3.66.08.39.28.44.56.5Z"/>
      <path class="cls-13" d="M55.46,50.19c-.26-.18-.52-.35-.79-.53.69-.67.59-1.54.6-2.38v-1.86c.17-.02.33-.04.5-.07.32,1.19.58,2.4.39,3.7-.12.07-.55-.14-.29.3,0,.19,0,.39,0,.58-.14.08-.27.17-.41.25Z"/>
      <path class="cls-6" d="M46.7,38.15c.02-.36.05-.73.07-1.09.78-.08.95-.82,1.36-1.29.12.86.97,1.45.89,2.38-.77-.61-1.55-.15-2.32,0Z"/>
      <path class="cls-8" d="M55.27,47.28c0,.84.1,1.71-.6,2.38-.49-.3-.99-.6-1.48-.91.66-.42,1.46-.67,1.82-1.47.09,0,.17,0,.26,0Z"/>
      <path class="cls-3" d="M55.87,49.35c-.27-.44.16-.23.29-.3-.1.1-.19.2-.29.3Z"/>
      <path class="cls-3" d="M46.71,43.45c0-.1,0-.2,0-.31.04.07.08.14.11.22,0,.02-.07.06-.11.09Z"/>
      <path class="cls-13" d="M92.84,75.6c0,.2,0,.4,0,.61-.85,1.47-2.03,2.07-3.03,1.28-.88-.7-1.39-.29-2.03.17-.67-.41-1.11.56-1.76.3,0-.42.3-.54.65-.65,1.18-.38,1.41-1.29,1.36-2.36-.53-.22-.94.8-1.42.05.09-.47.37-.92.12-1.42-.33-.69-.56-1.41-1.47-.41-.58.64-1.41,1.17-2.24.18.92-1.62,2.45-2.19,4.14-1.5.43.18.72.21.99-.21.55-.85,1.44-1.33,2.24-1.87.7-.48,1.04-1,.97-1.81,0,0,.02-.02.02-.02.09-.1.18-.19.27-.29.1-.1.2-.21.3-.31.09-.1.19-.2.28-.3,0-.1.02-.19.07-.28.15,0,.29,0,.44-.02,3.25-.54,3.63-.2,3.63,3.23.28.92.54,1.85-.31,2.64-.83,1.02-2.46.95-3.08,2.25,0,0,0,.08,0,.08-.25.17-.19.41-.14.64Z"/>
      <path class="cls-11" d="M91.35,67.96c.07.82-.27,1.34-.97,1.81-.8.54-1.69,1.02-2.24,1.87-.27.43-.56.39-.99.21-1.69-.69-3.21-.12-4.14,1.5-.47-.79-1.08-1.43-2-1.69.02-.63-.28-1.47.87-1.41.79-.34,1.22-1.09,1.84-1.63,1.44-1.26,2.95-2.07,4.87-.98.28.16.65.18.97.27,0,0,.13.03.13.03h.13c.31.28.62.33.93,0h0c.2.01.39.01.59.02Z"/>
      <path class="cls-9" d="M89.83,67.95h-.13s-.13-.02-.13-.02c-.11-.81-.94-.75-1.39-1.15-.39-.35-.9-.69-.73-1.3.18-.63.77-.48,1.24-.49.29,0,.59,0,.88,0,1.55.05,2.01.74,1.45,2.14-.11.27-.17.55-.25.83,0,0,0,0,0,0-.31,0-.62,0-.93,0Z"/>
      <path class="cls-9" d="M85.76,64.36c.07.22.12.46.23.67.19.35,1.12.21.78.8-.24.42-.91.64-1.44.83-.36.13-.5-.26-.47-.56.07-.69-.44-1.7.9-1.74,0,0,0,0,0,0Z"/>
      <path class="cls-11" d="M91.64,67.66c-.09.1-.18.19-.27.29.09-.1.18-.19.27-.29Z"/>
      <path class="cls-11" d="M92.23,67.04c-.09.1-.19.2-.28.3.09-.1.19-.2.28-.3Z"/>
      <path class="cls-8" d="M86.01,51.42c.31,1.44-1.05,2.33-1.73,2.5-1.34.32-1.37-1.31-1.77-2.22-.3-.67-.55-1.5.4-1.88.49-.2.99.24,1.25.61.48.68,1.16.85,1.88,1.01,0,0-.02-.03-.02-.03Z"/>
      <path class="cls-13" d="M59.67,20.41c.12-.93-.24-2.3,1.56-1.7.03.54-.51.73-.7,1.14-.06.02-.09.06-.08.13,0,0-.03.04-.02.05-.23.15-.46.3-.69.45l-.07-.06Z"/>
      <path class="cls-6" d="M58.79,23.36c.38-.41.76-.82,1.14-1.22.36,1.67.23,1.83-1.46,1.81.11-.19.22-.39.32-.58Z"/>
      <path class="cls-6" d="M59.74,20.47c.23-.15.46-.3.69-.45.24.63.29,1.21-.42,1.59-.15-.37-.41-.71-.27-1.14Z"/>
      <path class="cls-6" d="M59.91,22.13c-.01-.09.01-.16.08-.22.12.04.23.09.35.13-.1.22-.28.09-.43.09Z"/>
      <path class="cls-6" d="M60.45,19.97c-.01-.07.02-.11.08-.13.05.06.1.11.16.17-.08-.01-.16-.03-.23-.04Z"/>
      <path class="cls-11" d="M46.7,26.34c0-.39,0-.78.01-1.17,1.89-.14,3.61-.63,4.81-2.24.27-.36.68-.57,1.02-.37,1.15.67,2.5.38,3.68.87-.57.62-.87,1.3-.99,2.17-.16,1.23-1.07,2.09-2,2.86-.14-.62-.39-1.2-.35-1.87.04-.58.1-1.23-.7-1.41-.72-.15-1.12.27-1.63.73-1.61,1.48-2.5,3.1-1.51,5.29.02.04,0,.1,0,.15-.64-.44-1.28-.89-2.09-.95-.01-.08-.01-.16,0-.25.22-.09.21-.18,0-.27-.01-.1-.02-.19-.01-.29-.08-.89.3-1.83-.26-2.67,0-.2,0-.39,0-.59Z"/>
      <path class="cls-3" d="M49.06,31.36s.02-.11,0-.15c-1-2.19-.1-3.8,1.51-5.29.5-.47.91-.89,1.63-.73.81.17.74.83.7,1.41-.05.66.21,1.25.35,1.87-.1.18-.2.36-.3.54-.81.1-1.58.41-1.76,1.25-.23,1.05-.89,1.35-1.82,1.38-.1-.09-.2-.19-.3-.28Z"/>
      <path class="cls-8" d="M49.36,31.64c.93-.03,1.59-.32,1.82-1.38.18-.84.94-1.15,1.76-1.25-.75,2.32-.03,4.22,1.67,5.83.23.22.17.42.1.66-1.34.61-2.27-.19-3.07-1.02-.84-.87-1.52-1.88-2.27-2.83Z"/>
      <path class="cls-1" d="M46.97,29.59c0,.1,0,.19.01.29,0,.09,0,.18,0,.27-.01.08-.01.16,0,.25-.54.96-.19,1.98-.23,2.98-.02.11-.04.22-.06.32-.9-.05-1.98.39-2.25-1.09-.09-.47-.73-.38-1.16-.38-.73,0-1.46,0-2.19,0-.29,0-.58,0-.87,0-.02-.11-.03-.22-.05-.33-.09-.57-.19-1.15-.28-1.72.69-1.23.13-2.57.31-3.85.48.05,1.14-.09,1.41.17,1.8,1.78,3.43.57,5.1-.16,0,.2,0,.39,0,.59.1.89-.28,1.82.26,2.67Z"/>
      <path class="cls-4" d="M46.68,33.71c.02-.11.04-.22.06-.32,1.32.3,1.78,1.1,1.39,2.39-.41.47-.58,1.21-1.36,1.29-.48-1.11.16-2.24-.09-3.35Z"/>
      <path class="cls-15" d="M80.1,43.45c-.28,0-.56.01-.83.02-.44.03-1.05-.14-.76.69,0,0-.05,0-.05,0-.38-.05-.4.22-.42.48,0,0,0,0,0,0-.54,0-1.08,0-1.62-.02-.91-.04-1.45-.57-1.62-1.42-.26-1.29.93-2.7,2.23-2.71.05,0,.1,0,.15,0q2.93,0,2.92,2.96Z"/>
      <path class="cls-6" d="M78.51,44.16c-.29-.83.32-.66.76-.69-.21.28-.37.61-.76.69Z"/>
      <path class="cls-6" d="M78.05,44.64c.02-.26.03-.53.42-.48.01.29-.18.41-.42.48Z"/>
      <path class="cls-6" d="M75.08,54.93c-1.26-.49-.86-1.58-.86-2.49,0-.53.43-.41.76-.29.63.24,1.26.51,1.89.77.14.77-.15,1.5-.25,2.25-.12.04-.24.08-.35.12-.35-.25-.74-.4-1.18-.36Z"/>
      <path class="cls-11" d="M36.65,41.38c1.08,0,2.16,0,3.24,0-.53,2.56-1.73,4.82-3.42,6.74-1.91,2.18-3.87,4.37-6.64,5.6-.55.25-1.62.75-1.25,1.55.34.74,1.22-.02,1.86-.02.1,0,.2,0,.29,0,0,.11,0,.22.01.33-.06.5.05.96.21,1.44.72,2.13.71,2.28-1.26,3.5-1.37.85-1.88,2.07-1.92,3.58-.89-.92-1.95-1.54-3.24-1.72.25-.73.12-.83-1.19-.92,0-.39.02-.78,0-1.17-.03-.65-.03-1.09.91-.95,1.05.15,3.4-2.32,3.47-3.43.04-.57-.3-.69-.72-.64-1.07.13-1.39-.37-1.29-1.35.09-.94-.23-1.61-1.32-1.71-.47-.04-.91-.26-1.05-.79.3-.55.82-.79,1.4-.91,1.31-.27.67-1.3.73-1.99.09-.98-.69-.64-1.22-.63-.34-.03-.65.01-.9.27-.08-.02-.17-.03-.25-.05,0-.16,0-.32.01-.48,1.29-.3,1.22-1.57,1.74-2.42.24.11.62.81.63-.1.02-1.24-.04-2.48-.06-3.72,3.75,0,7.49,0,11.24,0Z"/>
      <path class="cls-9" d="M27.78,64.1c.04-1.51.55-2.72,1.92-3.58,1.97-1.23,1.98-1.37,1.26-3.5-.16-.48-.27-.94-.21-1.44.98-.03,1.95-.07,2.93-.1.08.04.17.07.26.09.22,1.25.9,2.15,1.87,2.99,1.29,1.12,2.76,1.67,4.37,2.03,0,.77-.01,1.54-.02,2.3-2.18-.52-3.84.17-4.98,2.1-1.17.51-2.21.3-3.15-.54-1.32-.02-2.64-.03-3.96-.05-.08-.02-.17-.05-.26-.07,0-.08,0-.16-.03-.23Z"/>
      <path class="cls-1" d="M43.74,51.42c.76.1,1.51.23,2.27.29.6.05.78.43.65.88-.3,1.01.17,1.99.04,2.98,0,1.26,0,2.51,0,3.77,0,3.07,0,6.13,0,9.2,0,.29-.01.58-.02.86-.7-.12-1.24.21-1.77.6-.61-.95-.31-2.01-.26-3,.07-1.4-.48-1.88-1.81-1.73-.58.07-1.18.01-1.77.01-.3,0-.6,0-.9,0,.02-.68.03-1.37.05-2.05.42.1.88.13,1.26.31,1.02.47,1.67.07,2.16-.79.56-.98.14-1.71-.58-2.43-.89-.89-1.88-.49-2.86-.35.01-.48.03-.97.04-1.45,1.37.54,2.69.18,4.01-.25.5-.16.96-.31.93-.94-.04-.77-.65-.59-1.11-.59-.65,0-1.31.01-1.74-.56-.27-.36-.54-.93.26-.89,1.24.06,1.18-.69,1.16-1.52-.02-.78,0-1.57,0-2.35Z"/>
      <path class="cls-8" d="M40.22,63.23c-.02.68-.03,1.37-.05,2.05-1.66-.16-3.36.18-5-.29,1.14-1.93,2.81-2.62,4.98-2.1.02.11.05.23.07.34Z"/>
      <path class="cls-14" d="M28.06,64.4c1.32.02,2.64.03,3.96.05-.89,1.09-2.89,1.21-4.01.24.03-.09.05-.19.05-.29Z"/>
      <path class="cls-11" d="M28.06,64.4c0,.1-.02.19-.05.29-.07-.12-.14-.24-.2-.35.09.02.17.04.26.07Z"/>
      <path class="cls-1" d="M46.7,87.41c-1-.08-1.3-.68-1.18-1.59.2-1.67-.27-3.12-1.48-4.31.04-1.75-.47-3.47-.31-5.23.05-.54.02-1.07.31-1.55.39-.01.58-.21.59-.6.66-.15,1.31-.39,2.01-.28.04.67.08,1.35.12,2.02-.01.99-.02,1.98-.03,2.97.07,1.4-.31,2.83.29,4.19-.61,1.09-.24,2.25-.25,3.38-.02.33-.05.67-.07,1Z"/>
      <path class="cls-13" d="M46.64,73.85c-.7-.11-1.35.13-2.01.28.13-1.37-.3-2.78.3-4.12.52-.39,1.07-.72,1.77-.6,0,.49,0,.99,0,1.48-.02.99-.04,1.97-.06,2.96Z"/>
      <path class="cls-7" d="M70.06,74.71c-1.07-.22-2.16-.37-3.26-.29.09-.84.76-1.24,1.32-1.68,2.43-1.91,3.15-4.65,3.7-7.47.89,0,1.78-.02,2.67-.02.19,0,.39.02.58.03,0,.78,0,1.56.01,2.35.91,1.98.11,4.03.23,6.04.05.79-.75.72-1.34.76-1.31.1-2.65-.29-3.92.28Z"/>
      <path class="cls-14" d="M74.46,83.58v-2.18c.53,1.03,1.85.8,1.69,1.82-.11.73-.96.67-1.61.57-.01-.07-.04-.14-.08-.2Z"/>
      <path class="cls-14" d="M67.42,88.53c-.35.94-.78-.05-1.21,0-1.28.16-2.6.04-3.9.03.02-.08.03-.17.03-.25,1.69-.02,3.38-.04,5.06-.06.01.09.02.18.01.28Z"/>
      <path class="cls-3" d="M71.83,65.28c-.56,2.82-1.27,5.56-3.7,7.47-.56.44-1.24.84-1.32,1.68-2.86,0-5.71.05-8.57-.02-1.22-.03-2.17.08-2.4,1.5-.61-1.3-.52-2.7-.59-4.08,0-1.55.12-3.12,0-4.66-.12-1.5.47-2.06,1.89-1.94.94.01,1.88.02,2.82.03,1.21,0,2.42,0,3.64,0h2.28c.31.03.63.09.9-.14.13-.04.25-.08.38-.12,1.53.58,3.12.14,4.68.28Z"/>
      <path class="cls-3" d="M71.53,56.43c.69.37,1.38.31,2.13.14,1.69-.39,2.82.77,2.57,2.48-.25,1.72-1.33,2.87-2.52,3.97-.41.38-.88.7-1.45.36-.6-.35-.39-.89-.27-1.43.35-1.55-.13-2.34-1.65-2.86.07-.73.27-1.41.61-2.06.19-.2.38-.39.58-.59Z"/>
      <path class="cls-9" d="M61.76,60.56c-.2-1.99.78-3.43,2.2-4.66.26-.06.56-.02.72-.31.04-.03.08-.06.12-.1,1.08.05,2.16.1,3.24.15-.12.72-.77.82-1.27,1.09-1.51.81-2.32,2.04-2.3,3.78.08.12.16.24.24.36,0,.45.13.84.42,1.19.07.08.14.15.21.23.31.24.56.51.62.91.02.7-.07,1.37-1.01,1.18-.72-.14-1.94.66-1.97-.94,0-.37-.22-.36-.49-.22-.24-.89-.48-1.77-.72-2.66Z"/>
      <path class="cls-15" d="M64.46,60.51c-.02-1.74.79-2.97,2.3-3.78.5-.27,1.15-.38,1.27-1.09.62.05,1.27.21,1.87.12,1.16-.18,1.28.36,1.06,1.26-.34.65-.54,1.34-.61,2.06-.09.21-.19.42-.28.63-.16.27-.32.54-.48.81-.14.12-.28.24-.42.35-.11.08-.23.17-.34.25,0,0,0-.02,0-.02-.29.11-.58.21-.86.32-.27,0-.53,0-.8,0-.28-.22-.62-.24-.96-.21-.31-.11-.63-.22-.94-.33-.19-.3-.53-.28-.82-.36Z"/>
      <path class="cls-14" d="M62.47,63.22c.26-.14.48-.15.48.22.03,1.6,1.25.79,1.97.94.94.19,1.03-.48,1.01-1.18.12.11.24.23.36.34-.03.22-.02.41.22.51.21.32.42.63.63.95-.13.04-.25.08-.38.12-.33-.13-.63-.12-.9.13-.76,0-1.52,0-2.28,0-1.15-.26-.85-1.3-1.12-2.04Z"/>
      <path class="cls-4" d="M70.96,57.02c.23-.9.1-1.44-1.06-1.26-.6.09-1.25-.07-1.87-.12-1.08-.05-2.16-.1-3.24-.15-.03-.07-.06-.15-.09-.22,2.37,0,4.75-.01,7.12-.02-.1.39-.2.79-.3,1.18-.19.2-.38.39-.58.59Z"/>
      <path class="cls-4" d="M70.63,62.05c-.03.2-.03.44-.3.42-.24-.03-.28-.25-.22-.44.04-.12.14-.29.25-.32.33-.09.22.21.27.35Z"/>
      <path class="cls-4" d="M75.07,65.28c-.19,0-.39-.02-.58-.03.04-.37.2-.65.61-.48.31.13.17.35-.03.51Z"/>
      <path class="cls-4" d="M67.98,61.42c.29-.11.58-.21.86-.32-.08.68-.35.83-.86.32Z"/>
      <path class="cls-4" d="M69.59,60.52c.16-.27.32-.54.48-.81-.02.35.02.74-.48.81Z"/>
      <path class="cls-4" d="M66.22,61.2c.34-.03.67,0,.96.21-.34.02-.69.1-.96-.21Z"/>
      <path class="cls-4" d="M64.46,60.51c.29.08.63.06.82.36-.2,0-.39,0-.59,0-.08-.12-.16-.24-.24-.36Z"/>
      <path class="cls-4" d="M66.52,64.05c-.24-.1-.25-.3-.22-.51.07.17.15.34.22.51Z"/>
      <path class="cls-4" d="M68.83,61.13c.11-.08.23-.17.34-.25-.11.08-.23.17-.34.25Z"/>
      <path class="cls-4" d="M65.31,62.29c-.07-.08-.14-.16-.21-.23.07.08.14.16.21.23Z"/>
      <path class="cls-3" d="M86.6,75c.48.75.89-.27,1.42-.05.05,1.08-.18,1.98-1.36,2.36-.35.11-.64.23-.65.65-1.02-.03-2.04-.06-3.06-.09.12-.17.24-.34.36-.52.27-.02.56,0,.46-.43,0,0,.02-.02.02-.02.41.1.41-.18.42-.45,0,0,0,0,0,0,.1-.08.21-.16.31-.24.69-.41,1.38-.83,2.07-1.24Z"/>
      <path class="cls-6" d="M82.35,78.76c-.89.15-1.03-.42-1.04-1.1.48.07,1.02-.16,1.45.24-.12.3-.24.59-.37.89l-.04-.03Z"/>
      <path class="cls-3" d="M82.39,78.79c.12-.3.24-.59.37-.89.06-.04.13-.06.21-.05.11.5.21.99-.58.94Z"/>
      <path class="cls-13" d="M83.78,76.93c.1.42-.2.4-.46.43.08-.23.22-.38.46-.43Z"/>
      <path class="cls-13" d="M84.23,76.47c-.02.27-.01.55-.42.45.04-.25.19-.39.42-.45Z"/>
      <path class="cls-13" d="M84.53,76.24c-.1.08-.21.16-.31.24.1-.08.21-.16.31-.24Z"/>
      <path class="cls-11" d="M54.66,17.18c-.9-.34-1.47-1.06-2.05-1.76,0-.81-.77-.99-1.19-1.45.49-.02.88-.24,1.19-.6.83-.45,1.32-1.27,2.02-1.85.21,1.51,1.83,2.01,2.37,3.34.25.61.69,1.12.65,1.84-.87.94-2.01.26-2.99.5Z"/>
      <path class="cls-6" d="M49.95,16.3c-.76-.13-1.63-.04-2.09-.88.12-.09.24-.17.35-.27q1.79-1.7,3.46.12c-.44.56-1.2.6-1.71,1.03Z"/>
      <path class="cls-14" d="M52.61,13.36c-.31.37-.7.58-1.19.6-.11-.19-.21-.39-.32-.58.51.17,1-.56,1.51-.02Z"/>
      <path class="cls-11" d="M62.99,14.17c-.36.58-.72,1.17-1.5,1.24-.88-2.06-1.47-4.24-2.74-6.12-.25-.37-.06-.63.07-.93,2.42.8,3.99,2.99,4.18,5.81Z"/>
      <path class="cls-6" d="M54.66,17.18c.99-.24,2.13.45,2.99-.5.91.81.48,1.88.56,2.85,0,0,0,0,0,0-.2.04-.39.08-.59.12-1.65-.04-2.09-1.51-2.97-2.47Z"/>
      <path class="cls-11" d="M58.23,8.1c.11.07.23.15.34.22-.11-.07-.23-.15-.34-.22Z"/>
      <path class="cls-2" d="M44.06,10.11c-2.92-.17-3.36-.64-3.23-3.51.47.32,1.08.42,1.41.94.05.36.27.52.62.5,0,0,0,0,0,0,.38.73.59,1.66,1.74,1.51.01.38-.18.55-.54.56Z"/>
      <path class="cls-14" d="M42.87,8.04c-.36.02-.57-.14-.62-.5.3.06.48.26.62.5Z"/>
      <path class="cls-3" d="M57.63,19.66c.2-.04.39-.08.59-.12-.08.16-.12.42-.24.47-.24.09-.3-.15-.34-.34Z"/>
      <path class="cls-2" d="M24.84,45.2c-.52.85-.44,2.13-1.74,2.42-.03-.42-.07-.84-.12-1.49-.43.88-.55,1.58-.53,2.32l-.09.03s-.09,0-.09,0c-2.03-.18-4.07-.29-6.04-.89,0,0-.01-.01-.01-.01-.11-.25-.34-.26-.57-.29.34-1.43.68-2.87,1.02-4.3,1.62.12,3.24.63,4.81-.38.53-.34,1.23.15,1.86.22.92.52,1.1,1.51,1.5,2.36Z"/>
      <path class="cls-5" d="M12.4,56.74c.07-1.93.69-3.72,1.38-5.5.83-.16.69-.94.96-1.47.24-.47.01-1.25.87-1.3.64.65,1.73.89,1.83,2.03-2.44,1.32-4.26,3.05-4.2,6.08-.28.05-.56.1-.84.15Z"/>
      <path class="cls-13" d="M17.44,50.5c-.1-1.13-1.19-1.38-1.83-2.03.58-.03.65-.41.62-.88,1.97.6,4.01.71,6.04.89-.19.36-.39.73-.59,1.09-.75.53-1.52,1.01-2.48,1-.58-.08-1.16-.29-1.76-.08Z"/>
      <path class="cls-13" d="M15.65,47.3c.22.03.46.04.57.29-.23-.01-.45-.06-.57-.29Z"/>
      <path class="cls-13" d="M46.7,87.41c.02-.33.05-.67.07-1,1.58.33,1.66-1.13,2.31-1.93.43-.15.82-.19,1.21.13.31.25.7.76,1.07.26.27-.36-.1-.82-.37-1.16-.26-.33-.55-.67-1.04-.7-.1-.1-.2-.2-.3-.31.1-.98.19-1.97.29-2.95.83-.39,1.59-1,2.59-.88.39.69.89,1.29,1.53,1.77h0c.49.53,1.14.53,1.78.55.51,1.7.28,3.45.26,5.17,0,.36-.36.48-.66.35-.87-.37-1.88.02-2.71-.57-.53-.37-.83-.06-1.21.36-1.27,1.42-2.85,2.21-4.81,2.09,0-.4,0-.79-.01-1.19Z"/>
      <path class="cls-3" d="M53.63,90.99c-.03.67-.47,1.16-.75,1.72-.7.03-1.64.2-1.63.88.01,1.52-.93,1.45-1.91,1.51,0,0,0,0,0,0-.1-.1-.2-.2-.31-.31,0,0,0,0,0,0,0-.15.06-.32,0-.44-1.17-2.24.34-3.63,1.62-5.08.41-.47.92-.74,1.56-.65.64.1.59.66.74,1.12.14.44.13,1,.66,1.25Z"/>
      <path class="cls-15" d="M57.92,91.84c.17-1.19.26-2.38-.02-3.57,1.26.48,2.58.09,3.86.29-.1.6-.2,1.19-.3,1.79-.17.95-.33,1.9-.52,2.84-.15.74-.43,1.4-1.24,1.65-1.79-.29-1.62-1.75-1.79-3Z"/>
      <path class="cls-5" d="M55.85,81.19c-.64-.02-1.3-.02-1.78-.55,1.63.12,1.35-1.14,1.24-1.97-.32-2.51-1.07-4.97-.57-7.54.17.23.34.46.52.69.07,1.38-.02,2.78.59,4.08.65,1.76-.26,3.53,0,5.29Z"/>
      <path class="cls-15" d="M62.34,88.31c0,.08,0,.17-.03.25-.18,0-.37.01-.55.02.07-.35.33-.31.58-.27Z"/>
      <path class="cls-8" d="M49.34,95.09c.98-.06,1.93.01,1.91-1.51,0-.68.93-.85,1.63-.88-.57,2.01-.07,3.74,1.35,5.24.27.28.52.59.51,1.02-1.27.6-2.22-.08-3-.9-.88-.92-1.6-1.98-2.39-2.97Z"/>
      <path class="cls-8" d="M49.04,94.79c.1.1.2.2.31.31-.1-.1-.2-.2-.31-.31Z"/>
      <path class="cls-9" d="M17.44,50.5c.6-.21,1.17,0,1.76.08.01.4.03.8.04,1.2-1.64,1.15-3.51,2.15-2.98,4.68-.05,1.14.73,1.89,1.38,2.65,1.99,2.33,1.77,4.46-.92,6-1.45.83-2.35,1.64-2.32,3.45.02.84-.78,1.67-1.01,2.55-.19.74-.08,1.55-.11,2.33-.24,1.58-1.56,2.46-2.38,3.67-.1.07-.19.15-.29.22h-.15s-.14.03-.14.03c-.38.05-.82-.08-1.08.34-.88.48-1.33-.24-1.88-.67-.45-1.07-.29-2.05.42-2.97.32-.42.56-.9.52-1.47.99-1.58,2.44-2.92,2.57-4.94,0-.97-.91-1.25-1.38-1.87-.32-.41-1.25-.6-.65-1.43.86.23,1.37,0,1.5-.97.12-.85.39-1.67.6-2.5.09-.2.18-.41.27-.61.1,0,.2,0,.3-.01.11.16.21.33.33.48.45.59.76,1.68,1.71,1.17.86-.46,1.08-1.43.7-2.44-.36-.95-.67-1.92-1.01-2.88-.06-3.03,1.76-4.77,4.2-6.08Z"/>
      <path class="cls-15" d="M8.31,72.59c.03.56-.21,1.05-.52,1.47-.71.93-.87,1.9-.42,2.97-1.06.19-1.77-.32-2.34-1.14-.51-.74-1.14-1.19-2.1-.92-1.14-.4-.7-1.58-1.16-2.33-.67-1.08.82-1.45.87-2.32.33-.03.66-.05.99-.08.59-.14.69-.63.78-1.11.13-.75-.39-1.8.29-2.2.85-.51,1.24.91,2.07.99.09.12.18.23.27.35.12,1.52-.26,3.19,1.26,4.31Z"/>
      <path class="cls-11" d="M7.05,68.28c-.09-.12-.18-.23-.27-.35-.15-1.26-1.07-1.84-2.06-2.37-.03-.34-.01-.69-.1-1.02-.14-.52-.45-1.11.07-1.48.42-.31,1.06.02,1.36.29.82.75,1.89.62,2.8,1-.59.84.34,1.02.65,1.43.47.61,1.39.89,1.38,1.87-1.28.18-2.71-.52-3.83.63Z"/>
      <path class="cls-8" d="M13.24,56.59c.33.96.65,1.93,1.01,2.88.38,1.01.16,1.98-.7,2.44-.95.5-1.26-.59-1.71-1.17-.12-.15-.22-.32-.33-.48-.31-1.22.68-2.19.67-3.36.08-.06.15-.12.23-.18,0,0-.01.02-.01.02.28-.05.56-.1.84-.15Z"/>
      <path class="cls-6" d="M4.71,65.56c.99.53,1.91,1.12,2.06,2.37-.84-.09-1.22-1.5-2.07-.99-.68.4-.16,1.45-.29,2.2-.09.49-.18.97-.78,1.11.37-.85.33-1.67-.07-2.5-.6-1.24-.08-1.9,1.15-2.19Z"/>
      <path class="cls-8" d="M11.21,60.27c-.09.2-.18.41-.27.61-.02-.25.02-.48.27-.61Z"/>
      <path class="cls-5" d="M12.41,56.71c-.08.06-.15.12-.23.18.06-.08.02-.29.23-.18Z"/>
      <path class="cls-2" d="M24.21,26.63c1.13-.91,1.76-.89,2.3.25.3.65.72,1.01,1.34,1.23,1.07.38,1.33,1.07.82,2.06-.58.59-1.17,1.19-1.75,1.78-.12.03-.23.07-.35.1-.42-.09-.84-.16-1.21.15-.72.12-.5.71-.58,1.15-.76,0-1.7.46-2.17-.38-.48-.87-.15-1.8.38-2.63.34-.53.86-.95.97-1.62,0,0,0,0,0,0,.47-.65.15-1.39.26-2.08Z"/>
      <path class="cls-9" d="M94.05,88.3c-.24,1.3-.49,2.6.68,3.64.31,1.02.19,1.96-.48,2.8-.39.07-.83-.03-1.13.34-.2-.02-.41-.04-.61-.06-.37-.38-.83-.21-1.26-.2h-.1s-.1-.02-.1-.02c-.18-.98-.96-.49-1.49-.6,0,0,0,0,0,0-.03-.14-.02-.34-.1-.4-.88-.64-1.55-1.23.19-1.56,0,0-.04-.25-.07-.39.29-.11.59-.22.88-.32.03.26.2.58.41.33.64-.76,1.54-1.51.77-2.69,0-.2,0-.4,0-.6.44-.47.08-.53-.3-.58-.74-.24-1.62-.36-1.71-1.33-.06-.6.48-.99.96-1.18.86-.34,1.69-.28,2.42.46.66.67,1.01,1.42,1.04,2.34Z"/>
      <path class="cls-6" d="M87.78,77.66c.64-.46,1.15-.87,2.03-.17,1,.79,2.18.19,3.03-1.28.52.48.13,1.27.58,1.77-.4.38-.81.77-1.21,1.15-1.48-.47-2.84-.17-4.11.67-1.11-.57-.38-1.4-.32-2.14Z"/>
      <path class="cls-14" d="M89.57,91.86c.02.14.07.39.07.39-1.74.33-1.07.92-.19,1.56.09.06.07.26.1.4-.8-.1-1.38-.54-1.83-1.18.04-1.29.87-1.34,1.85-1.17Z"/>
      <path class="cls-14" d="M91.64,89.18c.76,1.18-.13,1.93-.77,2.69-.21.25-.38-.08-.41-.33.21-.88,1.15-1.39,1.18-2.36Z"/>
      <path class="cls-14" d="M91.34,88.01c.38.05.74.1.3.58-.1-.19-.2-.38-.3-.58Z"/>
      <path class="cls-8" d="M94.25,94.75c.67-.85.79-1.79.48-2.8.35-.03.7-.06,1.05-.1.48,1.62.15,3.08-.89,4.4-.24,0-.47-.05-.6-.29-.1-.4.56-.83-.05-1.21Z"/>
      <path class="cls-11" d="M94.25,94.75c.61.38-.05.81.05,1.21-.62.02-1.27.07-1.18-.88.3-.37.74-.27,1.13-.34Z"/>
      <path class="cls-14" d="M89.55,94.2c.53.11,1.31-.38,1.49.6-.57,0-1.17.03-1.49-.6Z"/>
      <path class="cls-14" d="M91.25,94.82c.43,0,.89-.18,1.26.2-.44.08-.89.16-1.26-.2Z"/>
      <path class="cls-9" d="M30.45,25.74c-.43-.73-1.34-1.17-1.25-2.23.06-.8,0-1.63.9-1.99.89-.36,1.85-.01,2.18.71.77,1.65,2.29,1.94,3.72,2.48.59.23,1.14.56,1.71.85.52,1.35.49,2.92,1.59,4.05-.04.19-.14.38-.12.56.06.55.46,1.22-.41,1.45-.82.21-1.28-.1-1.29-1.04,0-.37-.37-.1-.58-.08-.97-1.84-2.44-3.11-4.41-3.82-.68-.31-1.36-.63-2.04-.94Z"/>
      <path class="cls-5" d="M29.2,19.75c-1.2,1.02-2.86,1.44-3.8,2.81-.67-.42-1.34-.84-2.01-1.26-.04-.52-.37-.89-.64-1.29-1.04-1.51-1.17-2.74-.2-3.21,1.35-.66,2.22.2,2.88,1.24.58.92,1.24.79,1.97.28.18-.13.27-.39.41-.59,1.42-.33,1.66,0,1.41,2.02Z"/>
      <path class="cls-8" d="M32.49,26.68c1.96.71,3.43,1.98,4.41,3.82.09.49.17.98.26,1.47-.54,0-1.08-.02-1.63-.03-.62-.01-1.13-.34-1.18-.91-.14-1.44-.72-2.62-1.72-3.64-.14-.14-.1-.47-.14-.71Z"/>
      <path class="cls-14" d="M37.16,31.96c-.09-.49-.17-.98-.26-1.47.21-.03.58-.3.58.08,0,.94.47,1.26,1.29,1.04.87-.22.47-.9.41-1.45-.02-.18.08-.37.12-.56.19.19.38.38.57.57.09.57.19,1.15.28,1.72-.86.06-1.73.11-2.59.17-.14-.04-.27-.07-.41-.11Z"/>
      <path class="cls-8" d="M26.92,31.96c.58-.59,1.17-1.19,1.75-1.78-.02.41.04.75.47.97.26.14.74.22.53.7-.16.36-.54.4-.89.37-.62-.07-1.24-.18-1.86-.27Z"/>
      <path class="cls-8" d="M37.57,32.07c.86-.06,1.73-.11,2.59-.17.02.11.03.22.05.33-.88-.07-1.78.2-2.64-.16Z"/>
      <path class="cls-8" d="M24.21,26.63c-.11.69.21,1.43-.26,2.08.06-.7-.29-1.44.26-2.08Z"/>
      <path class="cls-8" d="M25.36,32.2c.37-.31.79-.24,1.21-.15-.37.3-.8.17-1.21.15Z"/>
      <path class="cls-11" d="M25.41,41.38c-.14-.08-.28-.17-.42-.25.14.08.28.17.42.25Z"/>
      <path class="cls-8" d="M40.5,14.17c-1.13-.29-2.31-.4-3.32-1.06q1.55-1.21,2.85.38c.18.22.44.37.47.68Z"/>
      <path class="cls-11" d="M44.32,16.85c-.29,0-.58,0-.87-.01.3-.31.59-.32.87.01Z"/>
      <path class="cls-13" d="M39.88,30.18c-.19-.19-.38-.38-.57-.57-1.09-1.13-1.06-2.7-1.59-4.05.47-.5.53-1.58,1.64-1.21.02.6-.04,1.25.81,1.36,0,.21.01.42.02.63-.18,1.28.38,2.61-.31,3.85Z"/>
      <path class="cls-14" d="M40.17,25.7c-.85-.11-.79-.76-.81-1.36.22-.18.43-.37.75-.33.02.56.04,1.13.06,1.69Z"/>
      <path class="cls-15" d="M9.63,87.47c.03-.77.21-1.56.06-2.29-.19-.91.03-1.58.6-2.21.64-.98,1.83-1.81.9-3.23-.14-1.15.03-2.1,1.48-2.19.58.25,1.11.58,1.45,1.13.3.49.71.6,1.23.47.24.02.49.06.73.05.61,0,1.23.06,1.54.66.34.68-.07,1.21-.49,1.72-.22.26-.41.54-.62.81-1.67.77-3.03,1.81-3.29,3.8-.66,1.33-.19,3.04-1.42,4.18-1.7.33-1.95-.84-2.15-2.07,0-.1-.01-.2-.02-.3,0-.17-.01-.35-.02-.52Z"/>
      <path class="cls-9" d="M13.23,86.18c.25-1.99,1.62-3.03,3.29-3.8.26.52.78.53,1.24.55.59.03.9.27.88.87-.02,2.8-.04,5.59-.06,8.39-1.13-.37-2.62.13-3.28-1.43-.24-.58-.28-1.14-.27-1.72.01-1.35-.41-2.4-1.8-2.86Z"/>
      <path class="cls-8" d="M9.63,87.47c0,.17.01.35.02.52-.02.03-.08.07-.07.09.02.07.06.14.09.21.19,1.23.44,2.4,2.15,2.07-1.01.91-1.01,2.48-2.17,3.28-.16,0-.33.01-.49.02-2.17-1.79-1.95-4.61.48-6.19Z"/>
      <path class="cls-14" d="M9.15,93.66c.17,0,.33-.01.49-.02.33.56.67,1.11,1.26,1.45.88.63,1.92.56,2.92.69.57.52,1.57.44,1.87,1.33-2.22.06-4.03-1.31-6.09-1.8-.83-.2-.31-1.08-.45-1.64Z"/>
      <path class="cls-8" d="M13.82,95.77c-1-.13-2.04-.06-2.92-.69.27-.09.58-.13.81-.28,1.46-.99,1.74-.86,2.12.97Z"/>
      <path class="cls-5" d="M10.91,77.11c.82-1.2,2.14-2.09,2.38-3.67.89,1.5.04,2.57-.9,3.61-.49.03-.98.25-1.48.05Z"/>
      <path class="cls-4" d="M10.91,77.11c.5.19.99-.02,1.48-.05.09.16.19.32.28.49-1.45.09-1.61,1.03-1.48,2.19-.62-.7.02-1.7-.58-2.4.1-.07.19-.15.29-.22Z"/>
      <path class="cls-6" d="M92.98,74.87c.62-1.3,2.25-1.24,3.08-2.25-.23,1.84-1.96,1.63-3.08,2.25Z"/>
      <path class="cls-6" d="M95.24,77.69c-.19.53-.58.31-.93.24.25-.33.59-.25.93-.24Z"/>
      <path class="cls-6" d="M92.84,75.6c-.05-.23-.11-.47.14-.64.15.25.12.47-.14.64Z"/>
      <path class="cls-6" d="M23.08,48.1c.08.01.17.03.25.05,0,.39-.01.78.02,1.17.03.35-.11.93.55.73.42-.12,1.02.06,1.2-.62.23-.83-.63-1.02-.87-1.56.53,0,1.31-.35,1.22.63-.06.69.59,1.72-.73,1.99-.57.12-1.09.36-1.4.91-.08.02-.16.04-.24.05,0-1.12,0-2.23,0-3.35Z"/>
      <path class="cls-14" d="M19.24,51.78c-.01-.4-.03-.8-.04-1.2.97,0,1.74-.47,2.48-1,.25.53.22,1.04-.11,1.53-.87-.11-1.51.6-2.34.67Z"/>
      <path class="cls-4" d="M9.25,77.7c.26-.42.7-.29,1.08-.34-.05.35.19.85-.22,1-.48.18-.31-.77-.86-.66Z"/>
      <path class="cls-8" d="M57.92,91.84c.16,1.26,0,2.71,1.79,3-.93.76-.65,2.26-1.79,2.89-1.82-.74-2.44-3.23-1.19-4.84.32-.42.67-.84,1.19-1.05Z"/>
      <path class="cls-9" d="M64.7,55.27c.03.08.06.15.09.22-.04.03-.08.07-.12.1-1.35-.02-2.7-.04-4.05-.07,0-.08,0-.17.02-.25,1.35,0,2.7,0,4.06,0Z"/>
      <path class="cls-11" d="M60.65,55.27c-.02.08-.03.17-.02.25-.01.2-.03.4-.04.6-.07.05-.15.08-.23.08-.06-.36-.15-.73.3-.93Z"/>
      <path class="cls-13" d="M43.74,51.42c0,.78-.02,1.57,0,2.35.02.83.08,1.57-1.16,1.52-.79-.04-.53.53-.26.89.44.57,1.1.55,1.74.56.45,0,1.07-.18,1.11.59.03.63-.44.78-.93.94-1.32.43-2.63.78-4.01.25-.05-.03-.1-.07-.15-.09.03-.94.05-1.88.08-2.82-1.22-.69-2.51-.34-3.78-.22-.1.15-.19.3-.29.45-.72-.12-1.42-.41-2.17-.26-.09-.02-.18-.05-.26-.09-.95-.48-1.96-.14-2.94-.23-.1,0-.2,0-.29,0-.64,0-1.52.76-1.86.02-.36-.8.7-1.3,1.25-1.55,2.77-1.23,4.73-3.42,6.64-5.6,1.69-1.92,2.89-4.19,3.42-6.74.78,0,1.56-.02,2.33,0,1.6.02,1.99.53,1.67,2.06-.19.89-.38,1.79.14,2.65-.44,1.25-.25,2.55-.29,3.83,0,.49,0,.99,0,1.48Z"/>
      <path class="cls-3" d="M46.71,68.54c0-3.07,0-6.13,0-9.2.53-.24.88-.66,1.18-1.14,1.28-.1,2.27.37,2.94,1.47.72.71.62,1.81,1.22,2.58.46,2.14.24,4.39,1.08,6.47.21.51-.3.65-.52.94-1.25.65-.92,1.59-.55,2.61.64,1.78.07,2.54-1.53,2.2l.04-.1c-1.74-.15-1.53-1.72-1.72-2.72-.28-1.44-1-2.36-2.13-3.11Z"/>
      <path class="cls-8" d="M52.6,69.66c.23-.28.73-.43.52-.94-.83-2.08-.62-4.33-1.08-6.47,2.09.75,4.05.78,5.94-.68,1.07-.83,2.59-.36,3.77-1.01.24.89.48,1.77.72,2.66.27.73-.03,1.78,1.12,2.04-1.21,0-2.42,0-3.64,0-.04-.92-.78-1.07-1.42-1.07-.62,0-1.39.09-1.41,1.04-1.42-.11-2.01.44-1.89,1.94.13,1.54.01,3.11,0,4.66-.17-.23-.34-.46-.52-.69,0,0,0,.01,0,.01-.38-.96-1.14-1.39-2.13-1.48Z"/>
      <path class="cls-11" d="M50.83,59.67c-.67-1.1-1.66-1.57-2.94-1.47-.3-1.9.37-3.52,1.47-5.01,1.46-1.25,3-1.69,4.7-.48-.31.23-.61.47-.93.69-2.23,1.51-2.44,2.44-1.08,4.82-.48.43-1.59.32-1.23,1.45Z"/>
      <path class="cls-6" d="M60.58,56.12c.01-.2.03-.4.04-.6,1.35.02,2.7.04,4.05.07-.16.29-.46.26-.72.31-1.14-.16-2.26-.03-3.38.22Z"/>
      <path class="cls-6" d="M49.37,53.19c-1.11,1.49-1.77,3.11-1.47,5.01-.3.47-.65.9-1.18,1.14,0-1.26,0-2.51,0-3.77,1.6-.82,1.85-2.25,1.71-3.84.67.25-.05,1.41.94,1.46Z"/>
      <path class="cls-2" d="M89.83,67.95c.31,0,.62,0,.93,0-.31.33-.62.29-.93,0Z"/>
      <path class="cls-13" d="M46.97,29.59c-.54-.85-.16-1.78-.26-2.67.56.84.19,1.78.26,2.67Z"/>
      <path class="cls-13" d="M46.98,30.16c0-.09,0-.18,0-.27.21.09.21.18,0,.27Z"/>
      <path class="cls-5" d="M24.23,47.88c.24.55,1.09.73.87,1.56-.19.68-.79.49-1.2.62-.65.19-.52-.38-.55-.73-.03-.39-.01-.78-.02-1.17.25-.26.56-.3.9-.27Z"/>
      <path class="cls-4" d="M30.73,55.25c.98.09,1.99-.25,2.94.23-.98.03-1.95.07-2.93.1,0-.11,0-.22-.01-.33Z"/>
      <path class="cls-4" d="M33.94,55.57c.75-.15,1.45.14,2.17.26.95,1.44,2.27,2.32,3.98,2.59.05.03.1.06.15.09-.01.48-.03.97-.04,1.45-.01.21-.02.41-.03.62-1.61-.35-3.08-.9-4.37-2.03-.96-.84-1.65-1.74-1.87-2.99Z"/>
      <path class="cls-7" d="M40.17,60.58c.01-.21.02-.41.03-.62.98-.14,1.97-.54,2.86.35.72.72,1.15,1.45.58,2.43-.49.86-1.15,1.27-2.16.79-.39-.18-.84-.21-1.26-.31-.02-.11-.04-.23-.07-.34,0-.77,0-1.54.02-2.3Z"/>
      <path class="cls-4" d="M46.71,68.54c1.13.75,1.85,1.67,2.13,3.11.19,1-.02,2.57,1.72,2.72-.84.45-1.78.26-2.67.38.05-.72.12-1.44.14-2.16.03-.92-.22-1.65-1.33-1.7,0-.49,0-.99,0-1.48,0-.29.01-.58.02-.86Z"/>
      <path class="cls-15" d="M47.89,74.75c.89-.12,1.83.07,2.67-.38,0,0-.04.1-.04.1.39.78,1.02,1.19,1.87.91.92-.3.55-1.09.52-1.74-.02-.34,0-.68,0-1.02q0-1.95,1.82-1.48s0-.01,0-.01c-.49,2.57.25,5.03.57,7.54.11.83.39,2.09-1.24,1.97,0,0,0,0,0,0,.07-1.09-.35-1.76-1.53-1.77-1.01-.12-1.76.49-2.59.88-1.16,0-2.15-.6-3.22-.92.01-.99.02-1.98.03-2.97.18-.19.36-.38.54-.57.4.01.51-.27.6-.58v.03Z"/>
      <path class="cls-11" d="M46.73,78.84c1.07.32,2.06.91,3.22.92-.1.98-.19,1.97-.29,2.95-.91-.14-1.77.1-2.64.32-.61-1.36-.22-2.79-.29-4.19Z"/>
      <path class="cls-5" d="M47.02,83.02c.87-.22,1.73-.45,2.64-.32.1.1.2.2.3.31.29.84-.96.76-.88,1.47-.64.79-.72,2.25-2.31,1.93.01-1.13-.36-2.29.25-3.38Z"/>
      <path class="cls-14" d="M47.3,75.3c-.18.19-.36.38-.54.57-.04-.67-.08-1.35-.12-2.02.02-.99.04-1.97.06-2.96,1.11.05,1.36.78,1.33,1.7-.02.72-.09,1.44-.14,2.16,0,0,.01-.03.01-.03-.4,0-.57.21-.6.58Z"/>
      <path class="cls-14" d="M57.13,65.22c.01-.95.78-1.05,1.41-1.04.64,0,1.38.15,1.42,1.07-.94-.01-1.88-.02-2.82-.03Z"/>
      <path class="cls-8" d="M65.87,65.25c.27-.26.57-.26.9-.13-.27.23-.59.17-.9.13Z"/>
      <path class="cls-6" d="M49.07,84.48c-.08-.71,1.17-.63.88-1.47.49.03.78.37,1.04.7.26.33.64.8.37,1.16-.38.5-.76,0-1.07-.26-.39-.32-.79-.29-1.21-.13Z"/>
      <path class="cls-5" d="M52.54,78.88c1.18,0,1.6.68,1.53,1.77-.64-.48-1.14-1.08-1.53-1.77Z"/>
      <path class="cls-13" d="M7.05,68.28c1.12-1.15,2.55-.45,3.83-.63-.13,2.02-1.58,3.36-2.57,4.94-1.52-1.12-1.14-2.79-1.26-4.31Z"/>
      <path class="cls-9" d="M9.67,88.29c-.03-.07-.07-.14-.09-.21,0-.02.05-.06.07-.09,0,.1.01.2.02.3Z"/>
      <path class="cls-5" d="M40.1,58.42c-1.71-.27-3.03-1.16-3.98-2.59.1-.15.19-.3.29-.45,1.25.25,2.54-.13,3.78.22-.03.94-.05,1.88-.08,2.82Z"/>
      <path class="cls-4" d="M40.18,55.6c-1.24-.35-2.53.03-3.78-.22,1.27-.12,2.56-.47,3.78.22Z"/>
      <path class="cls-5" d="M54.73,71.14q-1.83-.47-1.82,1.48c0,.34-.01.68,0,1.02.03.65.4,1.44-.52,1.74-.85.27-1.48-.13-1.87-.91,1.6.34,2.17-.42,1.53-2.2-.37-1.03-.71-1.96.55-2.61.99.09,1.75.52,2.13,1.48Z"/>
      <path class="cls-4" d="M47.3,75.3c.03-.37.2-.59.6-.58-.09.3-.2.59-.6.58Z"/>
    </g>
  </g>
</svg>