<?xml version="1.0" encoding="UTF-8"?>
<svg id="Laag_2" xmlns="http://www.w3.org/2000/svg" viewBox="0 0 83.38 91.46">
  <defs>
    <style>
      .cls-1 {
        fill: #ebebea;
      }

      .cls-2 {
        fill: #40403e;
      }
    </style>
  </defs>
  <g id="Laag_1-2" data-name="Laag_1">
    <g>
      <path class="cls-2" d="M65.24,23.23c5.82-.21,7.94,3.62,9.38,7.44,3.05,8.07,5.53,16.35,8.34,24.51.93,2.71.27,4.89-1.65,6.83-6.26,6.32-13.98,7.32-22.28,5.93-2.55-.43-3.82-2.42-4.63-4.65-3.57-9.79-7.78-19.37-9.82-29.76-2.86,4.83-4.13,10.5-9.19,13.78,1.63,2.2,4.23,3.01,5.98,4.98,2.52,2.84,2.89,5.64,1.28,8.85-3.42,6.83-6.91,13.62-10.36,20.43-.94,1.85-1.92,3.69-2.76,5.59-1.19,2.69-3.42,4-6.11,4.19-6.99.48-13.56-.65-18.73-5.98-.44-.45-.84-.93-1.31-1.35-3.94-3.49-4.43-5.35-1.56-9.88,3.95-6.23,6.81-13,10.15-19.52,1.33-2.59,3.19-4.77,4.66-7.24.93-1.56,2.6-2.02,4.29-2.24.83-.11,1.74-.31,2.49-.08,6.79,2.07,9.91-2.85,13.91-6.73,3.33-3.23,4.99-7.36,7.61-10.93.87-1.18-.06-1.88-.48-2.45-5.01-6.88-8.78-14.42-12.21-22.16-.36-.81-1.1-1.48.02-1.98,1.05-.47,1.24.47,1.61,1.29,3.24,7.19,7.05,14.08,11.25,20.76.68,1.08,1.28,1.83,2.63,1.75.28-.02.78.11.83.28,1.18,3.94,3.12,1,4.57.39,2.43-1.01,4.89-1.91,7.51-2.02,1.83-.08,2.98-.9,4.12-2.17,4.7-5.2,9.33-10.45,13.43-16.14.98-1.36,1.96-2.71,2.83-4.14.39-.63.8-1.04,1.46-.68.64.36.71,1.15.28,1.64-3.42,3.82-5.88,8.36-9.45,12.1-2.68,2.8-4.84,6.12-8.12,9.35ZM38.97,39.44c-.78-.11-1.2.38-1.55.96-1.54,1.46-3.13,2.87-4.59,4.4-.3.31-1.51.84-.32,1.6.78.5,1.44.59,2.04-.37,1.07-1.73,2.24-3.41,3.37-5.11.9.24,1.14-.48,1.49-1.03.69-.5,1.23-1.05.66-2.11-.39.59-.74,1.12-1.09,1.66ZM18.58,86.56c2.58.13,4.73.14,6.23-1.66,1.3-1.56,2.65-3.07,3.54-4.98,3.05-6.61,6.23-13.15,9.4-19.7.55-1.12,2.2-1.72.31-3.43-1.53-1.37-2.41-2.51-4.67-1.44-3.07,1.46-7.04-.09-8-3.01-.43-1.31-.86-2.47-2.33-2.48-1.77-.01-3.57.19-4.6,2.02-4.34,7.75-8.71,15.49-12.25,23.66-.95,2.19-.52,4.04.97,5.76,3.12,3.62,7.13,5.28,11.41,5.25ZM65.96,64.05c2.65.33,5.53-.72,8.26-1.99,4.08-1.89,4.98-4.59,3.78-8.91-2.11-7.57-5.49-14.67-8.02-22.08-.17-.49-.31-1.01-.59-1.43-1.41-2.14-4.67-2.08-5.86.08-1.85,3.37-5.35,4.67-8.57,2.66-2.29-1.42-3.55.07-4.97,1.01-1.64,1.08-.77,2.91-.08,3.93,1.03,1.52,1.38,3.16,1.91,4.79,1.69,5.23,3.31,10.5,5.07,15.71,1.84,5.43,2.88,6.11,9.07,6.23ZM29.72,49.44c-1.24.53-2.13.92-1.86,1.9.32,1.17,1.33,1.83,2.53,1.92,1.09.08,2.43.45,2.95-1.52-2.26.84-4.32,1.44-3.62-2.29Z"/>
      <path class="cls-1" d="M18.58,86.56c-4.28.03-8.28-1.63-11.41-5.25-1.49-1.72-1.92-3.57-.97-5.76,3.53-8.17,7.9-15.91,12.25-23.66,1.03-1.84,2.83-2.04,4.6-2.02,1.47,0,1.9,1.17,2.33,2.48.96,2.91,4.93,4.46,8,3.01,2.26-1.07,3.15.07,4.67,1.44,1.9,1.7.24,2.3-.31,3.43-3.18,6.55-6.35,13.09-9.4,19.7-.88,1.92-2.23,3.42-3.54,4.98-1.5,1.8-3.65,1.79-6.23,1.66Z"/>
      <path class="cls-1" d="M65.96,64.05c-6.19-.12-7.23-.8-9.07-6.23-1.77-5.21-3.38-10.47-5.07-15.71-.53-1.63-.88-3.28-1.91-4.79-.69-1.02-1.56-2.84.08-3.93,1.42-.94,2.68-2.43,4.97-1.01,3.22,2.01,6.72.7,8.57-2.66,1.19-2.16,4.45-2.22,5.86-.08.28.42.43.94.59,1.43,2.53,7.41,5.91,14.51,8.02,22.08,1.2,4.32.3,7.02-3.78,8.91-2.73,1.27-5.6,2.32-8.26,1.99Z"/>
      <path class="cls-2" d="M48.17,25.94c.5.16.98.35,1.47.54.23.09.47.19.7.29-.11-.05.07.03.09.04.06.03.12.05.19.08.05.02.11.05.16.07.04.02.07.03.11.05.16.09.11-.03-.17-.37l.09-.32c.15-.13.17-.17.09-.1l-.04.03s-.09.05-.13.07c-.12.07.09-.02-.03.01-.05.01-.1.03-.14.04-.13.04.1,0-.03,0-.04,0-.11.01-.15,0,.08.01.09.01.01,0h-.05c-.06-.03-.12-.05-.18-.06-.09-.03-.19-.06-.28-.09-.05-.02-.09-.03-.14-.05-.02,0-.17-.07-.09-.03s-.07-.03-.08-.04c-.04-.02-.09-.05-.13-.07s-.08-.05-.12-.08c-.04-.03-.03-.02.03.02-.02-.02-.05-.04-.07-.07-.24-.22-.65-.26-.88,0-.22.24-.26.65,0,.88.36.33.8.53,1.27.67s.97.24,1.46.04c.28-.11.59-.27.76-.53.24-.39.02-.88-.37-1.05-.47-.21-.95-.41-1.43-.6-.51-.21-1.03-.4-1.55-.58-.31-.1-.7.12-.77.44-.08.34.1.66.44.77h0Z"/>
      <path class="cls-2" d="M49.28,27.06c.79.04,1.58.04,2.37,0,.39-.02.78-.04,1.16-.08.46-.05.88-.2,1.03-.69.07-.21,0-.45-.16-.61-.17-.17-.38-.2-.61-.16-.99.17-2.18.19-3.17.06-.32-.04-.69.08-.77.44-.07.29.09.72.44.77,1.29.17,2.56.16,3.84-.06l-.77-.77c.04-.14.13-.22.25-.25-.02,0-.05.02-.07.02-.05,0-.03,0,.04,0-.04,0-.08,0-.12.01-.17.02-.34.03-.5.04-.32.02-.65.04-.97.05-.66.02-1.32.02-1.98-.02-.33-.02-.64.3-.62.62.02.35.27.61.62.62h0Z"/>
      <path class="cls-2" d="M39.39,42.03c.49-.58.82-1.24,1.09-1.94s.6-1.43.54-2.17c-.02-.27-.18-.54-.46-.6s-.57.04-.71.29c-.2.35-.41.69-.59,1.05s-.26.75-.39,1.13c-.1.28-.31.63-.47.92-.2.35-.4.71-.6,1.06l1.14.15s-.02-.11-.01-.05c-.02-.14,0,0,0-.08.02-.08.06-.19.08-.24.08-.18.19-.41.28-.61.2-.42.4-.85.59-1.27l-1.14-.48c-.24.9-.69,1.71-1.3,2.39l.98.76c.2-.4.4-.81.6-1.21.15-.3.08-.68-.22-.86-.28-.16-.7-.08-.86.22-.2.4-.4.81-.6,1.21-.14.28-.1.61.16.81.24.18.61.18.82-.05.77-.84,1.33-1.84,1.63-2.94.08-.3-.08-.62-.36-.74-.27-.11-.65-.03-.78.26-.23.5-.46,1-.7,1.49-.26.55-.56,1.1-.39,1.72.14.51.88.62,1.14.15.39-.7.83-1.4,1.14-2.15.13-.31.19-.71.32-.97.18-.36.39-.7.59-1.05l-1.16-.32c.04.57-.26,1.21-.47,1.78-.18.48-.47,1.07-.79,1.46-.22.26-.25.63,0,.88.22.22.67.26.88,0h0Z"/>
      <path class="cls-2" d="M38.33,44.09c.8,0,.81-1.25,0-1.25s-.81,1.25,0,1.25h0Z"/>
      <path class="cls-2" d="M39.05,41.07c.2-.5.41-1,.59-1.51.05-.15.01-.35-.06-.48s-.22-.25-.37-.29c-.16-.04-.34-.03-.48.06s-.23.21-.29.37c-.18.51-.39,1.01-.59,1.51-.06.14-.01.36.06.48s.22.25.37.29c.16.04.34.03.48-.06l.13-.1c.08-.08.13-.17.16-.28h0Z"/>
    </g>
  </g>
</svg>