<?xml version="1.0" encoding="UTF-8"?>
<svg id="Laag_2" xmlns="http://www.w3.org/2000/svg" viewBox="0 0 112.63 62.42">
  <defs>
    <style>
      .cls-1 {
        fill: #f4f4f4;
      }

      .cls-2 {
        fill: #020202;
      }
    </style>
  </defs>
  <g id="Laag_1-2" data-name="Laag_1">
    <g>
      <path class="cls-2" d="M56.32,62.28c-16.13.19-32.25.21-48.38-.06-2.27-.04-4.55-.2-6.82-.21-1.01,0-1.21-.41-1.1-1.3.59-4.78,2.98-8.51,6.68-11.48,1.96-1.58,4.28-2.44,6.61-3.28,6.95-2.51,13.79-5.26,20.06-9.25,3.64-2.31,6.83-5.08,9.27-8.7,2.96-4.39,7.01-7.38,12.13-8.84.67-.19.95-.44.79-1.14-.64-2.89.34-5.07,2.9-6.57,3.43-2.01,2.85-5.68,1.61-7.99-.94-1.74-2.57-2.45-4.52-2.37-1.98.09-3.69.77-4.73,2.55-.84,1.42-.4,2.77.5,4.02.27.38.74.76.07,1.16-.58.35-.74-.27-.96-.55-1.91-2.44-1.41-5.3,1.22-7,2.6-1.68,5.87-1.7,7.98-.05,2.02,1.59,3.05,5.38,2.16,8-.43,1.27-1.33,2.16-2.37,2.93-.64.47-1.32.91-1.91,1.44-1.17,1.05-1.5,3.6-.7,4.9.19.31.48.42.79.49,4.69,1.08,8.49,3.69,11.17,7.55,5.89,8.47,14.34,13.16,23.62,16.79,4.08,1.6,8.24,3.01,12.08,5.2,4.64,2.66,7.42,6.53,8.07,11.89.22,1.86.27,1.87-1.58,1.87-18.2,0-36.41,0-54.61,0ZM102.84,57.39c.02-.07.04-.14.07-.2-.37-.23-.73-.46-1.1-.67-5.81-3.34-11.62-6.69-17.42-10.03-9.06-5.21-18.12-10.42-27.17-15.63-.54-.31-.98-.48-1.63-.11-14.99,8.65-30,17.28-45.01,25.91-.29.17-.68.24-.81.73h93.08ZM111.4,60.5c-.79-4.71-3.16-8.21-7.15-10.64-2.74-1.67-5.72-2.82-8.72-3.88-5.17-1.82-10.12-4.09-14.85-6.87-4.95-2.91-9.2-6.57-12.48-11.32-2.51-3.63-5.87-6.13-10.07-7.52-.81-.27-1.05-.13-1.05.73.01,2.43,0,4.87-.08,7.3-.03.87.24,1.35,1.01,1.79,17.47,10.02,34.92,20.06,52.38,30.1.28.16.54.48,1.02.31ZM1.34,60.67c1-.56,1.69-.94,2.38-1.33,5.16-2.96,10.31-5.92,15.46-8.89,11.86-6.82,23.73-13.66,35.6-20.46.63-.36.89-.76.9-1.5.02-2.35.12-4.71.17-7.06.03-1.46.02-1.46-1.41-.95-4.24,1.5-7.62,4.12-10.11,7.87-3.43,5.18-8.17,8.88-13.47,11.99-5.23,3.07-10.92,5.06-16.52,7.26-2.87,1.12-5.66,2.4-8.02,4.45-2.56,2.21-4.11,5.01-4.98,8.62ZM106.65,59.76c-.68-.69-1.4-.62-2.1-.62-18.51-.04-37.03-.08-55.54-.13-13.69-.04-27.37-.09-41.06-.13-.7,0-1.45-.13-2,.71,1.99.35,4,.06,5.9.57-2.62.42-5.27.38-7.91.47,0,.11.02.23.02.34h104.95s0-.09,0-.13c-3.3-.12-6.61-.25-9.91-.37,0-.12.01-.24.02-.35,2.49-.11,4.98-.22,7.62-.34Z"/>
      <path class="cls-1" d="M106.65,59.76c-2.65.12-5.13.23-7.62.34,0,.12-.01.24-.02.35,3.3.12,6.61.25,9.91.37,0,.04,0,.09,0,.13H3.97c0-.11-.02-.23-.02-.34,2.64-.09,5.29-.05,7.91-.47-1.91-.51-3.91-.22-5.9-.57.55-.84,1.3-.71,2-.71,13.69.04,27.37.09,41.06.13,18.51.05,37.03.09,55.54.13.7,0,1.42-.07,2.1.62Z"/>
      <path class="cls-2" d="M108.41,56.25c-2.56-3.23-5.5-5.46-9.05-7,2.24-.7,8.5,4,9.05,7Z"/>
      <path class="cls-2" d="M66.94,28.53c-1.97-1.67-3.73-3.56-5.59-5.35,2.5,1.1,4.29,2.96,5.59,5.35Z"/>
      <path class="cls-2" d="M4.79,55.32c2.01-3.34,4.88-5.45,8.7-6.19-3.25,1.55-6.18,3.56-8.7,6.19Z"/>
      <path class="cls-2" d="M45.31,29.42c1.54-3.46,4.07-5.81,7.7-6.91-2.97,1.85-5.56,4.11-7.7,6.91Z"/>
    </g>
  </g>
</svg>