<?xml version="1.0" encoding="UTF-8"?>
<svg id="Laag_2" xmlns="http://www.w3.org/2000/svg" viewBox="0 0 42.71 40.18">
  <defs>
    <style>
      .cls-1 {
        fill: #868686;
      }

      .cls-2 {
        fill: #5c5b5b;
      }

      .cls-3 {
        fill: #777776;
      }

      .cls-4 {
        fill: #191919;
      }

      .cls-5 {
        fill: #4c4c4c;
      }
    </style>
  </defs>
  <g id="Laag_1-2" data-name="Laag_1">
    <g>
      <path class="cls-5" d="M4.53,9.16c-.48.06-.55-.35-.69-.67.13-.11.27-.2.38-.33.16-.18.32-.43.07-.62-.21-.16-.34.09-.46.25-.08.1-.18.2-.27.29-.23-.16-.39-.36-.47-.64.2-.04.43-.04.46-.32,0-.08-.07-.23-.12-.24-.25-.06-.28.27-.47.33L.87,4.84c1.38.21,2.55.8,3.56,1.74.06.41.27.65.61.91.54.42.97,1.06,1.49.02,2.24,1.14,4.56,2.15,6.7,3.46,1.61.99,3.17,1.23,4.98.99,1.33-.18,2.29-.72,3.01-1.84,1.28-1.98,2.83-3.76,4.29-5.58,1.2-1.49,2.15-3.27,3.88-4.54-.09,1.42-.41,2.67-.86,3.81-.85,2.17-1.19,4.46-1.87,6.66-.3.97-.36,2.03-.93,2.92-.18.28-.19.68.1.99.11.12.25.27.27.42.34,2.61,2.16,3.39,4.27,3.97,1.9.53,3.75,1.3,5.63,1.9,2.03.64,4.03,1.46,6.13,1.88.12.02.22.12.6.35-2.86.12-5.41.51-8,.48-.21-.46-.55-.69-1.05-.66-.37.02-.78.06-.84-.5.76,0,1.52.01,2.28.01.87.05,1.73.09,2.6.14-.81-.59-1.64-.93-2.57-.95-1.33-.67-2.77-.99-4.14-1.51-1.77-.67-3.71-.83-5.25-2.21-1.69-1.51-2.33-3.48-1.53-5.67.62-1.7,1.25-3.38,1.87-5.08.22-.48.74-.9.35-1.53-.47-.08-.74.15-.98.58-1.12,1.97-2.29,3.91-3.41,5.88-.37.65-.79.96-1.56.92-1.61-.09-3.2.07-4.72.78-.91.43-1.78.46-2.76-.22-1.64-1.14-3.45-2.03-5.19-3.01-.25-.14-.49-.41-.84-.22.91.97,1.75,2,2.72,2.88,1.66,1.51,3.32,2.96,1.74,5.56-.09.14-.1.34-.13.52-.08.61-.41.84-.99.81-.76-.04-1.52,0-2.29,0,.55.68,1.23.77,1.84,1.04.24.1.62-.02.69.34.07.38-.26.55-.5.74-.93.72-1.92,1.38-2.79,2.19-.53.5-1.32.77-1.58,1.62.22.12.37.04.52-.03,1.51-.67,3.02-1.32,4.52-2.01.4-.19.78-.32,1.15-.01,1.03.86,2.04,1.74,3.06,2.61-.02.03-.06.05-.07.08-.01.03,0,.09,0,.1.61.29,1.22.62,1.85.86.44.16.62.39.7.9.24,1.66-.01,3.4.62,5,0,.64,0,1.29,0,1.93-.38-.03-.57.34-.89.46-.04-.16-.08-.31-.12-.47.24-.2.13-.33-.09-.43-.37-.98-.58-2.02-.76-3.05.01-.04,0-.08-.03-.11-.15-.24-.2-.5-.17-.78,0,0-.01-.06-.01-.06-.46-2.26-2.46-2.73-3.99-3.74-.17-.11-.47-.02-.7.02-3.43.69-6.86,1.38-10.29,2.06-.31.06-.75.33-.94-.07-.2-.41.29-.6.52-.81,2.07-1.92,4.14-3.82,6.23-5.7.5-.45.6-.74,0-1.21-.68-.54-1.26-1.21-1.98-1.91.86-.66,1.85-1.03,2.81-1.46.54-.24,1.17-.34,1.44-1.08.25-.67.24-1.18-.22-1.75-1.44-1.8-2.83-3.64-4.23-5.47-.11-.15-.31-.32-.1-.55.32-.02.69.06.83-.38.02-.06-.08-.21-.14-.22-.45-.09-.53.32-.7.6ZM26.49,4.84c.11-.06.25-.1.31-.2.06-.1-.06-.23-.16-.16-.09.06-.12.21-.18.33-.03.04-.06.08-.08.12.04-.03.08-.06.11-.09ZM5.26,26.06s-.12.07-.13.11c0,.05.04.11.07.17.06-.05.13-.1.19-.16-.04-.04-.08-.08-.12-.12Z"/>
      <path class="cls-5" d="M30.18,23.79c-.33.02-.66.04-.98.06-.07,0-.14.01-.21.02-.82.18-1.66.19-2.49.18-.06-.03-.11-.02-.17,0-.25.11-.56.16-.73.35-1.08,1.19-2.3,2.2-3.48,3.27-.55.5-.8,1.19-.99,1.94-.54,2.13-1.15,4.23-1.73,6.35-.29-.04-.58-.07-.87-.11.25-2.02.5-4.04.77-6.06.09-.7,0-1.69.41-2.04.91-.78,1.62-1.94,2.81-2.27,1.72-.49,2.79-1.73,3.67-3.2.28-.47.57-.69,1.07-.6,1.59.3,3.22.05,4.8.42.08.61-.13.93-.77.86-.57-.06-.97.19-1.09.82Z"/>
      <path class="cls-2" d="M18.52,35.86c.29.04.58.07.87.11-.34,1.31-.41,2.7-.98,4.21-.43-1.65-1.16-2.95-1.26-4.46.31-.11.51-.48.89-.46.24.12.06.62.47.59Z"/>
      <path class="cls-2" d="M30.18,23.79c.11-.64.51-.88,1.09-.82.64.06.85-.25.77-.86.26.05.53.09.79.14.06.57.47.52.84.5.5-.03.84.2,1.05.66-1.5.29-3.02.33-4.54.39Z"/>
      <path class="cls-2" d="M6.52,7.51c-.52,1.04-.95.4-1.49-.02-.34-.26-.54-.5-.61-.91.88-.13,1.43.53,2.1.93Z"/>
      <path class="cls-2" d="M3.57,8.08c.09-.1.19-.19.27-.29.12-.16.25-.4.46-.25.25.19.09.43-.07.62-.11.12-.25.22-.38.33-.09-.13-.18-.27-.27-.4Z"/>
      <path class="cls-2" d="M2.96,7.22c.19-.06.23-.38.47-.33.06.01.13.16.12.24-.03.28-.26.28-.46.32-.05-.08-.09-.15-.14-.23Z"/>
      <path class="cls-2" d="M16.95,34.82c.22.1.33.23.09.43-.03-.14-.06-.29-.09-.43Z"/>
      <path class="cls-2" d="M28.99,23.86c.07,0,.14-.01.21-.02-.07,0-.14.01-.21.02Z"/>
      <path class="cls-2" d="M26.32,24.06c.05-.03.11-.04.17,0-.06,0-.11,0-.17,0Z"/>
      <polygon class="cls-2" points="15.97 30.82 15.99 30.87 15.93 30.84 15.97 30.82"/>
      <path class="cls-2" d="M16.16,31.65s.04.07.03.11c0,0-.06-.05-.06-.05l.03-.07Z"/>
      <path class="cls-4" d="M14.95,26.39c-1.02-.87-2.03-1.75-3.06-2.61-.37-.31-.75-.17-1.15.01-1.5.69-3.02,1.34-4.52,2.01-.16.07-.31.15-.52.03.26-.85,1.04-1.12,1.58-1.62.87-.8,1.85-1.46,2.79-2.19.24-.19.57-.36.5-.74-.07-.37-.45-.24-.69-.34-.61-.27-1.3-.35-1.84-1.04.76,0,1.53-.03,2.29,0,.58.03.91-.21.99-.81.02-.18.04-.37.13-.52,1.58-2.6-.08-4.05-1.74-5.56-.97-.88-1.81-1.91-2.72-2.88.35-.18.59.09.84.22,1.75.98,3.55,1.87,5.19,3.01.98.68,1.85.65,2.76.22,1.52-.71,3.1-.86,4.72-.78.76.04,1.19-.27,1.56-.92,1.12-1.97,2.29-3.91,3.41-5.88.24-.43.51-.65.98-.58-.25.51-.51,1.02-.76,1.54-1,2.11-1.52,4.45-2.75,6.46-.29.47,0,.92.17,1.32.11.25.26.48.37.74.91,2.13,2.12,3.88,4.55,4.28,1.18.19,2.34.55,3.5.86.96.25,1.91.53,2.87.8-2.62.23-5.1-.48-7.64-.72-.73-.07-1.06,0-1.39.77-.47,1.08-.89,2.35-2.17,2.72-1.34.38-2.38,1.22-3.33,2.2-.33.35-.94.52-.97,1.05-.07,1.39-.6,2.73-.42,4.15-.27-.14-.22-.41-.23-.65-.06-.96-.11-1.92-.17-2.87-.02-.3.11-.73-.31-.8-.98-.17-1.8-.83-2.81-.89Z"/>
      <path class="cls-1" d="M18.46,31.61c-.18-1.42.36-2.75.42-4.15.03-.54.64-.71.97-1.05.95-.99,1.99-1.82,3.33-2.2,1.28-.36,1.7-1.63,2.17-2.72.33-.76.66-.84,1.39-.77,2.54.24,5.03.95,7.64.72-.96-.27-1.91-.55-2.87-.8-1.16-.3-2.32-.67-3.5-.86-2.43-.39-3.65-2.15-4.55-4.28-.11-.26-.26-.5-.37-.74-.17-.4-.45-.85-.17-1.32,1.23-2.01,1.75-4.34,2.75-6.46.14,0,.28,0,.41,0-.63,1.69-1.26,3.38-1.87,5.08-.79,2.19-.16,4.15,1.53,5.67,1.54,1.38,3.48,1.54,5.25,2.21,1.37.52,2.81.84,4.14,1.51-.8.23.27.55-.03.81-.76,0-1.52,0-2.28-.01-.27-.05-.53-.09-.79-.14-1.58-.36-3.21-.12-4.8-.42-.49-.09-.79.13-1.07.6-.88,1.47-1.95,2.71-3.67,3.2-1.18.34-1.89,1.49-2.81,2.27-.4.34-.32,1.33-.41,2.04-.27,2.02-.51,4.04-.77,6.06-.41.02-.23-.47-.48-.59,0-.64,0-1.29,0-1.94.59-.45.7-1.03.42-1.72Z"/>
      <path class="cls-3" d="M18.46,31.61c.28.68.17,1.26-.42,1.72-.63-1.61-.38-3.34-.62-5-.07-.51-.25-.73-.7-.9-.63-.24-1.24-.57-1.85-.86-.01,0-.01-.07,0-.1.01-.03.04-.05.07-.08,1,.05,1.83.72,2.81.89.41.07.29.5.31.8.06.96.11,1.92.17,2.87.01.24-.03.51.23.65Z"/>
      <path class="cls-3" d="M35.11,22.25c.3-.26-.76-.57.03-.81.93.02,1.76.36,2.57.95-.87-.05-1.73-.09-2.6-.14Z"/>
      <path class="cls-3" d="M26.09,6.99c-.14,0-.28,0-.41,0,.25-.51.5-1.02.76-1.54.39.64-.12,1.05-.35,1.53Z"/>
      <path class="cls-2" d="M4.53,9.16c.17-.28.24-.69.7-.6.06.01.16.17.14.22-.14.44-.51.36-.83.38,0,0,0,0,0,0Z"/>
      <path class="cls-4" d="M26.46,4.81c.06-.11.09-.27.18-.33.1-.06.21.07.16.16-.06.1-.2.13-.31.2l-.03-.03Z"/>
      <path class="cls-4" d="M5.26,26.06s.08.08.12.12c-.06.05-.13.1-.19.16-.02-.06-.08-.12-.07-.17,0-.04.08-.07.13-.11Z"/>
      <path class="cls-4" d="M26.49,4.84s-.08.06-.11.09c.03-.04.06-.08.08-.12,0,0,.03.03.03.03Z"/>
    </g>
    <path class="cls-5" d="M4.24,6.76c.74.4,1.2,1.17,1.99,1.5l.03-.25c-.32-.04-.57-.28-.84-.44s-.56-.31-.85-.44c-.13-.05-.19.13-.12.21.23.29.49.54.79.76.11.08.26-.11.15-.2-.49-.4-1-.76-1.55-1.06-.09-.05-.23.03-.18.14.07.17.12.35.17.54l.18-.14c-.14-.08-.29-.17-.43-.26-.11-.07-.35-.17-.35-.32l-.19.11c.2.13.4.27.58.43.12.11.27-.05.18-.18s-.19-.24-.3-.35c-.09-.1-.23,0-.21.12l.02.12c.05-.02.05-.03-.01-.02-.08-.05-.15-.05-.22-.12-.1-.1-.27.03-.2.15.15.25.34.47.56.66.15.13.43.39.64.31.06-.02.11-.09.09-.15-.12-.31-.34-.58-.52-.85l-.2.15c.38.37.76.74,1.14,1.1.11.1.26-.03.2-.15-.14-.29-.32-.54-.5-.8-.09-.13-.31,0-.22.13.56.8,1.11,1.59,1.78,2.3.1.11.27-.03.2-.15l-.57-1c-.08-.14-.28-.02-.22.13l.3.71c.06.14.26.04.23-.1-.07-.32-.19-.63-.35-.92-.06-.1-.24-.06-.23.06l.02.18.19-.11c-.11-.06-.2-.14-.28-.23-.11-.12-.28.05-.18.18.13.16.24.34.32.54l.2-.15c-.21-.17-.41-.37-.58-.58-.1-.12-.25.03-.2.15l.27.56.2-.15-.29-.33c-.09-.11-.27.03-.2.15l.29.46.2-.15c-.13-.13-.27-.25-.41-.37-.08-.06-.26,0-.21.12.07.16.14.32.22.48l.2-.15-.38-.35c-.1-.09-.23,0-.21.12.04.2.08.39.14.58l.21-.12c-.28-.33-.53-.68-.76-1.06-.11-.18-.21-.36-.26-.56-.05-.18-.09-.35-.19-.5l-.2.15c.32.39.62.79.89,1.21.09.13.3.01.22-.13-.11-.19-.24-.37-.38-.55-.08-.1-.25,0-.21.12.03.1.08.19.15.27l.15-.2-.34-.23c-.11-.07-.23.07-.17.17.1.18.22.34.36.49.09.1.23,0,.21-.12-.06-.26-.12-.53-.2-.78l-.23.1c.14.19.28.39.41.58.08.11.27.05.23-.1-.06-.21-.13-.41-.23-.6l-.17.17c.21.1.34.3.54.42.08.05.2-.01.19-.11l-.05-.55c0-.07-.05-.21-.03-.28-.06,0-.05,0,.02.01.04.01.08.02.12.04.12.05.21-.13.12-.21s-.17-.15-.28-.2c-.12-.07-.25.09-.15.2l.38.4c.11.12.29-.06.18-.18-.18-.2-.31-.43-.4-.68l-.15.15c.38.05.74.16,1.08.32.32.16.7.37.9.68.09.14.3,0,.22-.13-.21-.33-.59-.56-.93-.74-.38-.19-.78-.32-1.2-.37-.09-.01-.19.05-.15.15.1.3.25.56.46.79l.18-.18-.38-.4-.15.2c.08.05.16.1.23.16l.12-.21c-.15-.06-.44-.15-.46.1-.01.14.02.29.04.43l.04.48.19-.11c-.2-.12-.33-.32-.54-.42-.11-.05-.23.06-.17.17.08.17.15.35.2.54l.23-.1c-.14-.19-.27-.39-.41-.58-.08-.11-.27-.05-.23.1.08.26.15.52.2.78l.21-.12c-.12-.14-.23-.28-.32-.44l-.17.17.34.23c.12.08.24-.09.15-.2-.04-.05-.07-.1-.09-.16l-.21.12c.13.16.24.32.34.5l.22-.13c-.29-.43-.6-.86-.93-1.26-.09-.11-.27.03-.2.15.11.17.13.37.2.55.07.2.18.39.29.57.23.37.48.72.76,1.05.08.1.25,0,.21-.12-.06-.19-.11-.38-.14-.58l-.21.12.38.35c.1.1.26-.02.2-.15-.07-.14-.14-.27-.2-.42l-.21.12c.15.11.28.23.41.37.1.1.27-.03.2-.15l-.29-.46-.2.15.29.33c.1.11.25-.03.2-.15l-.27-.56-.2.15c.18.21.37.4.58.58.11.09.25-.02.2-.15-.09-.22-.21-.41-.36-.59l-.18.18c.1.11.21.2.33.27.08.04.2-.01.19-.11l-.02-.18-.23.06c.15.27.25.56.32.86l.23-.1-.3-.71-.22.13.57,1,.2-.15c-.65-.7-1.19-1.47-1.74-2.25l-.22.13c.19.26.37.51.5.8l.2-.15c-.38-.37-.76-.74-1.14-1.1-.1-.1-.28.03-.2.15.17.25.39.51.5.79l.09-.15c-.05.02-.2-.1-.24-.13-.09-.06-.18-.14-.27-.21-.16-.15-.3-.32-.41-.51l-.2.15c.13.14.33.23.52.19.21-.05.14-.25.12-.41l-.21.12c.11.11.2.23.3.35l.18-.18c-.2-.17-.41-.33-.63-.47-.08-.05-.19.02-.19.11,0,.18.12.3.26.4.21.14.43.27.64.4.1.06.21-.04.18-.14-.04-.18-.1-.36-.17-.54l-.18.14c.53.3,1.03.64,1.5,1.02l.15-.2c-.28-.21-.52-.45-.74-.72l-.12.21c.33.14.65.31.95.52.25.17.49.33.8.37.15.02.15-.2.03-.25-.76-.31-1.21-1.09-1.93-1.47-.14-.08-.27.14-.13.22h0Z"/>
    <path class="cls-5" d="M6.72,7.84c-.31-.25-.65-.46-1.02-.61-.14-.06-.27.14-.13.22.33.18.63.4.89.67l.18-.18c-.2-.16-.4-.32-.61-.48-.09-.07-.25,0-.21.12.07.21.19.37.32.54l.18-.18c-.32-.28-.63-.56-.95-.84-.12-.11-.29.06-.18.18.19.18.39.35.6.51.09.07.2-.05.18-.14-.04-.18-.12-.34-.25-.47l-.12.21c.13.05.24.13.36.2l.13-.22c-.41-.18-.81-.35-1.22-.53l-.06.23c.28.01.53.1.76.26l.1-.23c-.58-.24-1.13-.54-1.64-.89-.13-.09-.26.12-.13.22.53.37,1.1.68,1.7.92.14.06.21-.15.1-.23-.26-.18-.57-.28-.89-.29-.12,0-.18.18-.06.23.41.18.81.35,1.22.53.14.06.26-.13.13-.22s-.27-.17-.42-.23c-.12-.05-.2.13-.12.21.1.1.16.22.19.36l.18-.14c-.19-.15-.37-.3-.55-.47l-.18.18c.32.28.63.56.95.84.12.11.27-.05.18-.18-.1-.13-.21-.27-.26-.43l-.21.12c.2.16.4.32.61.48.12.1.29-.06.18-.18-.27-.28-.59-.53-.94-.71l-.13.22c.35.15.68.34.97.57.12.1.3-.08.18-.18h0Z"/>
    <path class="cls-5" d="M5.5,8.75c-.12,0-.24,0-.36,0-.05,0-.1.03-.11.08-.02.05,0,.1.03.14,0,0,.01.02.02.02-.01-.02-.01-.02,0,0,0,0,0,0,0,.01.01.02.02.03.03.05,0,0,0,.02.01.03,0,.01,0,0,0-.01,0,0,0,0,0,.01,0,.02.01.03.02.05v-.03s0,0,0,0v-.03s.05-.05.07-.07h.03s0,0-.01,0h.03s-.03-.01,0,0c0,0-.01,0-.02,0,0,0-.01,0-.02-.01,0,0,0,0,.01,0,0,0,0,0,0,0,0,0,0,0-.01-.01,0,0,0,0,0,0,.01.02.02.02,0,0,0,0,0-.01-.01-.02,0,0-.02-.04,0,0l-.21.12s.04.05.06.08-.01-.02,0,0c0,0,0,.01.01.02,0,.01.02.03.03.04.04.05.08.11.11.16s.11.08.17.04.08-.11.04-.17c-.08-.12-.16-.24-.26-.35-.03-.04-.11-.05-.15-.02-.02.01-.03.03-.04.04-.02.02-.02.07-.01.1.01.03.02.06.04.09.03.03.05.06.09.09.07.05.18.08.25.01.08-.07.03-.18,0-.26-.03-.06-.06-.11-.1-.15l-.09.21c.12,0,.24,0,.36,0,.07,0,.13-.06.12-.12s-.05-.13-.12-.12h0Z"/>
    <path class="cls-5" d="M19.08,35.78v.38h.24c0-.1,0-.19.03-.29.04-.16-.19-.22-.24-.07l-.58,1.94.25.03c0-.42.07-.83.14-1.25.07-.37.15-.74.34-1.06l-.23-.1c-.22.57-.45,1.14-.67,1.72l.25.03c0-.47.12-.93.34-1.35l-.23-.1-.3.87c-.09.27-.17.56-.33.79h.22c-.22-.51-.18-1.08-.26-1.62-.03-.21-.07-.44-.2-.61-.16-.21-.44-.33-.66-.46-.1-.06-.21.04-.18.14s.04.2.07.3l.24-.07c-.04-.09-.07-.18-.11-.27-.06-.15-.28-.09-.24.07.14.63.3,1.26.48,1.88.16.56.33,1.14.64,1.64.06.1.25.07.23-.06-.11-.98-.35-1.93-.72-2.84l-.23.1c.16.37.29.76.39,1.15l.23-.1c-.19-.43-.29-.9-.31-1.37l-.19.11c.15.07.25.33.33.47.1.19.2.39.28.59l.23-.1c-.1-.19-.2-.38-.3-.56s-.1-.39-.15-.59c-.03-.13-.26-.11-.25.03l.23,2.47.25-.03c-.16-.53-.33-1.06-.29-1.62l-.25.03c.09.31.15.62.19.94l.25-.03c-.1-.47-.22-.93-.35-1.39-.04-.15-.28-.09-.24.07.25.92.47,1.85.67,2.78.03.16.27.09.24-.07-.2-.93-.42-1.86-.67-2.78l-.24.07c.13.46.25.92.35,1.39.03.14.26.11.25-.03-.04-.34-.1-.68-.2-1.01-.04-.14-.24-.11-.25.03-.03.58.13,1.14.3,1.69.04.13.26.11.25-.03l-.23-2.47-.25.03c.05.21.06.43.16.62s.21.4.31.59c.06.12.28.04.23-.1-.1-.24-.21-.48-.33-.7-.09-.17-.2-.42-.38-.51-.08-.04-.19,0-.19.11.02.52.14,1.02.34,1.5.06.13.26.04.23-.1-.1-.42-.24-.82-.41-1.21-.06-.13-.28-.04-.23.1.36.89.6,1.82.71,2.77l.23-.06c-.31-.5-.47-1.08-.63-1.65-.17-.6-.32-1.21-.46-1.82l-.24.07c.04.09.07.18.11.27.06.15.28.09.24-.07-.02-.1-.04-.2-.07-.3l-.18.14c.22.13.54.25.65.49.1.22.11.49.13.73.04.47.06.94.25,1.38.04.09.17.07.22,0,.16-.23.24-.52.33-.79l.32-.93c.05-.13-.16-.22-.23-.1-.24.46-.37.96-.37,1.47,0,.15.2.16.25.03.22-.57.45-1.14.67-1.72.05-.14-.16-.21-.23-.1-.21.34-.3.73-.37,1.12-.08.43-.15.87-.15,1.31,0,.14.21.17.25.03l.58-1.94-.24-.07c-.03.12-.05.23-.04.36.01.16.24.16.25,0v-.38c.02-.16-.23-.16-.24,0h0Z"/>
    <path class="cls-5" d="M18.54,35.87c0-.09.07-.16.11-.23.06-.1.09-.21.12-.32.05-.19.1-.39.24-.53.12-.11-.06-.29-.18-.18-.17.16-.24.39-.3.62-.03.11-.06.22-.12.31-.06.1-.14.2-.13.33,0,.07.05.12.12.12.06,0,.13-.06.12-.12h0Z"/>
    <path class="cls-5" d="M30,23.68c.07,0,.13,0,.19.03l-.06-.21-.06.06c-.08.08-.02.21.09.21.35.02.64-.18.96-.27.35-.1.73-.14,1.09-.2.16-.03.09-.27-.07-.24-.35.06-.71.1-1.05.19-.31.09-.6.29-.93.27l.09.21.06-.06c.07-.07.03-.18-.06-.21s-.17-.04-.26-.04c-.16.01-.16.26,0,.25h0Z"/>
    <path class="cls-5" d="M32.2,23.25c.16,0,.16-.25,0-.25s-.16.25,0,.25h0Z"/>
    <path class="cls-5" d="M31.75,23.58c.16,0,.16-.25,0-.25s-.16.25,0,.25h0Z"/>
    <path class="cls-5" d="M33.56,23.06c-.34-.01-.67-.03-1.01-.07v.25c.51,0,1.02,0,1.53,0v-.25c-.6.02-1.19,0-1.79-.06v.25c.49,0,.97,0,1.46,0,.14,0,.17-.21.03-.25-.57-.12-1.14-.21-1.72-.26-.14-.01-.17.21-.03.25.38.08.76.17,1.13.25l.03-.25c-.68,0-1.36,0-2.04-.08v.25c.73-.06,1.46-.04,2.19.06l.03-.25c-.69.03-1.38.03-2.07.02-.16,0-.16.24,0,.25.78.06,1.57.11,2.35.22l.03-.25c-.59.02-1.19.05-1.78.07-.16,0-.16.25,0,.25.97,0,1.94-.08,2.91-.15.16-.01.16-.25,0-.25-.56,0-1.13.02-1.69.03-.16,0-.16.25,0,.25.44,0,.87,0,1.31,0,.16,0,.16-.25,0-.25-.47,0-.94-.04-1.4-.1v.25c.58-.03,1.16-.03,1.74-.02.17,0,.16-.23,0-.25-.6-.07-1.21-.13-1.81-.17v.25c.53,0,1.06.02,1.59.07v-.25c-.6.01-1.19-.06-1.78-.14l-.03.25c.59.03,1.18.05,1.78.08v-.25c-.56,0-1.11-.09-1.67-.18-.16-.03-.23.21-.07.24.42.07.84.12,1.27.17v-.25c-.73-.07-1.47-.15-2.2-.22-.14-.01-.17.22-.03.25.36.08.72.12,1.09.11.14,0,.18-.22.03-.25-.29-.05-.57-.1-.86-.17l-.03.25c.27.03.55.06.82.1.16.02.16-.23,0-.25-.27-.03-.55-.06-.82-.1-.14-.02-.17.21-.03.25.28.07.57.13.86.17l.03-.25c-.34,0-.68-.03-1.02-.1l-.03.25c.73.07,1.47.15,2.2.22.16.02.16-.23,0-.25-.4-.05-.8-.1-1.2-.16l-.07.24c.57.1,1.15.19,1.73.19.16,0,.16-.24,0-.25-.59-.03-1.18-.05-1.78-.08-.14,0-.17.23-.03.25.61.08,1.22.17,1.84.15.16,0,.16-.23,0-.25-.53-.05-1.06-.08-1.59-.07-.16,0-.16.24,0,.25.61.04,1.21.09,1.81.17v-.25c-.58,0-1.16,0-1.74.02-.16,0-.16.23,0,.25.47.06.93.09,1.4.1v-.25c-.44,0-.87,0-1.31,0v.25c.56,0,1.13-.02,1.69-.03v-.25c-.97.07-1.94.14-2.91.15v.25c.59-.02,1.19-.05,1.78-.07.13,0,.18-.23.03-.25-.8-.11-1.61-.17-2.42-.23v.25c.69,0,1.38,0,2.07-.02.13,0,.18-.23.03-.25-.75-.1-1.5-.13-2.26-.07-.16.01-.16.23,0,.25.68.08,1.36.09,2.04.08.14,0,.17-.21.03-.25-.38-.08-.76-.17-1.13-.25l-.03.25c.56.05,1.11.13,1.65.25l.03-.25c-.49,0-.97,0-1.46,0-.16,0-.16.23,0,.25.6.06,1.19.08,1.79.06.16,0,.16-.25,0-.25-.51,0-1.02,0-1.53,0-.16,0-.16.23,0,.25.33.04.67.06,1.01.07.16,0,.16-.25,0-.25h0Z"/>
    <path class="cls-5" d="M33.31,22.58c-.49-.13-.98-.29-1.49-.36-.16-.02-.22.18-.07.24.71.26,1.48.22,2.2.43l.03-.25c-.68,0-1.35.03-2.03.09-.32.03-.64.07-.96.09s-.69.08-1.02,0l-.07.24c.38.05.75.13,1.11.23v-.24c-.19.03-.38.04-.57.03v.25c.4-.01.79-.01,1.19,0v-.25c-.54.03-1.07.03-1.61.02v.25h1.82v-.24c-.53.07-1.07.09-1.61.07-.14,0-.17.21-.03.25.3.07.59.12.89.15v-.25c-.25,0-.5,0-.74-.03v.25c.29-.02.59-.03.88-.02.16,0,.16-.25,0-.25-.3,0-.59,0-.88.02-.16.01-.16.23,0,.25.25.03.49.04.74.03.16,0,.16-.23,0-.25-.28-.03-.55-.08-.83-.14l-.03.25c.54.02,1.07,0,1.61-.07.16-.02.17-.25,0-.25h-1.82c-.16-.01-.16.23,0,.24.54.01,1.07,0,1.61-.02.16,0,.16-.25,0-.25-.4,0-.79,0-1.19,0-.16,0-.16.24,0,.25.21,0,.42,0,.64-.04.13-.02.11-.21,0-.24-.37-.1-.74-.18-1.11-.23-.15-.02-.23.2-.07.24.31.07.62.04.93.02.35-.03.69-.06,1.04-.1.7-.07,1.4-.11,2.1-.1.14,0,.17-.21.03-.25-.72-.21-1.49-.17-2.2-.43l-.07.24c.5.07,1,.23,1.49.36.16.04.22-.2.07-.24h0Z"/>
    <path class="cls-5" d="M34.37,23.21c-.65-.04-1.3.02-1.95.03-.58.01-1.22-.12-1.78.07l.12.21c.2-.17.43-.29.68-.36.15-.04.09-.28-.07-.24-.18.05-.34.12-.5.21l.13.22c.38-.24.79-.4,1.22-.48.22-.04.44-.06.66-.06.2,0,.42.06.61,0,.11-.03.12-.17.03-.23-.2-.15-.43-.22-.68-.26-.13-.02-.25-.03-.38-.05-.14-.02-.36-.02-.46-.13l-.12.21c.33.07.66.12.99.16.15.02.16-.2.03-.25-.38-.14-.77-.2-1.17-.18-.16,0-.16.26,0,.25.38-.02.75.04,1.11.17l.03-.25c-.31-.03-.62-.08-.92-.15-.12-.03-.21.12-.12.21.17.18.47.18.7.21.31.04.61.08.86.26l.03-.23c-.11.04-.24,0-.36,0s-.23,0-.35,0c-.21,0-.42.03-.63.08-.43.09-.85.26-1.22.49-.14.09-.02.29.13.22s.29-.14.44-.18l-.07-.24c-.3.09-.56.23-.79.43-.09.08,0,.25.12.21.28-.1.56-.1.85-.08.31.02.62.02.93.01.63-.02,1.26-.07,1.88-.03.16.01.16-.24,0-.25h0Z"/>
    <path class="cls-5" d="M30.48,23.74c.43,0,.85-.05,1.28-.09.2-.02.4,0,.6.01.22,0,.44-.02.66-.05.16-.02.09-.26-.07-.24-.21.03-.43.05-.64.04-.2-.01-.4-.03-.6,0-.41.05-.82.09-1.23.09-.16,0-.16.25,0,.25h0Z"/>
    <path class="cls-5" d="M33.02,23.59c.34-.01.68-.03,1.02-.04.16,0,.33-.02.49-.03s.3-.03.45-.09.02-.28-.13-.22c-.13.06-.28.06-.42.07-.16,0-.32.02-.47.02-.32.02-.63.03-.95.04-.16,0-.16.26,0,.25h0Z"/>
    <path class="cls-5" d="M30.85,23.7c.71.1,1.43.05,2.12-.14.15-.04.09-.28-.07-.24-.65.18-1.32.23-1.99.14-.07,0-.13.02-.15.09-.02.06.02.14.09.15h0Z"/>
    <path class="cls-5" d="M31.11,23.47c-.29,0-.58.02-.87.06-.07,0-.12.05-.12.12,0,.06.06.13.12.12.29-.04.58-.06.87-.06.07,0,.12-.06.12-.12s-.06-.13-.12-.12h0Z"/>
    <path class="cls-5" d="M34.7,23.48c.72-.03,1.43-.1,2.15-.2.16-.02.09-.26-.07-.24-.69.1-1.38.16-2.08.19-.16,0-.16.26,0,.25h0Z"/>
    <path class="cls-5" d="M5.02,26.59c.16,0,.16-.25,0-.25s-.16.25,0,.25h0Z"/>
    <path class="cls-5" d="M5,26.12v.97c.09-.02.17-.04.24-.06-.08-.12-.16-.25-.2-.39-.03-.1-.03-.22.02-.32.1-.19.36-.16.5-.02l.15-.2c-.11-.06-.22-.12-.34-.18-.14-.08-.27.14-.13.22.11.06.22.12.34.18.12.07.26-.09.15-.2-.24-.23-.67-.26-.87.03-.23.32-.03.72.15,1.01.06.1.23.06.23-.06v-.97c-.01-.16-.26-.16-.26,0h0Z"/>
    <path class="cls-5" d="M5.3,26.59v-.51c-.06.04-.12.07-.18.11l.25.17s.1.02.14,0c.04-.03.05-.08.04-.13-.02-.12-.06-.23-.11-.33-.02-.05-.09-.07-.14-.06-.05.02-.09.06-.09.12,0,.05,0,.1,0,.15v.07s0,.02,0,.03v.02s0,.01.01-.03l.04-.04h0s.04,0,.06-.01h0s.04.01.06.02h.02s.02.05.03.07h0v.06h0s-.04.05-.06.07h0c.06-.03.08-.12.04-.17s-.11-.08-.17-.04c-.09.05-.08.18,0,.23s.2-.01.21-.11c0-.05,0-.1,0-.15s0-.1,0-.15l-.23.06s0,.01,0,.02c0,.01,0,.01,0,0,0-.01,0,.02,0,.02,0,.02.02.05.02.07.01.05.03.1.03.15l.18-.14-.25-.17c-.08-.06-.19.02-.19.11v.51c0,.07.05.13.12.12s.12-.05.12-.12h0Z"/>
    <path class="cls-5" d="M26.64,4.69c-.13-.02-.25.01-.37.06l.17.17s.02-.03.01-.02.01-.01.01-.02c.01-.01.02-.03.04-.04.03-.03.06-.06.09-.09.01-.01.03-.02.04-.04,0,0,.03-.03.02-.01s.01-.01.02-.01c.03-.02.07-.05.1-.07l-.15-.2c-.11.13-.22.25-.33.38-.04.05-.05.11,0,.16s.1.06.16.03c.18-.08.35-.18.51-.29l-.18-.07s.01.07.02.1c.01.06.09.11.15.09.07-.02.1-.08.09-.15,0-.03-.01-.07-.02-.1-.01-.08-.12-.12-.18-.07-.16.11-.33.21-.51.29l.15.2c.11-.13.22-.25.33-.38.04-.05.05-.11,0-.16s-.11-.06-.16-.03c-.17.1-.31.23-.42.38-.03.04-.02.12.02.15.04.04.1.04.15.02-.03.01.01,0,.02,0,0,0,.02,0,.03,0,.01,0,.03,0,.04,0,0,0,.04,0,.02,0s.02,0,.02,0c.01,0,.02,0,.04,0,.03,0,.05,0,.08,0,.07,0,.13-.06.12-.12,0-.07-.06-.12-.12-.12h0Z"/>
    <path class="cls-5" d="M2.93,5.86c.98.39,1.94.83,2.85,1.34.81.46,1.58,1.02,2.08,1.82.09.14.3.01.22-.13-.51-.81-1.28-1.4-2.1-1.87-.95-.55-1.96-1.01-2.98-1.41-.15-.06-.21.18-.07.24h0Z"/>
    <path class="cls-5" d="M2.51,6.58c.19.28.43.52.61.81s.32.6.45.91c.03.06.12.08.17.04.06-.04.07-.11.04-.17-.14-.31-.28-.62-.45-.91s-.42-.53-.61-.81c-.09-.13-.3,0-.22.13h0Z"/>
    <path class="cls-5" d="M3,7.22c.03.42.32.78.55,1.12.27.4.54.78.83,1.16.56.74,1.17,1.44,1.82,2.1.11.12.29-.06.18-.18-.61-.62-1.18-1.28-1.72-1.97-.26-.34-.52-.69-.76-1.05-.12-.17-.23-.34-.34-.52-.13-.21-.29-.42-.31-.67-.01-.16-.26-.16-.25,0h0Z"/>
    <path class="cls-1" d="M18.46,32.16l-.02.56c0,.08.02.17,0,.25l.2-.81c.02-.08-.02-.17,0-.25l-.15.54s-.04.16-.05.17c.04-.08.05-.17.08-.24v-.25c-.04.27-.13.51-.26.75v.25c.03-.37.15-.71.35-1.02v-.25c-.05.19-.1.39-.14.58-.01.07-.03.15-.04.22,0,.05-.02.1-.02.15-.01-.05-.01-.09,0-.14,0-.12.05-.26.03-.38.01.08,0,.18-.02.26,0,.05-.02.1-.03.14-.03-.03-.06-.06-.09-.09-.06-.06-.1-.14-.14-.21h0c-.02.35,0,.69.05,1.02v-.25l-.14-.22s0,.17,0,.21v.21c0-.07,0-.14,0-.21-.12-.62-.22-1.24-.28-1.86v.25l.57,1.27c-.03-.07.03-.18,0-.25l-.28-.71c.03.07-.03.18,0,.25l.37.99v-.25c-.18-.31-.34-.64-.48-.97.03.07-.02.18,0,.25l.16.6v-.25c-.15-.28-.24-.58-.29-.89v.25l.23.63c-.03-.07.02-.17,0-.25-.08-.23-.2-.45-.28-.68-.09-.26-.11-.54-.12-.82-.03-.55-.06-1.1-.09-1.65v.25c.09.14.19.28.29.41-.04-.05.04-.19,0-.25-.06-.08-.12-.17-.18-.25v.25c.08.07.15.14.22.22v-.25l-.16-.04s0,.23,0,.25c.02.13.07.24.14.36v-.25l-.18-.22s-.02.19,0,.25c.07.19.16.37.25.54v-.25c-.05-.06-.1-.12-.14-.19.03.05-.01.19,0,.25l.05.3v-.25c-.07-.08-.13-.15-.17-.25v.25c.23.47.37.97.42,1.5v-.25c-.27-.38-.3-.84-.32-1.29v.25c.07.51.14,1.02.21,1.53-.01-.08.01-.17,0-.25l-.21-1.53c.01.08,0,.17,0,.25.02.45.05.92.32,1.29-.03-.04,0-.2,0-.25-.04-.52-.19-1.03-.42-1.5.03.07-.03.18,0,.25.04.1.1.18.17.25-.03-.03,0-.2,0-.25l-.05-.3v.25c.04.07.09.13.14.19-.04-.04.03-.19,0-.25-.1-.17-.18-.35-.25-.54v.25l.18.22s.03-.19,0-.25c-.07-.11-.11-.23-.14-.36v.25l.16.04s.02-.23,0-.25c-.07-.08-.14-.15-.22-.22.04.03-.03.21,0,.25.06.08.12.17.18.25v-.25c-.1-.13-.2-.27-.29-.41.03.04,0,.19,0,.25.03.58.06,1.15.09,1.73.01.24.03.49.11.72s.21.47.29.71v-.25l-.23-.63c.03.07-.01.17,0,.25.05.31.15.61.29.89-.03-.06.02-.18,0-.25l-.16-.6v.25c.14.33.3.66.48.97-.03-.06.03-.18,0-.25l-.37-.99v.25l.28.71v-.25l-.57-1.27c.03.06,0,.18,0,.25.07.63.16,1.25.28,1.86-.01-.06,0-.15,0-.21v-.21c0,.07,0,.14,0,.21l.14.22c-.03-.05.01-.19,0-.25-.02-.1-.03-.2-.04-.31v-.15s.05,0,.06.05c.04.04.07.12.12.15.04.07.07.06.06-.03.01-.05.02-.1.03-.14.02-.17.02-.34.02-.51,0-.04,0-.07,0-.11-.01-.17-.01-.02-.02.04-.01.14-.02.28-.02.42,0,.18,0,.36,0,.55h0c.05-.34.12-.68.21-1.02.02-.06-.03-.2,0-.25-.2.31-.32.65-.35,1.02,0,.06.03.2,0,.25.13-.24.22-.48.26-.75.01-.07-.03-.19,0-.25-.09.19-.1.38-.1.59,0,.03,0,.07,0,.1.02.13.03-.02.05-.08l.16-.57v-.25l-.2.81v.25c0-.19.01-.37.02-.56,0-.08,0-.18,0-.24h0Z"/>
    <path class="cls-1" d="M37.03,22.02c-.37.03-.7-.21-1.05-.29-.41-.09-.83-.15-1.25-.23v.25c.87-.1,1.75.11,2.47.6v-.25c-.22.08-.43-.03-.64-.1-.22-.08-.45-.13-.68-.17-.47-.07-.94-.07-1.42-.06,0,0,0,.25,0,.25.3.04.59.1.88.18v-.25l-.25.05s0,.25,0,.25c.89.06,1.77.15,2.65.26,0,0,.01-.25,0-.25-.88-.12-1.77-.2-2.65-.26v.25l.25-.05s0-.25,0-.25c-.29-.08-.58-.14-.88-.18v.25c.47,0,.95,0,1.42.06.23.03.46.09.68.17.21.08.42.19.64.1,0,0,.01-.24,0-.25-.72-.49-1.6-.7-2.47-.6,0,0,0,.25,0,.25.42.07.84.13,1.25.23.35.08.68.33,1.05.29,0,0,0-.25,0-.25h0Z"/>
    <path class="cls-1" d="M35.19,21.49l-.13-.05v.25c.2.04.41.07.62.09,0,0,0-.25,0-.25-.21-.01-.41-.04-.62-.09,0,0,0,.12,0,.12,0,.03,0,.06,0,.09,0,0,0,.04,0,.04l.13.05s0-.11,0-.12c0-.03,0-.06,0-.09,0,0,0-.04,0-.04h0Z"/>
    <path class="cls-1" d="M37.75,22.27c-.31-.22-.63-.4-1-.5s-.74-.13-1.11-.16c0,0,0,.25,0,.25.37.03.74.07,1.11.16s.69.27,1,.5c0,0,0-.11,0-.12,0-.02.01-.12,0-.12h0Z"/>
    <path class="cls-1" d="M26.45,5.73s.06.08.08.14c.01.07.01.03,0-.13,0,.02,0,.03,0,.05,0,.02-.01.05-.02.07-.05.13-.16.24-.23.35-.16.24-.27.51-.39.78-.01.03,0,.09,0,.12,0,.02.02.11,0,.12.26-.32.37-.74.63-1.05v-.25c-.11.22-.23.44-.34.65-.06.11-.11.21-.17.32-.05.09-.09.18-.17.25v.25c.02-.09.01-.19,0-.28s-.07-.15-.15-.14v.25c.03-.14.12-.28.18-.41s.13-.27.2-.4.13-.27.2-.4c.04-.07.07-.14.11-.21.02-.05.04-.1.1-.12v-.25c-.02.21-.08.4-.18.59v.25c.05-.12.11-.24.2-.35v-.25c-.09.34-.35.58-.53.87-.01.02,0,.1,0,.12s.02.1,0,.12c.16-.27.31-.55.44-.83v-.25c-.09.24-.19.47-.29.7-.09.19-.17.42-.34.55v.25c.06-.18.14-.35.23-.51.04-.08.09-.16.14-.23.03-.04.05-.08.08-.11,0,0,.03-.05.04-.05,0,.02,0,.03.01.05,0,.05,0,.02,0-.08,0,.02,0,.25,0,.25.1,0,.15-.1.18-.18.04-.1.1-.21.11-.32,0-.06,0-.11,0-.17,0-.04,0-.08,0-.12-.01-.03-.05-.06-.08-.06-.02,0-.04.02-.05.02-.02,0-.03-.02-.03-.05v.25s0-.02.01-.03c.02-.03.02-.02.03,0s0,.06,0,.08c0,.05,0,.04,0-.03,0-.08,0-.08,0,0-.01.09-.03.19-.06.28-.03.08.03.18,0,.25.05-.14.07-.28.07-.42,0-.08,0-.15,0-.23,0-.04.01-.15-.01-.18,0-.02,0-.02-.02,0,0,0-.01.02-.02.03,0,.02,0,.04,0,.05,0,.07,0,.14,0,.2,0,.01,0,.03,0,.04.02.04.02.01.05,0,.07-.03.12.05.12.11v-.25c-.01.11-.07.23-.12.34-.03.07-.08.16-.17.15v.25c.01-.11,0-.22,0-.33,0-.03,0-.05,0-.08v-.03s-.02-.04-.03,0c-.05.04-.08.11-.11.16-.15.23-.27.47-.36.72-.01.03,0,.09,0,.12,0,.02.01.12,0,.12.18-.13.26-.36.34-.55.1-.23.2-.47.29-.7.01-.03,0-.09,0-.12,0-.03-.01-.1,0-.12-.13.29-.28.56-.44.83v.25c.17-.29.44-.53.53-.87,0-.04,0-.09,0-.12,0-.02-.02-.11,0-.12-.08.11-.15.22-.2.35-.01.03,0,.09,0,.12,0,.03.02.1,0,.12.1-.18.16-.38.18-.59,0-.03-.02-.24,0-.25-.05.02-.07.07-.1.12-.04.07-.07.14-.11.21-.07.13-.13.27-.2.4s-.13.27-.2.4-.15.27-.18.41c0,.02,0,.25,0,.25.08,0,.14.05.15.13v-.04s0,.01,0,.02v-.21s0,.01,0,.02c0,.04,0,.09,0,.12,0,.02.01.11,0,.12.08-.07.12-.16.17-.25.06-.11.11-.21.17-.32.11-.22.23-.44.34-.65.01-.03,0-.09,0-.12,0-.02-.02-.11,0-.12-.27.32-.37.73-.63,1.05v.25c.07-.17.14-.34.22-.5s.18-.31.29-.46c.09-.12.14-.24.14-.39,0-.14.02-.3-.09-.41.01.01,0,.11,0,.12,0,.02-.01.11,0,.12h0Z"/>
    <polygon class="cls-1" points="14.9 26.59 14.9 26.34 14.9 26.59 14.9 26.59"/>
    <path class="cls-1" d="M14.9,26.59c.12.06.25.09.39.11v-.25s-.09,0-.13-.04c0,0,0,.04,0,.04,0,.03,0,.06,0,.09s0,.06,0,.09c0,0,0,.03,0,.04.04.03.09.04.13.04,0,0,0-.25,0-.25-.13-.02-.27-.05-.39-.11,0,0,0,.04,0,.04,0,.03,0,.06,0,.09s0,.06,0,.09c0,0,0,.04,0,.04h0Z"/>
    <path class="cls-1" d="M15.08,26.65c.4.07.77.25,1.14.42h0c0-.12.04-.3-.06-.37-.09-.06-.22-.08-.32-.12-.14-.05-.27-.1-.42-.12,0,0-.01.25,0,.25.39.05.74.22,1.1.37s.73.3,1.1.43v-.25c-.12-.04-.24-.08-.35-.14v.25c.18.05.36.1.54.16.06.02.12.04.16.09.05.06.05.16.07.23-.03-.07.03-.17,0-.25-.02-.07-.02-.16-.06-.22s-.11-.08-.18-.1c-.18-.06-.36-.11-.54-.16.02,0-.03.24,0,.25.11.06.23.1.35.14-.02,0,.03-.24,0-.25-.37-.13-.74-.27-1.1-.43s-.71-.32-1.1-.37v.25c.16.02.32.08.47.13.11.04.29.06.34.18v-.25s-.26-.09-.29-.11c-.09-.04-.18-.08-.27-.12-.19-.08-.38-.13-.58-.17.01,0-.02.25,0,.25h0Z"/>
    <path class="cls-1" d="M17.81,27.52c-.18,0-.34-.07-.5-.13s-.31-.13-.46-.21-.28-.17-.42-.23-.32-.12-.47-.13c0,0,0,.25,0,.25.16,0,.33.07.47.13s.28.15.42.23.3.14.46.21.32.14.5.13c0,0,0-.25,0-.25h0Z"/>
    <path class="cls-1" d="M14.88,26.6s.02,0,.03,0c0,0,0-.04,0-.04,0-.03,0-.06,0-.09s0-.06,0-.09c0,0,0-.04,0-.04-.01,0-.02,0-.03,0,0,0,0,.12,0,.12,0,.03,0,.06,0,.09,0,0,0,.04,0,.04h0Z"/>
    <polygon class="cls-1" points="14.88 26.58 14.88 26.33 14.88 26.58 14.88 26.58"/>
    <polygon class="cls-1" points="14.88 26.58 14.88 26.33 14.88 26.58 14.88 26.58"/>
    <path class="cls-1" d="M14.88,26.59s.01,0,.02,0c0,0,0-.04,0-.04,0-.03,0-.06,0-.09s0-.06,0-.09c0,0,0-.04,0-.04,0,0-.02,0-.02-.01v.25s.05.02.07.04c0,0,0-.04,0-.04,0-.03,0-.06,0-.09s0-.06,0-.09v-.02s0-.01,0-.02c-.02-.01-.04-.03-.07-.04,0,0,0,.04,0,.04,0,.03,0,.06,0,.09s0,.06,0,.09v.02s0,.01,0,.02c0,0,0,.01.02.01v-.25s-.01,0-.02,0c0,0,0,.12,0,.12s0,.12,0,.12h0Z"/>
    <path class="cls-1" d="M15.02,26.64s.03.01.04.02v-.25l-.05-.02s0,.11,0,.12c0,.01-.01.12,0,.12.18.1.38.17.57.24.09.03.17.08.26.12.08.03.18.05.19.15v-.25c-.15-.07-.3-.14-.44-.21-.07-.03-.14-.07-.21-.11s-.13-.09-.2-.12c0,0,0,.11,0,.12,0,.03,0,.06,0,.09,0,0,0,.03,0,.04.04.07.12.09.19.13.09.05.18.1.28.14.09.04.18.07.27.09.09.02.17.05.25.1,0,0,0-.11,0-.12,0-.02.01-.12,0-.12-.07-.05-.15-.08-.24-.1-.1-.03-.19-.05-.28-.09s-.18-.08-.27-.14c-.07-.04-.16-.06-.2-.13v.25c.07.03.13.08.19.12.07.04.15.08.22.11.15.07.3.14.44.21,0,0,0-.11,0-.12,0-.04,0-.08,0-.12,0-.1-.11-.12-.19-.15-.09-.04-.17-.08-.26-.12-.2-.07-.39-.13-.57-.24v.25l.05.02s0-.11,0-.12c0-.01.01-.12,0-.12-.01,0-.03-.01-.04-.02,0,0,0,.11,0,.12,0,.01,0,.12,0,.12h0Z"/>
    <path class="cls-1" d="M16.03,27.14c.25.08.49.17.72.29s.46.2.66.36c-.01,0,0-.11,0-.12,0-.02.01-.11,0-.12-.19-.16-.43-.26-.66-.36s-.47-.21-.72-.29c0,0,0,.11,0,.12,0,.01,0,.12,0,.12h0Z"/>
    <path class="cls-1" d="M16.73,27.17c-.19-.09-.39-.2-.6-.26,0,0,0,.12,0,.12,0,.01-.01.12,0,.12.12.06.23.12.35.17.05.02.1.05.16.08.06.03.12.05.19.07.25.09.45.24.64.42-.01-.01,0-.11,0-.12,0-.03,0-.06,0-.09,0,0,0-.03,0-.04-.19-.18-.39-.33-.64-.42-.06-.02-.12-.04-.18-.07-.05-.02-.1-.06-.16-.08-.06-.02-.12-.04-.18-.07-.06-.03-.12-.07-.18-.1v.25c.21.05.41.17.6.26,0,0,0-.11,0-.12,0-.01,0-.12,0-.12h0Z"/>
    <polygon class="cls-1" points="18.06 27.98 18.06 27.73 18.06 27.98 18.06 27.98"/>
    <path class="cls-1" d="M18.06,27.73s-.04,0-.05,0v.25s.01-.01.02-.02c0,0,0-.01,0-.02,0-.04,0-.07,0-.11,0-.05,0-.09,0-.14,0,0,0-.01,0-.02,0-.01,0-.03,0-.04h0s0,0,0,0v.25s.03.04.04.07h0s0-.09,0-.13,0-.08,0-.12c0-.02,0-.03-.01-.05s0-.03-.01-.04,0-.03-.01-.04v.25s0,0,.01,0c0,0,0,0,0-.01,0,0,0-.02,0-.03,0-.03,0-.06,0-.09s0-.06,0-.09v-.02s0-.01,0-.02c0,0,0,0-.01,0,0,0,0,.04,0,.04,0,.03,0,.06,0,.09s0,.06,0,.09v.02s0,.01,0,.02c.01.02.01.04.02.06s.02.04.02.06h0s0,0,0,0v-.18s0-.03,0-.05h0s-.02-.06-.04-.07c0,0,0,.04,0,.04,0,.02,0,.05,0,.07,0,.05,0,.09,0,.14,0,.01,0,.02,0,.04s0,.02,0,.03h0s0,0,0,0v-.24h0s0,0,0,0c0,0,0,.01-.01.02,0,0-.01,0-.01.01,0,.04,0,.08,0,.12,0,.03,0,.06,0,.09,0,0,0,.04,0,.04.02,0,.04,0,.05,0,0,0,0-.12,0-.12s0-.12,0-.12h0Z"/>
    <path class="cls-1" d="M18.05,27.59s-.02-.12-.06-.13c-.02,0-.04,0-.06,0-.03,0-.05-.03-.07-.04-.1-.04-.21-.07-.31-.03,0,0,0,.11,0,.12,0,.03,0,.06,0,.09,0,0,0,.03,0,.04.09.06.19.11.28.17.04.02.07.04.1.08,0,.02.02.04.04.05.02,0,.05,0,.05.02v-.25s-.08.05-.11.06c-.05.01-.1.03-.15.03-.08,0-.21-.02-.22-.12v.25c0-.07.11-.08.16-.08.06,0,.13.04.15.1v-.25s-.09.02-.11.01c-.04,0-.09,0-.13-.01s-.08-.02-.12-.03c-.02,0-.04-.01-.06-.02-.02,0-.03-.01-.05,0,0,0,0,.04,0,.04,0,.03,0,.06,0,.09s0,.06,0,.09c0,0,0,.04,0,.04.03-.01.08.01.11.02.05.01.09.02.14.03.04,0,.09.01.13.01.02,0,.04,0,.07,0,.02,0,.02,0,.03-.02,0-.01,0-.04,0-.06,0-.02,0-.04,0-.06,0-.04,0-.08,0-.12,0-.03-.04-.06-.07-.08-.06-.04-.15-.04-.21,0-.03.02-.03.05-.03.09,0,.05,0,.1,0,.15,0,.03,0,.06,0,.08.03.08.13.1.2.1.04,0,.08,0,.12-.02s.08-.02.12-.04c.01,0,.03-.02.03-.03,0-.03,0-.07,0-.09,0-.05,0-.09,0-.14,0-.02,0-.03-.02-.03s-.03,0-.05-.02-.02-.04-.03-.06c-.02-.03-.07-.05-.1-.07l-.27-.16v.25c.1-.04.22,0,.31.03.02,0,.05.02.07.03.02,0,.04,0,.06,0,.05.01.06.09.06.13,0,0,0-.03,0-.04,0-.03,0-.06,0-.09,0-.04,0-.09,0-.12h0Z"/>
    <path class="cls-1" d="M17.37,27.65c-.07-.02-.08-.08-.12-.13-.04-.06-.11-.11-.17-.16,0,0,0,.04,0,.04,0,.03,0,.06,0,.09s0,.06,0,.09c0,0,0,.03,0,.04.06.05.11.11.16.17s.08.13.12.19c.02.03.05.05.08.07s.05.05.08.07.06.03.09.04c.03.02.06.04.09.06s.07.03.1.04c.03.01.06.04.09.04.04,0,.08-.03.12-.05s.03-.03.03-.07c0-.06,0-.13,0-.19,0-.04-.03-.04-.06-.04-.08,0-.16.03-.23.07-.01,0,0,.11,0,.12,0,.03,0,.06,0,.09,0,0,0,.04,0,.04.05-.03.1-.05.16-.06.04,0,.12-.03.13.01v-.25s-.04.02-.06.03c-.03.01-.06.03-.09.03-.03,0-.04,0-.06-.02s-.05-.02-.07-.03c-.05-.02-.08-.05-.13-.07s-.1-.04-.14-.07-.08-.06-.12-.1-.06-.08-.09-.12c-.06-.1-.14-.18-.22-.26v.25c.06.05.12.1.17.16.03.05.05.11.12.13,0,0,0-.12,0-.12,0-.01,0-.12,0-.12h0Z"/>
    <path class="cls-1" d="M17.32,27.91c.06.12.14.24.22.35,0,0,0-.04,0-.04,0-.03,0-.06,0-.09s0-.06,0-.09c0,0,0-.03,0-.04-.09-.11-.16-.23-.22-.35,0,0,0,.04,0,.04,0,.03,0,.06,0,.09s0,.06,0,.09c0,0,0,.03,0,.04h0Z"/>
    <path class="cls-1" d="M17.32,27.89l.13.25s.03.08.06.1c.03.02.08.03.11.05.07.04.12.09.19.12.04.02.09.03.13.04s.08,0,.12-.03c0,0,0-.04,0-.04,0-.03,0-.06,0-.09s0-.06,0-.09c0,0,0-.04,0-.04-.04.02-.08.04-.12.03-.04,0-.09-.02-.13-.04-.04-.01-.06-.03-.09-.05-.03-.03-.07-.05-.1-.07-.03-.02-.07-.03-.11-.05s-.05-.07-.06-.1l-.13-.26s0,.04,0,.04c0,.03,0,.06,0,.09s0,.06,0,.09c0,0,0,.03,0,.04h0Z"/>
    <path class="cls-1" d="M18.06,28.43s0,.02,0,.04h0s0,.03,0,.04c0,0,0,0,0,.01,0,0,0,0,0,0h0s0-.06,0-.09c0-.08,0-.11,0-.08,0,0,0,0,0,0v-.02s0-.02,0-.03h0c0,.22,0,.3,0,.22,0,0,0,0,0,0,0-.01,0-.03,0-.04,0-.06,0-.12,0-.18,0-.03,0-.06,0-.09,0-.02,0-.05,0-.07,0-.01,0-.06-.03-.05,0,0,0,.04,0,.04,0,.03,0,.06,0,.09s0,.06,0,.09c0,0,0,.04,0,.04.03-.01.03.05.03.06,0,.03,0,.06,0,.09h0c0,.1,0-.3,0-.19,0,.04,0,.09,0,.13s0,.09,0,.13c0,.01,0,.02,0,.03,0,0,0-.01,0-.02,0-.1,0-.19,0-.29,0-.04,0-.07,0-.11,0,.01,0,.03,0,.04,0,.03,0,.06,0,.09,0,.04,0,.08,0,.12h0Z"/>
    <path class="cls-1" d="M18.06,28.4c0-.06,0-.13,0-.19,0-.07,0-.14,0-.2,0,0,0-.02,0-.03,0-.01-.02,0-.02-.01v.25h0s0-.09,0-.13c0-.03,0-.06,0-.09,0,0,0-.03,0-.04-.03.03-.07.07-.11.09-.04.02-.08.03-.12.05s-.06.07-.08.11c-.02.05-.04.09-.06.14-.05.14-.04.28-.03.42,0,.01,0,.05.01.05.02.01.04-.01.05-.02.03-.03.05-.06.08-.08v-.02s0,.03,0,.05c0,0,0,.03,0,.03.01.01.06-.03.06-.04.04-.04.08-.1.09-.15,0-.07,0-.15,0-.22,0-.01,0-.02-.01-.02,0,0-.03,0-.04,0-.06.02-.12.07-.16.11,0,0,0,.04,0,.04,0,.03,0,.06,0,.09,0,0,0,.12,0,.12l.2-.04v-.25h0s0,.04,0,.05c0,.03,0,.06,0,.09s0,.06,0,.09c0,0,0,.04,0,.04.05-.02.1-.04.15-.05v-.25l-.04.04s0,.04,0,.04c0,.03,0,.06,0,.09s0,.06,0,.09c0,0,0,.04,0,.04.02,0,.03.02.05.03,0,0,0-.04,0-.04,0-.03,0-.06,0-.09s0-.06,0-.09c0,0,0-.03,0-.04-.01-.01-.03-.02-.05-.03v.25l.04-.04s0-.04,0-.04c0-.03,0-.06,0-.09,0,0,0-.12,0-.12-.05.01-.11.03-.15.05v.25h0s0-.04,0-.05c0-.03,0-.06,0-.09,0,0,0-.12,0-.12l-.2.04v.25s.07-.06.11-.08c.02,0,.09-.05.1-.02v-.25s-.04.08-.06.11c0,0-.08.08-.08.06v.02s0-.04,0-.06c0,0,0-.01,0-.02-.03.02-.05.04-.07.07-.01.02-.06.07-.07.03,0-.05,0-.02,0,.08,0,.1,0,.13,0,.08,0-.01,0-.02,0-.03,0-.02,0-.04.01-.06.01-.04.03-.08.05-.12.02-.04.03-.07.05-.11,0-.02.02-.03.03-.04s.04-.01.05-.02c.07-.03.14-.07.19-.13v-.25c0,.07,0,.14,0,.21,0,.01,0,.04,0,.05,0,0,.01,0,.02,0,0,0,0,.01,0,.02v-.06c0-.17,0-.22,0-.15v.02s0,.02,0,.03v.08c0,.05,0,.1,0,.15,0,.02,0,.05,0,.07,0,0,0,.02,0,.01h0Z"/>
    <path class="cls-1" d="M18.09,28.6s0-.04,0-.07c0-.1,0,.21,0,.13,0-.05,0-.1,0-.16,0-.05.01-.12-.05-.14-.06-.01-.12.02-.18.03-.06,0-.13-.02-.18-.05-.05-.02-.1-.05-.13-.09-.04-.05-.08-.11-.1-.18-.05-.13-.08-.27-.11-.4,0,0,0,.03,0,.04,0,.03,0,.06,0,.09,0,.04,0,.09,0,.12.04.14.07.28.12.41.02.06.06.12.09.17s.09.08.15.1.12.05.19.04c.05,0,.12-.04.17-.02.01,0,.02.01.03.02.02.04.02.01,0-.08,0-.1,0-.13,0-.08,0,.05,0,.11,0,.16,0,.07,0,.14.01.22-.01-.08.01-.17,0-.25h0Z"/>
    <path class="cls-1" d="M17.55,28.47c.06,0,.11.03.16.07,0,0,0-.04,0-.04,0-.03,0-.06,0-.09s0-.06,0-.09v-.02s0-.01,0-.02c-.05-.03-.1-.06-.16-.07,0,0,0,.12,0,.12s0,.12,0,.12h0Z"/>
    <path class="cls-1" d="M18.09,28.74s-.02,0-.03,0v.25h0s0-.04,0-.04c0-.03,0-.06,0-.09s0-.06,0-.09v-.02s0-.01,0-.02h0s0,.04,0,.04c0,.03,0,.06,0,.09s0,.06,0,.09c0,0,0,.04,0,.04,0,0,.02,0,.03,0,0,0,0-.12,0-.12,0-.03,0-.06,0-.09,0,0,0-.04,0-.04h0Z"/>
    <path class="cls-1" d="M18.1,28.75s0-.05-.02-.08c0-.02-.02-.02-.04-.02-.03,0-.05,0-.08,0-.01,0-.07.01-.07,0v.25s.05-.03.06-.03c.03,0,.05,0,.08,0v-.25c-.08,0-.16-.01-.23.01-.07.02-.12.07-.17.12,0,0,0,.04,0,.04,0,.03,0,.06,0,.09,0,0,0,.12,0,.12.05,0,.09,0,.14,0,.02,0,.11,0,.11.04v-.25s-.05.03-.07.04c-.03.01-.06.03-.09.04,0,0,0,.04,0,.04,0,.03,0,.06,0,.09,0,0,0,.13,0,.12.08,0,.16,0,.25,0v-.25s-.05.02-.05.05c0,0,0,.03,0,.04,0,.03,0,.06,0,.09s0,.06,0,.09c0,0,0,.04,0,.04.02,0,.04,0,.06,0s.04-.02.06-.01c.03,0,.07.04.08.08h0c0-.09,0-.17,0-.25,0-.04,0-.08-.01-.11-.04-.08-.14-.07-.21-.06-.02,0-.04,0-.05,0-.01,0-.03-.03-.04-.04-.03-.03-.06-.05-.09-.07s-.07-.04-.1-.07c-.04-.03-.05-.05-.05-.1v.21s0,.02,0,0c0,0,.01,0,.02,0,.01,0,.02,0,.03,0,.02,0,.05.01.07.02v-.25s-.06-.01-.09-.03c-.03-.01-.06-.02-.09-.04,0,0,0,.04,0,.04,0,.03,0,.06,0,.09s0,.06,0,.09c0,0,0,.04,0,.04.03.01.06.02.09.04.03.01.06.03.09.03,0,0,0-.12,0-.12,0-.03,0-.06,0-.09,0,0,0-.04,0-.04-.02,0-.04-.02-.06-.02-.01,0-.02,0-.03,0,0,0-.01,0-.02,0-.01,0-.01,0-.02.01,0,.02,0,.05,0,.07,0,.06,0,.12,0,.19,0,.04,0,.08.03.11s.07.05.11.08.07.05.1.08c.01.01.03.04.04.04.02,0,.05,0,.07,0,.08,0,.19,0,.21.09,0,0,0,0,0,.01,0,.04,0,0,0-.09,0-.1,0-.13,0-.09,0,.01,0,0,0,0,0,0,0-.01,0-.02-.01-.02-.03-.03-.05-.04-.02-.01-.04,0-.07,0-.03,0-.05,0-.08,0v.25s.03-.04.05-.05c0,0,0-.04,0-.04,0-.03,0-.06,0-.09,0,0,0-.13,0-.12-.08,0-.16,0-.25,0v.25s.05-.02.08-.03c.02-.01.05-.02.07-.03.02-.02.02-.05.02-.08,0-.06,0-.12,0-.18,0-.02,0-.03-.02-.04-.02-.01-.05-.01-.07-.02-.05,0-.1,0-.16,0v.25c.05-.05.1-.09.17-.12.08-.03.15,0,.23-.01,0,0,0-.12,0-.12,0-.03,0-.06,0-.09,0,0,0-.04,0-.04-.02,0-.05,0-.07,0-.02,0-.06.01-.06.03,0,0,0,0,0,.02,0,.03,0,.06,0,.09,0,.03,0,.06,0,.1,0,.01,0,.05,0,.06,0,.01.01,0,.03,0,.01,0,.02,0,.04,0,.03,0,.05,0,.08,0,.02,0,.04,0,.05.02s.01.05.02.08c0,0,0-.03,0-.04,0-.03,0-.06,0-.09s0-.06,0-.09c0-.01,0-.03,0-.04h0Z"/>
    <path class="cls-1" d="M17.5,28.74s0-.03,0-.04c0-.06,0-.13,0-.19,0-.03,0-.06,0-.1,0-.04-.02-.08-.04-.12,0,0,0,0,0,.01,0,0,0,.02,0,.03,0,.03,0,.06,0,.09s0,.06,0,.09v.02s0,.01,0,.02c.02.05.04.1.04.15h0s0,0,0,0c0,.04,0,0,0-.11,0-.11,0-.15,0-.11,0,0,0,0,0,0h0s0,0,0,0c0,.01,0,.02,0,.04,0,.03,0,.06,0,.09s0,.06,0,.09c0,.01,0,.03,0,.04h0Z"/>
    <path class="cls-1" d="M17.42,28.29c.02.07.01.14.03.21.02.06.07.12.08.18v-.25s0,.05-.02.04c0,0,0-.03,0-.04,0-.04-.02-.07-.03-.1h0s0,.04,0,0v.25c.02.08.04.16.06.24.03.08.07.16.12.24.04.07.08.13.14.17s.13.08.21.1c0,0,0-.11,0-.12,0-.01,0-.12,0-.12-.07-.02-.14-.06-.2-.1-.07-.05-.11-.11-.15-.18s-.08-.15-.11-.23-.05-.17-.07-.25c0,.04,0,.09,0,.12,0,.04,0,.09,0,.12v.04s0,0,0,0c0,0,0-.03,0-.03,0,0,.02.02.02.03.01.03.02.06.02.09h0s.02-.12.02-.13c0-.06.01-.14-.01-.2-.03-.05-.06-.1-.07-.15-.01-.06,0-.13-.03-.19,0,0,0,.03,0,.04,0,.03,0,.06,0,.09s0,.06,0,.09c0,.01,0,.03,0,.04h0Z"/>
    <path class="cls-1" d="M18.12,29.21c-.08-.03-.17-.05-.26-.05v.25c.07,0,.14,0,.21,0,0,0,0-.23,0-.25,0-.03-.01-.05-.03-.07v.25s.03.01.04.02v-.25c-.14-.02-.27-.03-.41-.03,0,0,0,.23,0,.25.04.07.09.13.16.17,0,0,0-.04,0-.04,0-.03,0-.06,0-.09s0-.06,0-.09c0,0,0-.03,0-.04-.05-.06-.11-.12-.15-.18v.25c.07.01.14.05.18.11v-.25c-.05-.02-.1-.04-.14-.08v.25s.09.06.12.1v-.25c-.06-.02-.11-.09-.15-.14s-.08-.11-.11-.16c-.07-.13-.09-.27-.11-.41,0,.04,0,.09,0,.12s0,.08,0,.12c.02.14.04.28.11.41.03.06.07.11.11.16s.09.12.15.14c0,0,0-.11,0-.12,0-.03,0-.06,0-.09,0,0,0-.03,0-.04-.03-.04-.07-.07-.12-.1,0,0,0,.11,0,.12,0,.03,0,.06,0,.09,0,0,0,.03,0,.04.04.04.09.07.14.08,0,0,0-.11,0-.12,0-.03,0-.06,0-.09,0,0,0-.03,0-.04-.05-.06-.11-.1-.18-.11,0,0,0,.12,0,.12,0,.03,0,.06,0,.09,0,0,0,.03,0,.04.04.07.09.13.15.18v-.25c-.07-.04-.12-.1-.16-.17v.25c.14,0,.27,0,.41.03,0,0,0-.12,0-.12,0-.01,0-.12,0-.12-.01,0-.03,0-.04-.02,0,0,0,.04,0,.04,0,.03,0,.06,0,.09s0,.06,0,.09c0,0,0,.03,0,.04.02.02.03.05.03.07v-.25c-.07,0-.14,0-.21,0,0,0,0,.25,0,.25.09,0,.17.02.26.05,0,0,0-.11,0-.12,0-.01,0-.12,0-.12h0Z"/>
    <path class="cls-1" d="M17.51,29.06c.01.09.04.18.06.27.01.04.03.08.05.12.02.03.06.05.08.08.03.03.05.06.08.09.01.02.02.04.03.05.01.02.02.04.04.04.04,0,.09,0,.14,0,.04,0,.08,0,.11-.04.02-.03.03-.07.03-.11,0-.07,0-.15,0-.22,0-.05,0-.11,0-.16,0-.02,0-.04-.02-.05-.02-.01-.05,0-.07,0-.07,0-.14.05-.16.12-.02.04-.01.09-.01.13,0,.06,0,.11,0,.17,0,.02,0,.04,0,.06.02.04.08.03.12.03.01,0,.02,0,.04,0,.01,0,.03,0,.04.01.03,0,.02-.03.02-.05,0-.06,0-.12,0-.18,0-.03,0-.05-.03-.06-.04-.02-.09-.02-.13-.02,0,0,0,.25,0,.25.04,0,.14,0,.16.04v-.25s-.04,0-.06,0c-.03,0-.05,0-.08,0-.05,0-.09-.01-.09-.07v.23s0,0,0,0v.02c0-.1.08-.18.19-.18.02,0,.05,0,.07.01,0,0,0,.02.01.04,0,0,0,.01,0,.02,0,0,0,.01,0,.02,0,.04,0,.01,0-.09v-.1s0,.02,0,.03c0,0,0,.01,0,.02,0,.01,0,.03,0,.04,0,.02-.01.05-.03.07-.03.04-.09.04-.14.04-.03,0-.06,0-.09,0-.03,0-.04-.02-.05-.05-.03-.04-.06-.09-.09-.12-.03-.03-.08-.06-.1-.1-.05-.12-.09-.25-.11-.38,0,.01,0,.03,0,.04,0,.03,0,.06,0,.09,0,.04,0,.08,0,.12h0Z"/>
    <path class="cls-1" d="M18.13,30.05l-.19-.02s-.06,0-.09-.01c-.02,0-.07,0-.07-.03v.25s.09-.06.12-.07c.05-.02.11-.03.16-.04,0,0,0-.12,0-.12,0-.03,0-.06,0-.09,0,0,0-.03,0-.04-.03-.02-.06-.04-.09-.07v.25c.06,0,.12,0,.17.02v-.25s-.12.02-.13-.02v.25s.04-.03.05-.04c.03-.01.05-.03.08-.04,0,0,0-.04,0-.04,0-.03,0-.06,0-.09s0-.06,0-.09c0,0,0-.04,0-.04-.03-.01-.05-.02-.07-.04v.25c.03-.06.06-.12.07-.18s0-.14,0-.2c0-.02,0-.03,0-.05,0,0,0-.02,0-.03,0-.02,0-.02-.01,0,0,0,0,.04,0,.04,0,.03,0,.06,0,.09,0,.04,0,.09,0,.12.04.19.04.38.05.57,0,0,0,0,0,0,0-.09,0-.19,0-.28,0-.02,0-.05,0-.07,0-.01,0-.03,0-.04,0-.09,0-.03,0,.17,0,0,0-.02,0-.02,0,0,0-.03,0-.04,0-.03,0-.06,0-.09,0,0,0-.12,0-.12-.02,0-.05.01-.05.04,0,.02,0,.04,0,.06,0,.04,0,.07,0,.11,0,.03,0,.07,0,.1.01.03.03.05.04.08v-.25s-.03.06-.06.04c-.03-.02-.04-.06-.05-.09,0-.04-.01-.07-.01-.11,0-.08,0,.19,0,.16,0-.01,0-.03,0-.04,0-.02,0-.04.01-.06,0-.02.01-.03.02-.05,0-.02,0-.04,0-.06,0-.07,0-.14,0-.2,0-.05-.04-.02-.06,0-.03.03-.04.06-.06.09,0,.02,0,.25,0,.25.04,0,.07,0,.11,0v-.25s-.07.02-.1.03v.25s.08-.03.13-.04c0,0,0-.25,0-.25-.08,0-.15,0-.23-.01v.25c.05-.01.11-.02.16-.03.05,0,.1,0,.14,0v-.25s-.09.03-.14.03c-.04,0-.06.02-.06.06,0,.08,0,.16,0,.24,0,.05,0,.09.03.13v-.25s-.06-.03-.09-.04c-.03-.01-.05-.02-.06-.04-.03-.05-.04-.1-.06-.16s-.05-.1-.09-.14-.1-.07-.1-.13v.25s0,0,0-.01c0-.04,0-.08,0-.12s0-.09,0-.12c0,.06,0,.12,0,.18,0,.04,0,.09.02.13.02.03.05.05.07.07.02.03.05.06.06.09.03.06.06.12.08.19.01.03.02.06.06.08.04.02.08.04.12.05,0,0,0-.11,0-.12,0-.03,0-.06,0-.09,0,0,0-.03,0-.04-.01-.03-.02-.05-.02-.08,0-.07,0,0,0,.18,0,0,0-.01.01-.02,0,0,.02-.01.02-.01.02,0,.05,0,.07-.01.03,0,.06-.02.09-.03,0,0,0-.25,0-.25-.05-.02-.1-.01-.14,0-.05,0-.11.01-.16.03,0,0,0,.25,0,.25.08,0,.15.01.23.01v-.25s-.09.02-.13.04c0,0,0,.11,0,.12,0,0,0,.12,0,.12.04,0,.07-.01.1-.03,0,0,0-.11,0-.12,0,0,0-.13,0-.12-.04,0-.07,0-.11,0v.25s.03-.07.06-.09c.02-.02.06-.05.06,0v-.25s-.03.08-.03.12c0,.05,0,.11,0,.16,0,.11,0,.22.02.33,0,.03.03.08.06.1.04.02.06-.03.06-.06,0-.08,0-.16,0-.24,0-.04-.04-.07-.04-.11v.25s.03-.03.05-.04v-.25s0,.06,0,.09c0,.06,0,.13,0,.19s.01.12.02.19v-.23s0-.09,0-.14c0-.05,0-.1,0-.14,0-.09-.01-.19-.03-.28v.25s.01,0,.01,0c0,.01,0,.02,0,.03v-.24c0,.06-.04.12-.07.17,0,0,0,.03,0,.04,0,.03,0,.06,0,.09s0,.06,0,.09c0,0,0,.03,0,.04.02.02.05.03.07.04v-.25s-.08.04-.11.06c-.01,0-.02.01-.02.03,0,.04,0,.08,0,.11s0,.07,0,.11c0,.01,0,.02.01.03.03.02.08.01.12,0,0,0,0-.25,0-.25-.06-.02-.11-.03-.17-.02,0,0,0,.12,0,.12,0,.03,0,.06,0,.09,0,0,0,.03,0,.04.03.02.06.04.09.07v-.25c-.07.01-.14.03-.21.06-.02,0-.06.02-.07.05,0,.01,0,.03,0,.04,0,.04,0,.08,0,.12,0,.03,0,.06,0,.09,0,.01,0,.02.02.02.03.01.07.01.1.01l.24.03s.01-.25,0-.25h0Z"/>
    <path class="cls-1" d="M17.52,28.99c0,.09,0,.19,0,.28,0,.04,0,.07.02.11,0,.03.02.07.03.1s0,.07.02.11v-.25s0-.02-.01-.04c0,0,0,.03,0,.04,0,.03,0,.06,0,.09s0,.06,0,.09c0,.01,0,.03,0,.04,0,.01,0,.02.01.04,0,0,0-.03,0-.04,0-.03,0-.06,0-.09s0-.06,0-.09c0-.01,0-.03,0-.04-.02-.05-.01-.1-.03-.15s-.03-.1-.04-.15h0s0,0,0,0c0-.08,0,0,0,.2,0-.05,0-.1,0-.15,0-.02,0-.05,0-.07,0,0,0-.02,0-.01h0Z"/>
    <path class="cls-1" d="M17.53,29.47c.01.12.04.25.09.37s.12.22.19.33c0,0,0-.04,0-.04,0-.03,0-.06,0-.09s0-.06,0-.09c0-.01,0-.03,0-.04-.02-.05-.04-.1-.08-.15-.03-.04-.08-.08-.08-.13v.16c0,.06,0,.08,0,.05,0,0,0,0,0,0,0,0,.02,0,.03,0,.02,0,.04.02.06.03,0,0,0-.04,0-.04,0-.03,0-.06,0-.09s0-.06,0-.09c0,0,0-.03,0-.04-.01-.01-.05-.04-.07-.03-.02,0-.01.02-.01.04,0,.05,0,.11,0,.17,0,.04,0,.07,0,.11,0,.04.06.08.08.12.03.04.05.09.07.14v-.25c-.06-.11-.13-.22-.19-.33s-.08-.24-.09-.37c0,.08,0,.17,0,.25h0Z"/>
    <path class="cls-1" d="M17.55,29.85c0-.07,0-.14,0-.2,0-.03,0-.06-.01-.08,0,0,0,.04,0,.04,0,.03,0,.06,0,.09s0,.06,0,.09c0,.01,0,.03,0,.04.01.04.02.08.04.12s.04.07.06.1c.05.07.09.14.1.22v-.25s-.04-.01-.05-.01c0,0,0,.04,0,.04,0,.03,0,.06,0,.09s0,.06,0,.09c0,0,0,.03,0,.04.01,0,.02.01.04.02.02,0,.01,0,.01-.02,0-.05,0-.09,0-.14,0-.03,0-.06,0-.09,0-.05-.03-.11-.06-.15s-.06-.08-.09-.13c-.03-.05-.04-.1-.06-.16v.25s0,.02.01.03v-.25s0,0,0,0c0,.05,0,.1,0,.15,0,.02,0,.05,0,.07,0,0,0,.02,0,.01h0Z"/>
    <path class="cls-1" d="M17.56,30.13s0-.03,0-.04c0-.05,0-.1,0-.15,0-.04,0-.08-.02-.11v.25c.06.08.1.16.17.23.01.01.03.03.04.04.01.01.01.04.02.05s.04,0,.05.01c.02,0,.04.01.06.02.02,0,.04.02.05.03.02.02.03.02.06.02.05,0,.1-.01.15-.02.02,0,.03,0,.03-.02,0-.06,0-.12,0-.18,0-.03.01-.14-.05-.12,0,0,0,.11,0,.12,0,.01,0,.12,0,.12.03-.01.04.03.04.05v-.25s-.07.03-.09.03h-.06s-.04.02-.06.02c-.01,0-.02-.02-.03-.03-.01,0-.03-.02-.04-.03s-.03-.01-.05-.02c-.02,0-.04,0-.05,0-.01,0-.01-.01-.02-.03,0-.01-.01-.03-.02-.04-.02-.03-.05-.05-.07-.07-.02-.03-.04-.06-.06-.09-.02-.03-.05-.07-.07-.1,0,0,0,.04,0,.04,0,.03,0,.06,0,.09s0,.06,0,.09c0,0,0,.03,0,.04,0,.01.01.03.02.05v-.25s0,0,0,0c0,0,0,.11,0,.12,0,.03,0,.06,0,.09,0,0,0,.04,0,.04h0Z"/>
    <path class="cls-1" d="M18.19,30.55s0-.03-.01-.05v.24s0-.02.01,0c0,0,0-.03,0-.04,0-.03,0-.06,0-.09,0-.04,0-.08,0-.12v-.13s-.01-.03-.01-.03c0,0-.03.02-.03.02-.02.01-.03.02-.05.04-.06.05-.12.11-.13.19,0,.04,0,.09,0,.12,0,.03,0,.06,0,.09,0,0,0,.04,0,.04.06-.04.1-.08.15-.13,0,0,0-.04,0-.04,0-.03,0-.06,0-.09,0,0,0-.13,0-.12h-.13s-.04,0-.06,0c-.02,0-.05,0-.06,0-.01,0-.01-.02-.02-.03,0-.02-.01-.03-.03-.04-.02-.02-.05-.04-.08-.06-.03-.02-.05-.03-.07-.06-.02-.03-.03-.07-.06-.1s-.05-.06-.06-.09-.02-.08-.02-.12c0,.07,0,.14,0,.21,0,.09,0,.19.03.27.02.04.05.08.07.11s.05.08.09.11c.03.03.08.04.12.06.04.02.08.05.12.07.04.02.09,0,.14,0,.04,0,.09,0,.09.05v-.24c0,.06,0,.12,0,.18,0,.04,0,.08,0,.11,0,.02.01.04.01.07v-.25s0,0,0,.01c0,.04,0,.09,0,.12,0,.03,0,.06,0,.09,0,.01,0,.03,0,.04.01-.06,0-.14,0-.2,0-.02,0-.05,0-.07,0-.02,0-.03-.01-.05v.19s0,0,0-.01v.06c0-.08,0-.16,0-.24,0-.05.01-.1-.05-.11-.05,0-.1,0-.15,0s-.1-.05-.14-.07c-.02-.01-.05-.02-.07-.04-.02,0-.05-.02-.06-.03-.04-.03-.07-.09-.1-.13s-.06-.08-.07-.13-.02-.11-.02-.16v.21s0,.07.02.11.03.06.06.09.04.06.06.09c.02.03.04.05.07.07.03.01.05.03.07.05.01.01.02.02.03.04,0,.01,0,.03.02.03.01,0,.04,0,.06,0h.06s.09,0,.13,0v-.25s-.09.09-.15.13v.25c.02-.08.07-.14.13-.19.01-.01.03-.02.05-.03,0,0,.02-.02.03-.02,0,0,0,0,0,0h0c0,.06,0,.11.01.15v-.25s0-.02-.01-.02c0,0,0,.02,0,.02,0,.04,0,.08,0,.12,0,.06,0,.13.01.2,0,0,0-.03,0-.04,0-.03,0-.06,0-.09s0-.06,0-.09c0-.01,0-.03,0-.04h0Z"/>
    <polygon class="cls-1" points="18.21 31.13 18.21 30.88 18.21 31.13 18.21 31.13"/>
    <path class="cls-1" d="M18.23,30.9c-.03-.06-.07-.1-.12-.14v.25s.06.02.1.03c-.01,0,.01-.23,0-.25-.02-.04-.06-.06-.11-.06-.06,0-.11,0-.17,0v.25c.06,0,.12.02.18.05v-.25c-.11-.03-.21-.06-.31-.11v.25c.05.02.1.04.14.08-.01,0,0-.11,0-.12,0-.03,0-.06,0-.09,0,0,0-.03,0-.04-.04-.05-.09-.1-.13-.15s-.08-.08-.13-.1c-.05-.03-.06-.07-.08-.12,0-.02,0-.02-.01,0,0,.01,0,.03,0,.04,0,.03,0,.05,0,.08,0,.12,0,.24.02.36.01.05.02.11.05.16.04.05.09.03.15.05,0,0,0-.12,0-.12,0-.03,0-.06,0-.09,0,0,0-.03,0-.04-.05-.05-.15-.06-.16-.14v.25l.31.25s.1.09.15.12c.04.02.11-.01.13.04v-.25c-.06-.04-.11-.11-.17-.14-.07-.04-.15-.04-.23-.04s-.16,0-.2-.07-.05-.16-.06-.24v.25c.01.09.05.17.1.25,0,.02.02.04.02.06.03.1.04-.09,0-.14-.03-.04-.06-.07-.09-.11.01.01,0,.1,0,.12,0,.04,0,.09,0,.12.01.08.04.12.11.17.03.02.07.04.1.07,0,0,.05.04.06.04,0,0,.02-.03.02-.04.03-.07,0-.16,0-.23,0-.06,0-.12-.07-.15,0,0,0,.11,0,.12,0,.03,0,.06,0,.09,0,0,0,.03,0,.04.12.11.26.21.39.3,0,0,0-.11,0-.12,0-.04.01-.09,0-.12v-.03c0,.08,0,.17,0,.25,0,0,.03.03.03.04,0,0,0-.03,0-.03,0-.04,0-.09,0-.13,0-.08,0-.15-.03-.22,0,0,0,.03,0,.04,0,.03,0,.06,0,.09,0,.04,0,.08,0,.12,0-.17,0-.22,0-.14v.02s0,.03,0,.04c0,.06,0,.12,0,.17,0,.07,0,.15.05.19-.01,0,0-.11,0-.12,0-.04.01-.09,0-.12-.01-.04-.02-.08-.03-.13v.02s0-.01,0-.02v.23c.05.13.11.28.26.33,0,0,0-.11,0-.12,0-.01.01-.12,0-.12-.08-.04-.14-.1-.19-.17,0,0,0,.04,0,.04,0,.03,0,.06,0,.09s0,.06,0,.09c0,0,0,.03,0,.04.05.08.12.12.2.16v-.25l-.07-.03s0,.11,0,.12c0,.01,0,.12,0,.12l.07.03s0-.11,0-.12c0-.01.01-.12,0-.12-.08-.04-.16-.08-.2-.16v.25c.05.08.11.13.19.17v-.25c-.14-.05-.21-.19-.26-.33,0,.02,0,.07,0,.09,0,.05,0,.09,0,.14,0,.06.01.11.03.17v-.25s-.04-.05-.05-.08c0,.16,0,.21,0,.15,0-.01,0-.02,0-.03,0-.01,0-.03,0-.04,0-.09,0-.19,0-.28v.25s.02.06.03.1v-.19s0,.01,0,.02v-.06s-.01,0-.03-.02c.01,0,0,.11,0,.12,0,.04-.01.09,0,.12v.03c0-.08,0-.17,0-.25-.14-.09-.27-.19-.39-.3v.25s.06.04.07.09v-.25s0,.05-.02.06c-.02.02-.03,0-.05-.01l-.11-.07c-.07-.05-.11-.09-.12-.17v.25s.05.05.07.08v.02s.03.02.03,0c0,0,0-.03,0-.04,0-.08,0-.16,0-.24,0-.06-.03-.12-.06-.17-.04-.07-.07-.13-.08-.21.01.08,0,.17,0,.25s0,.17.06.24.13.07.2.07.16,0,.23.04c.06.04.11.1.17.14,0,0,0-.11,0-.12,0-.04.01-.09,0-.12-.02-.05-.08-.01-.12-.03-.06-.03-.11-.08-.16-.12l-.31-.25s0,.11,0,.12c0,.04,0,.08,0,.12.01.08.11.08.16.14v-.25s-.08,0-.11-.01c-.04-.02-.05-.06-.07-.1-.03-.08-.04-.17-.05-.26v.04s0-.01,0-.02v.21s0-.03,0-.04c0-.02,0-.02.01,0,0,.01,0,.04.02.05.02.05.05.06.1.08s.08.07.11.11c.04.04.08.09.12.13v-.25s-.09-.06-.14-.08c0,0,0,.11,0,.12,0,.01,0,.12,0,.12.1.04.2.08.31.11,0,0,0-.12,0-.12,0-.01.01-.12,0-.12-.06-.03-.11-.04-.18-.05,0,0-.01.25,0,.25.06,0,.11,0,.17,0,.05,0,.08.02.11.06v-.25s-.06-.02-.1-.03c0,0,0,.11,0,.12,0,.01-.01.12,0,.12.06.03.1.08.12.14,0,0,0-.03,0-.04,0-.03,0-.06,0-.09,0-.03.01-.09,0-.12h0Z"/>
    <path class="cls-1" d="M18.2,31.47c.04.06.06.13.07.2,0,0,0,0,0-.01,0,0,0-.02,0-.03,0-.03,0-.06,0-.09s0-.06,0-.09c0-.01,0-.03,0-.04-.01-.07-.03-.14-.07-.2,0,0,0,0,0,.01,0,0,0,.02,0,.03,0,.03,0,.06,0,.09s0,.06,0,.09v.02s0,.01,0,.02h0Z"/>
    <path class="cls-1" d="M18.66,32l-.39-.13v.25c.05-.05.12-.07.19-.09.08-.02.17-.03.26-.04,0,0,0-.25,0-.25-.13,0-.26,0-.38.01,0,0-.01.24,0,.25.08.04.16.06.25.08-.01,0,.02-.25,0-.25-.17-.05-.34-.08-.52-.1v.25c.13-.03.26-.04.39-.03v-.25c-.11,0-.21-.03-.31-.09v.25s.09,0,.14,0c0,0,0-.11,0-.12,0-.01,0-.12,0-.12-.08-.02-.16-.05-.24-.07v.25s.14.04.16,0c0-.01,0-.05,0-.06,0-.05,0-.09,0-.14,0-.05-.01-.08-.05-.12-.04-.04-.09-.07-.15-.09,0,0,0,.11,0,.12,0,.02-.01.12,0,.12.08.05.16.09.26.12-.02,0,.02-.24,0-.25-.22-.07-.39-.22-.54-.38.01.01,0,.11,0,.12,0,.03,0,.06,0,.09,0,0,0,.03,0,.04l.09.13v-.25c-.1-.04-.16-.13-.18-.24.01.08,0,.17,0,.25,0-.07,0-.14,0-.21v.25c.06.09.08.19.09.29.01.11.02.21.05.32.05.22.09.46.16.67,0,0,0-.03,0-.04,0-.08,0-.16,0-.24s-.05-.13-.09-.2c-.03-.07-.06-.14-.07-.22s-.04-.14-.06-.21c-.02-.08,0,.13,0,.12,0-.02,0-.03,0-.05,0-.05,0-.1,0-.15,0-.07,0-.12-.02-.19,0-.02-.01-.03-.02-.05-.03-.08,0,.22,0,.14,0-.04,0-.09,0-.13,0-.06.01-.14-.02-.2.01.02,0,.1,0,.12,0,.04,0,.09,0,.12.02.07.05.13.08.19.01.03.03.06.04.09.03.07.03.18.03-.05v-.06c-.08-.02-.06-.14-.11-.19,0,0,0,.1,0,.11,0,.05,0,.09,0,.14,0,.09.02.18.04.27v-.25c-.04-.12-.05-.24-.07-.37.01.08,0,.17,0,.25,0,.14.03.27.06.41.01.05.01.13.06.16.03.02.07.04.1.05.01,0,.03.02.05.03.03,0,.02.02.03-.02.02-.12.01-.25,0-.37-.02-.14-.08-.27-.16-.4v.25c.06,0,.11,0,.17.03.04.02.12.05.12.1v-.25s-.15.02-.2,0c0,0,0,.11,0,.12,0,.03-.01.09,0,.12.04.09.09.17.16.25-.01-.01,0-.1,0-.12,0-.04,0-.09,0-.12-.02-.11-.05-.21-.1-.3v.25c.08.11.16.22.24.34.07.1.1.23.16.33.02.03.03.05.05.08,0,.01.02.02.03.04.01.02.02.02.02,0,.03-.03.02-.1.02-.14,0-.12.02-.25-.03-.36.01.03,0,.09,0,.12,0,.04-.01.09,0,.12.03.07.06.15.09.22v-.25c-.07-.1-.14-.2-.25-.26,0,0,0,.1,0,.11,0,.05,0,.09,0,.14,0,.06.02.12.06.17.02.02.03.05.04.02,0-.02,0-.07,0-.09,0-.16-.01-.29-.08-.43.01.03,0,.1,0,.12,0,.04-.01.09,0,.12.03.08.05.17.06.25v-.25c-.07-.12-.1-.25-.18-.35.01.01,0,.1,0,.12,0,.04,0,.08,0,.12.01.17.05.33.1.48-.01-.03,0-.09,0-.12,0-.04,0-.08,0-.12,0-.13-.03-.25-.08-.37-.01-.03-.02-.07-.04-.09-.03-.04-.01,0-.01.02,0,.07,0,.13,0,.2,0,.11.04.22.07.32.04.12.09.23.14.34-.01-.03,0-.1,0-.12,0-.03.01-.09,0-.12-.02-.05-.05-.1-.08-.14.01.02,0,.1,0,.12,0,.03-.01.1,0,.12l.07.12s0-.1,0-.12c0-.03.01-.1,0-.12l-.07-.12v.25s.06.09.08.14v-.25c-.05-.1-.09-.2-.13-.31s-.07-.21-.09-.32v.25s.01,0,.02.02.01.03.02.05c.02.04.03.09.04.13.02.09.04.17.04.26v-.25c-.06-.16-.09-.32-.1-.48v.25c.09.1.12.24.18.35-.01-.02,0-.1,0-.12,0-.04,0-.09,0-.12-.01-.09-.04-.17-.06-.25v.25c.04.08.06.17.08.26v-.02s0,0,0,.01v-.23s-.05-.03-.06-.04c-.02-.04-.04-.09-.04-.13v.25c.11.06.18.16.25.26-.01-.02,0-.1,0-.12,0-.03.01-.1,0-.12-.04-.07-.07-.14-.09-.22v.25s.01.04.02.06c.03.09.03-.19,0-.1,0,0-.01.06-.02.06,0,0-.04-.05-.05-.05-.06-.07-.1-.16-.13-.24-.07-.18-.21-.34-.32-.5.01.02,0,.1,0,.12,0,.03-.01.09,0,.12.04.1.08.2.1.3v-.25c-.06-.08-.12-.16-.16-.25v.25s.07.03.1.03c.02,0,.08,0,.09-.01.01-.01,0-.04,0-.06,0-.05,0-.1,0-.15,0-.02,0-.05,0-.06-.01-.03-.06-.05-.08-.06-.06-.03-.13-.05-.21-.05,0,0-.01.23,0,.25.05.09.11.19.13.29,0,.02.01.05.02.07,0,.05,0,.03,0-.04,0-.07,0-.09,0-.04,0,.03,0,.03-.03.01h-.02s-.05-.04-.08-.06c-.05-.03-.06-.03-.07-.09-.01-.05-.02-.1-.04-.15-.03-.12-.05-.23-.05-.35v.25c.02.12.03.25.07.37-.01-.03,0-.09,0-.12,0-.04,0-.09,0-.12-.02-.09-.03-.17-.04-.26v.25c.05.05.03.17.11.19,0,0,0-.06,0-.06,0-.11.01-.22-.03-.32s-.1-.18-.13-.28v.25s.01.03.02.03,0-.21,0-.15c0,.04,0,.07,0,.11,0,.06,0,.12,0,.18,0,.03.02.05.03.08,0,.01,0,.03.01.04-.03-.08,0-.21,0-.13s0,.15,0,.23c0,.06.01.11.03.16.02.06.03.12.05.18.02.07.04.13.07.19s.07.12.08.19v-.21s0,.02,0,.02v-.04c-.08-.22-.11-.45-.16-.67-.02-.11-.04-.21-.05-.32-.01-.1-.03-.2-.09-.29.01.02,0,.09,0,.11,0,.05,0,.09,0,.14,0,.02,0,.03,0,.05,0,0,0,.07,0,.03,0-.03,0-.07,0-.1,0-.09,0-.18,0-.26v.25c.02.11.08.19.18.24,0,0,0-.11,0-.12,0-.03,0-.06,0-.09,0,0,0-.03,0-.04l-.09-.13v.25c.15.16.33.31.54.38v-.25c-.09-.03-.18-.07-.26-.12v.25c.08.03.17.08.2.16v-.25s-.13,0-.16,0c.01,0-.02.25,0,.25.08.02.16.04.24.07v-.25s-.09-.02-.14,0c0,0-.01.24,0,.25.1.05.2.08.31.09,0,0,0-.25,0-.25-.13-.01-.26,0-.39.03,0,0,0,.25,0,.25.18.02.35.05.52.1v-.25c-.09-.01-.17-.04-.25-.08v.25c.13-.01.26-.02.38-.01v-.25c-.09,0-.17.02-.26.04-.07.02-.14.03-.19.09-.01.01,0,.25,0,.25l.39.13s0-.11,0-.12c0-.01,0-.12,0-.12h0Z"/>
    <path class="cls-1" d="M18.3,33.2c.02.07.04.15.08.22.01.03.02.05.04.02s.03-.09.03-.12c.03-.14.03-.29.02-.42,0-.06-.03-.09-.08-.12-.02-.01-.06-.03-.07-.02-.01.01,0,.06,0,.07,0,.11-.03.3.12.32v-.25c-.06,0-.12,0-.18,0v.25c.16-.11.32-.22.44-.37.01-.02,0-.25,0-.25-.09-.04-.16.02-.22.08v.25c.05-.17.13-.32.21-.48.01-.03,0-.09,0-.12,0-.03-.02-.1,0-.12-.06.11-.12.23-.16.36-.01.03,0,.09,0,.12,0,.03.02.1,0,.12.05-.09.11-.19.16-.28.01-.03-.01-.25,0-.25-.09.02-.17.1-.23.16-.07.07-.13.15-.18.23v.25c0-.05.02-.1.05-.15v-.25c-.01.24-.03.47-.04.71,0,.08.01.17,0,.25.01-.1,0-.2,0-.3,0-.08-.02-.17-.12-.19.02,0-.02.24,0,.25.05.01.09.04.13.07v-.25c-.06,0-.11.03-.14.08-.02.03-.02.13-.08.1-.04-.02-.05-.13-.06-.17-.01-.06-.04-.12-.06-.19-.11-.27-.17-.56-.23-.85v.25c.05.15.07.3.1.45.02.07.04.14.06.2.02.03.03.07.05.1,0,0,.02.04.03.04.02,0,0,0,.01-.02,0-.13,0-.27-.03-.4-.05-.16-.11-.31-.18-.46v.25c.08.08.13.19.19.29.06.11.13.22.19.33-.01-.02,0-.1,0-.12,0-.04.01-.09,0-.12-.06-.17-.11-.35-.15-.53s-.07-.35-.14-.51h0c0,.12-.01.24,0,.35.02.13.06.27.1.4s.09.26.14.39.15.2.26.29c-.01,0,0-.11,0-.12,0-.04.01-.09,0-.12-.04-.11-.09-.22-.17-.31.01.01,0,.1,0,.12,0,.04,0,.08,0,.12,0,.06.02.11.05.17-.01-.03,0-.1,0-.12,0-.04,0-.09,0-.12-.02-.11-.05-.22-.08-.33,0-.01-.05-.16-.05-.16-.02,0,0,.12,0,.12,0,.1,0,.19.02.29.02.12.05.24.07.36-.02-.08.02-.17,0-.25-.03-.15-.08-.32-.08-.48v.25s0-.02,0-.04c0-.02,0-.02,0,0,.01.01.02.05.02.07.01.04.03.09.04.13.03.09.05.18.06.27v-.25c-.03-.05-.04-.11-.05-.17v.25c.08.09.13.19.17.31v-.25c-.08-.06-.17-.13-.22-.22s-.09-.2-.12-.29c-.07-.2-.14-.41-.16-.62v.02c0,.17.01.18.05.31.01.04.03.09.04.13.02.08.04.17.06.25.04.18.09.35.15.53v-.25c-.06-.11-.13-.22-.19-.33-.06-.1-.11-.21-.19-.29.01.01,0,.11,0,.12,0,.03-.01.09,0,.12.08.19.18.39.21.6v-.04s0,.02,0,.03v-.21s0,.02-.02,0c-.01-.01-.02-.03-.03-.04-.02-.03-.04-.07-.05-.1-.03-.07-.05-.14-.06-.21-.03-.15-.05-.3-.1-.44.01.03,0,.09,0,.12,0,.04,0,.09,0,.12.07.29.12.58.23.85.02.06.05.12.06.19,0,.04.01.15.06.17.06.03.06-.07.08-.1.03-.05.08-.08.14-.08,0,0,.02-.24,0-.25-.04-.04-.08-.06-.13-.07v.25s.06.02.09.05c0,.01.01.02.02.04.01.05.01.03,0-.05,0-.08,0-.1,0-.05v.25c.01-.24.03-.47.04-.71,0-.05,0-.09,0-.14,0-.02-.01-.09,0-.11-.03.05-.04.09-.05.15,0,.04,0,.08,0,.12,0,.03.02.1,0,.12.05-.08.11-.16.18-.23s.14-.15.23-.16v-.25c-.05.1-.1.19-.16.28v.25c.04-.12.1-.24.16-.36v-.25c-.07.16-.15.32-.21.48-.01.03,0,.09,0,.12,0,.02.02.11,0,.12.06-.06.13-.13.22-.08v-.25c-.12.15-.28.26-.44.37-.02.01,0,.25,0,.25.06,0,.12,0,.18,0,0,0,0-.25,0-.25-.07,0-.11-.06-.12-.13v.25s.03,0,.06,0c.03.01.05.03.07.05,0,0,.01.03.02.03.01.04.01.01,0-.07,0-.09,0-.11,0-.07,0,.04-.01.08-.02.12,0,.03-.01.08-.03.11-.02.03-.03.01-.04-.02-.04-.07-.06-.14-.08-.22.02.08-.02.17,0,.25h0Z"/>
    <path class="cls-1" d="M18.19,33.01c-.06-.09-.12-.18-.18-.27.01.02,0,.1,0,.12,0,.03-.01.1,0,.12.05.08.1.17.11.27v-.25c0,.05-.09-.03-.1-.04v.25c.05-.01.14-.02.14-.08,0-.04,0-.08,0-.12,0-.03,0-.07,0-.11-.02-.12-.17-.16-.18-.29v.25c0-.08.02-.16.02-.24s0-.16,0-.24c-.03-.19-.06-.38-.1-.57,0-.05-.02-.09-.03-.14,0-.03,0-.1-.03-.12-.05-.05-.04.09-.04.12,0,.08,0,.17,0,.26s.04.13.1.19v-.25c-.06-.05-.11-.09-.17-.14.01,0,0,.11,0,.12,0,.03-.01.1,0,.12.03.04.07.08.11.11-.01,0,0-.11,0-.12,0-.04,0-.09,0-.12-.02-.09-.04-.17-.08-.25.01.03,0,.09,0,.12,0,.03-.01.09,0,.12.04.08.06.16.08.25v-.25s-.08-.07-.11-.11v.25c.06.05.11.09.17.14-.01,0,0-.11,0-.12,0-.02.01-.11,0-.12-.03-.03-.06-.06-.08-.1-.01-.02-.01-.04-.02-.06,0,.14,0,.18,0,.12,0,0,0-.02,0-.02.03-.04.04.03.05.05.01.06.02.11.03.17.02.11.04.22.06.33,0,.05.02.1.03.15.01.06.02.28.03.03v-.06c-.01.13-.03.27-.02.4.02.12.15.16.18.27v-.25s-.11.05-.14.06c0,0-.01.23,0,.25.02.03.07.08.1.04,0-.01,0-.05,0-.07,0-.04,0-.08,0-.13,0-.13-.05-.22-.11-.33v.25c.06.09.11.18.18.27-.01-.02,0-.1,0-.12,0-.03.01-.1,0-.12h0Z"/>
    <path class="cls-1" d="M17.82,31.49c-.04.37-.02.75.04,1.11.08.51.23,1.01.24,1.54v-.23c-.14-.54-.26-1.09-.34-1.64.01.08,0,.17,0,.25.04.46.16.9.34,1.33-.03-.07,0-.18,0-.25-.05-.35-.1-.7-.17-1.04.01.08,0,.17,0,.25.02.25.05.51.1.76-.02-.08.01-.17,0-.25l-.14-.87c.01.08,0,.17,0,.25l.14,1.54v-.25c-.05-.35-.11-.69-.18-1.03v.25c.12.43.24.87.25,1.32v-.25c-.23-.68-.36-1.38-.38-2.1v.25c.11.38.15.77.19,1.16h0c.01-.21.02-.42.02-.63,0-.09.04-.4-.11-.39,0,0,0,.23,0,.25.01.14.02.28.03.42v-.25c-.08-.08-.13-.16-.14-.27v.25s.05.09.07.13c-.03-.05,0-.19,0-.25l-.02-.3v.25s.02.05.02.07v-.19s0,.02,0,.04v-.06c-.01-.07-.02-.13-.03-.2v.25l.09.32c-.02-.08.02-.17,0-.25l-.09-.32c.02.08-.01.17,0,.25l.03.2s0-.04,0-.06c0-.1.01-.2-.02-.3.02.07,0,.18,0,.25l.02.3v-.25s-.05-.09-.07-.13c.03.06-.01.18,0,.25.02.11.06.2.14.27-.03-.03,0-.21,0-.25-.01-.14-.02-.28-.03-.42v.25c.15,0,.1.26.1.34,0,.03,0,.18-.02.1-.02-.07-.02-.16-.02-.23-.03-.29-.08-.58-.16-.86.02.07,0,.17,0,.25.02.72.15,1.43.38,2.11-.02-.06,0-.18,0-.25-.01-.45-.13-.89-.25-1.33.02.08-.02.17,0,.25.07.34.13.69.18,1.03-.01-.08,0-.17,0-.25l-.14-1.54v.25l.14.87v-.25c-.05-.25-.08-.5-.1-.75v.25c.07.35.12.69.17,1.04v-.25c-.17-.43-.29-.87-.34-1.33v.25c.08.55.2,1.1.34,1.64-.02-.07,0-.16,0-.23,0-.35-.07-.69-.14-1.03-.08-.37-.18-.77-.15-1.15,0-.08,0-.17,0-.25h0Z"/>
    <path class="cls-1" d="M18.09,34.44c-.02-.26-.16-.49-.2-.74-.04-.28-.07-.56-.1-.85v.25c.06.03.11.07.16.12-.01,0,0-.11,0-.12,0-.03.01-.1,0-.12-.02-.04-.04-.06-.08-.08v.25h.03s.01-.21,0-.24c-.03-.06-.05-.11-.09-.16v.25s.02-.2.02-.23c0-.09-.08-.18-.12-.26.01.02,0,.1,0,.12,0,.04-.01.09,0,.12.1.27.2.53.23.82v-.25c-.05-.07-.1-.15-.15-.22v.25c.11.13.11.27.13.43s.11.3.19.44v-.25c-.08-.05-.12-.12-.15-.21-.02-.05-.03-.09-.04-.14,0-.02,0-.04-.01-.07,0-.02,0-.03,0-.05,0-.08,0-.04,0,.11,0-.06,0-.11.02-.17,0-.03.02-.12.04-.15,0-.03.01-.02.02.02v.04s.02.05.02.07c.01.06.02.13.02.19,0,0,0,.09,0,.04,0-.06,0-.11,0-.17,0-.05-.03-.47-.06-.46,0,0-.03.09-.03.1-.01.04-.02.09-.03.13,0,.06-.01.12-.01.17,0,.25-.03.62.21.78,0,0,0-.11,0-.12,0-.03.01-.1,0-.12-.08-.15-.18-.3-.19-.47-.01-.15-.02-.28-.12-.4.01.01,0,.1,0,.12,0,.03-.01.1,0,.12.05.07.1.15.15.22-.01-.02,0-.1,0-.12,0-.04,0-.08,0-.12-.03-.28-.13-.55-.23-.82v.25s.04.08.07.12c.02.03.05.07.06.11v-.25s-.01.01-.02,0c.02,0-.02.23,0,.25.03.05.06.1.09.16v-.25h-.03s-.03.23,0,.24c.04.02.06.04.08.08v-.25s-.1-.08-.16-.12c0,0,0,.11,0,.12,0,.04,0,.08,0,.12.03.28.06.57.1.85.04.26.17.48.2.74,0-.08,0-.17,0-.25h0Z"/>
  </g>
</svg>