<?xml version="1.0" encoding="UTF-8"?>
<svg id="Laag_2" xmlns="http://www.w3.org/2000/svg" viewBox="0 0 310.01 171.07">
  <defs>
    <style>
      .cls-1 {
        letter-spacing: 0em;
      }

      .cls-2 {
        fill: #f6f6f6;
      }

      .cls-3, .cls-4 {
        fill: #1d1d1b;
      }

      .cls-4 {
        font-family: Corona-Regular, Corona;
        font-size: 54.95px;
        stroke: #1d1d1b;
        stroke-miterlimit: 10;
        stroke-width: .25px;
      }

      .cls-5 {
        letter-spacing: -.02em;
      }

      .cls-6 {
        letter-spacing: -.05em;
      }

      .cls-7 {
        letter-spacing: -.05em;
      }

      .cls-8 {
        letter-spacing: 0em;
      }

      .cls-9 {
        letter-spacing: 0em;
      }

      .cls-10 {
        letter-spacing: 0em;
      }
    </style>
  </defs>
  <g id="Laag_1-2" data-name="Laag_1">
    <g>
      <text class="cls-4" transform="translate(1.26 67.02) scale(1.22 1)"><tspan class="cls-5" x="0" y="0">W</tspan><tspan class="cls-8" x="35.33" y="0">o</tspan><tspan class="cls-10" x="55.88" y="0">r</tspan><tspan class="cls-1" x="76.59" y="0">k</tspan><tspan class="cls-7" x="97.64" y="0">T</tspan><tspan class="cls-6" x="119.51" y="0">o</tspan><tspan x="137.09" y="0">We</tspan><tspan class="cls-9" x="192.75" y="0">a</tspan><tspan x="211.98" y="0">r</tspan></text>
      <g>
        <path class="cls-3" d="M306.9,56.64c-3.41-8.32-9.52-15.46-15.65-22.49-3.5-4.01-7.31-7.83-11.08-11.85,1.06-.32,1.76-.51,2.43-.74,3.13-1.07,6.14-2.28,6.14-5.71,0-3.46-2.07-5.58-5.85-6.9-3.75-1.31-7.62-2.14-11.61-1.92-7.33.41-13.72-.86-18.67-5.67-.38-.37-.96-.62-1.49-.85-.72-.32-1.63-.88-2.27-.15-.69.79.42,1.26.92,1.75,1.82,1.78,4.47,2.91,6.09,5.4-3.48.29-6.57.64-9.68.8-22.43,1.17-44.88,1-67.31,1.25-33.54.37-67.09-.6-100.62,1.82-6.12.44-12.36.14-18.28,2.05-.64.21-1.56.27-1.51,1.1.04.74.8.91,1.53,1.03,1.06.18,2.11.39,3.18.53,6.92.91,13.92,1,20.9,1.19,40.74,1.11,81.53.22,122.28.95,15.06.27,30.17.07,45.11,2.04,7.7,1.01,15.04,3.82,23.11,2.95,1.13-.12,1.76.56,2.38,1.17,9.6,9.5,18.58,19.36,24.79,30.83,7.55,13.94,5.23,27.56-7.07,37.33-14.06,11.17-30.82,17.99-49.9,19.91-19.14,1.93-38.12.46-56.85-2.89-18.5-3.32-35.83-9.51-53.25-15.42-19.99-6.78-39.6-14.37-60.42-19.37-14.05-3.37-28.19-5.17-42.88-2.64-16.7,2.87-28.21,12.38-30.68,26.6-2.39,13.74,2.68,25.82,12.66,36.43,12.03,12.78,27.46,22.01,44.37,29.63,4.71,2.12,9.43,4.21,14.15,6.31.75-.78,1.5-1.57,2.27-2.35-2.83-1.28-5.68-2.55-8.5-3.86-15.87-7.34-31.08-15.45-43.75-26.55-11.08-9.71-17.46-21.03-16.55-34.86.63-9.48,3.71-18.03,14.41-23.12,7.03-3.34,14.65-4.81,22.64-5.08,14.64-.5,28.46,2.77,42.13,6.32,19.03,4.94,37.06,12.11,55.54,18.27,23.12,7.7,46.47,14.38,71.44,16.83,27.7,2.72,53.44-1.05,76.76-14.97,19.89-11.87,26.19-26.59,18.62-45.08ZM273.19,20.28c-3.51-.04-7.07-.22-10.36-1.14-15.56-4.33-31.67-4.71-47.89-4.63-29.67.15-59.34.18-89.01.25-9.52.02-19.05.02-28.57.03-1.12,0-2.27.13-3.19-.6,56.03-2.1,111.99-.07,168.72-2.96-1.31,1.68-2.54,1.47-3.44,1.84-.85.35-1.98.43-1.98,1.52,0,.9.93,1.19,1.69,1.39,4.7,1.24,9.38,2.58,14.39,2.7.95.02,1.99-.02,2.84-.32,1.72-.6,3.32-1.47,3.49-3.25.18-1.84-1.66-2.3-3.11-2.92-1.65-.7-3.47-.68-5.3-.72-1.6-.04-3.34.71-5.37-.6,5.98-.59,11.39-1.09,16.35,1.6,3.04,1.65,3.09,3.77.02,5.56-2.77,1.62-5.93,2.31-9.27,2.28ZM270.14,13.98c1.59-.81,2.91-.37,4.16-.27,1.05.08,2.15.38,2.61,1.34.28.58-.13,1.01-.74,1.18-1.23.35-2.5.87-3.64-.17-.72-.66-1.48-1.29-2.4-2.09Z"/>
        <path class="cls-2" d="M94.16,14.18c56.03-2.1,111.99-.07,168.72-2.96-1.31,1.68-2.54,1.47-3.44,1.84-.85.35-1.98.43-1.98,1.52,0,.9.93,1.19,1.69,1.39,4.7,1.24,9.38,2.58,14.39,2.7.95.02,1.99-.02,2.84-.32,1.72-.6,3.32-1.47,3.49-3.25.18-1.84-1.66-2.3-3.11-2.92-1.65-.7-3.47-.68-5.3-.72-1.6-.04-3.34.71-5.37-.6,5.98-.59,11.39-1.09,16.35,1.6,3.04,1.65,3.09,3.77.02,5.56-2.77,1.62-5.93,2.31-9.27,2.28-3.51-.04-7.07-.22-10.36-1.14-15.56-4.33-31.67-4.71-47.89-4.63-29.67.15-59.34.18-89.01.25-9.52.02-19.05.02-28.57.03-1.12,0-2.27.13-3.19-.6Z"/>
        <path class="cls-2" d="M270.14,13.98c1.59-.81,2.91-.37,4.16-.27,1.05.08,2.15.38,2.61,1.34.28.58-.13,1.01-.74,1.18-1.23.35-2.5.87-3.64-.17-.72-.66-1.48-1.29-2.4-2.09Z"/>
      </g>
    </g>
  </g>
</svg>