<?xml version="1.0" encoding="UTF-8"?>
<svg id="Laag_2" xmlns="http://www.w3.org/2000/svg" viewBox="0 0 176.09 36.45">
  <defs>
    <style>
      .cls-1 {
        fill: #272325;
      }

      .cls-2 {
        fill: #252122;
      }

      .cls-3 {
        fill: none;
        stroke: #1d1d1b;
        stroke-miterlimit: 10;
        stroke-width: .75px;
      }

      .cls-4 {
        fill: #252022;
      }

      .cls-5 {
        fill: #f9f8f9;
      }

      .cls-6 {
        fill: #fffbf3;
      }
    </style>
  </defs>
  <g id="Laag_1-2" data-name="Laag_1">
    <g>
      <g>
        <path class="cls-4" d="M26.17,6.43c2.6,0,5.19,0,7.79,0,1.35,0,2.6.34,3.66,1.16,1.07.83,1.76,1.91,1.76,3.32,0,4.73.02,9.45-.01,14.18-.01,1.8-1.02,2.99-2.54,3.82-.97.53-2.02.67-3.1.67-5.01,0-10.01-.01-15.02,0-1.17,0-2.29-.17-3.32-.76-.67-.39-1.23-.91-1.69-1.56-.62-.88-.75-1.87-.76-2.87-.02-4.32-.02-8.63,0-12.95.01-2.46,1.49-4.14,3.79-4.8.6-.17,1.22-.22,1.85-.22,2.53,0,5.06,0,7.59,0h0ZM26.95,22.79c0-1.11,0-2.22,0-3.34,0-.22.06-.29.29-.29.69.01,1.38,0,2.07,0,.19,0,.28-.03.32-.24.14-.77.18-1.57.45-2.31.12-.35-.05-.38-.34-.37-.82.02-1.64,0-2.46,0-.24,0-.32-.06-.31-.31.02-.56.02-1.11,0-1.67-.02-.82.33-1.2,1.19-1.42.6-.15,1.21-.06,1.82-.07.2,0,.28-.06.27-.27-.01-.62-.02-1.24,0-1.87,0-.23-.07-.28-.29-.29-.89-.02-1.77-.08-2.66-.1-2.3-.06-3.98,1.54-3.92,3.87.01.58-.02,1.17.01,1.75.02.33-.1.39-.4.38-.78-.02-1.56,0-2.34-.01-.22,0-.3.06-.29.28.01.77.02,1.54,0,2.3,0,.3.11.35.37.34.75-.02,1.51.01,2.26-.01.33-.01.41.09.41.42-.02,2.14,0,4.29-.02,6.43,0,.24.04.35.32.34.99-.02,1.99-.01,2.98,0,.25,0,.31-.07.31-.31-.01-1.09,0-2.17,0-3.26Z"/>
        <path class="cls-6" d="M27.1,22.79c0,1.09,0,2.17,0,3.26,0,.24-.06.32-.31.31-.99-.02-1.99-.02-2.98,0-.28,0-.32-.1-.32-.34,0-2.14,0-4.29.02-6.43,0-.33-.08-.43-.41-.42-.75.02-1.51,0-2.26.01-.26,0-.38-.04-.37-.34.02-.77.02-1.54,0-2.3,0-.23.07-.29.29-.28.78.01,1.56,0,2.34.01.3,0,.42-.05.4-.38-.03-.58,0-1.17-.01-1.75-.06-2.32,1.62-3.93,3.92-3.87.89.02,1.77.08,2.66.1.22,0,.3.06.29.29-.02.62-.01,1.24,0,1.87,0,.21-.07.26-.27.27-.61.01-1.22-.08-1.82.07-.86.22-1.21.6-1.19,1.42.02.56.02,1.11,0,1.67,0,.25.07.31.31.31.82-.02,1.64,0,2.46,0,.29,0,.46.03.34.37-.27.75-.31,1.54-.45,2.31-.04.21-.13.24-.32.24-.69-.01-1.38,0-2.07,0-.23,0-.29.06-.29.29.01,1.11,0,2.22,0,3.34Z"/>
      </g>
      <g>
        <path class="cls-2" d="M108.01,6.78c2.56,0,5.11.02,7.67,0,1.37,0,2.66.29,3.75,1.12.87.66,1.49,1.52,1.75,2.63.13.58.15,1.14.15,1.71,0,4.29.03,8.58-.02,12.87-.02,1.91-.96,3.32-2.68,4.2-.91.47-1.87.63-2.87.63-5.14,0-10.28-.01-15.42,0-1.42,0-2.7-.39-3.83-1.25-.25-.19-.47-.42-.66-.66-.6-.76-.98-1.61-.98-2.6,0-4.71,0-9.43.01-14.14,0-1.42.72-2.5,1.83-3.35,1.13-.87,2.43-1.16,3.82-1.15,2.49.01,4.98,0,7.47,0ZM116.71,12.53c-.63.3-1.23.56-1.86.73-.16.05-.28.04-.43-.07-1.22-.91-2.57-1.13-4-.62-1.38.49-2.43,1.65-2.21,3.27.03.24,0,.32-.27.31-1.98-.03-3.74-.71-5.36-1.79-.61-.4-1.16-.89-1.7-1.38-.11-.1-.16-.12-.22.03-.13.33-.31.64-.38.98-.19.94.18,1.7.82,2.37.24.25.48.5.85.71-.67.13-1.18-.09-1.76-.35.29,1.68,1.19,2.69,2.79,3.1-.52.27-1.04.17-1.62.1.39.66.79,1.2,1.36,1.59.57.38,1.21.58,1.91.66-1.46,1.19-3.2,1.26-5.01,1.35.99.48,1.93.81,2.91,1.02,2.45.51,4.84.33,7.16-.62,1.2-.49,2.27-1.17,3.22-2.08,1.01-.96,1.72-2.08,2.17-3.38.31-.91.37-1.87.34-2.82,0-.2.02-.3.23-.41.6-.3,1.09-.75,1.48-1.37-.61.16-1.16.36-1.85.39.66-.48,1.19-.94,1.44-1.7Z"/>
        <path class="cls-6" d="M116.92,12.54c-.24.76-.78,1.22-1.44,1.7.69-.03,1.24-.22,1.85-.39-.39.62-.88,1.07-1.48,1.37-.22.11-.24.21-.23.41.03.96-.03,1.91-.34,2.82-.45,1.3-1.16,2.42-2.17,3.38-.95.9-2.02,1.58-3.22,2.08-2.32.95-4.71,1.13-7.16.62-.99-.2-1.93-.54-2.91-1.02,1.81-.09,3.56-.16,5.01-1.35-.7-.08-1.34-.28-1.91-.66-.57-.38-.97-.93-1.36-1.59.58.07,1.09.17,1.62-.1-1.6-.41-2.51-1.42-2.79-3.1.58.26,1.09.48,1.76.35-.37-.21-.61-.46-.85-.71-.65-.67-1.01-1.43-.82-2.37.07-.34.25-.65.38-.98.06-.15.11-.13.22-.03.55.48,1.09.97,1.7,1.38,1.63,1.08,3.39,1.75,5.36,1.79.26,0,.3-.07.27-.31-.22-1.62.83-2.78,2.21-3.27,1.43-.51,2.78-.29,4,.62.15.11.27.11.43.07.63-.18,1.23-.43,1.86-.73Z"/>
      </g>
      <g>
        <path class="cls-2" d="M150.32,6.79c2.56,0,5.11,0,7.67,0,1.44,0,2.76.39,3.85,1.32,1.05.89,1.64,2.04,1.63,3.48-.03,4.4-.01,8.79-.02,13.19,0,.3,0,.61-.02.91-.09,1.32-.77,2.29-1.78,3.09-1.11.88-2.39,1.18-3.77,1.18-5.14,0-10.28,0-15.42,0-1.29,0-2.49-.31-3.54-1.06-.71-.52-1.3-1.17-1.62-2.03-.25-.67-.36-1.35-.36-2.07.02-4.4.02-8.79,0-13.19,0-.87.24-1.68.69-2.39.77-1.21,1.92-1.94,3.32-2.27.53-.12,1.07-.16,1.62-.16,2.58,0,5.17,0,7.75,0ZM149.99,25.92c2.32,0,4.79-.73,6.55-2.4,1.16-1.1,1.92-2.4,2.23-3.95.29-1.46.05-2.88-.61-4.23-.36-.73-.84-1.39-1.42-1.96-.98-.96-2.13-1.65-3.44-2.07-1.9-.62-3.82-.67-5.74-.13-1.28.36-2.43.97-3.44,1.85-1.02.89-1.77,1.94-2.19,3.21-.23.69-.32,1.42-.3,2.15.03,1.04.13,2.08.7,2.99.25.4.21.81.16,1.25-.1.98-.35,1.94-.49,2.92-.04.32.04.35.32.31,1.33-.21,2.67-.4,4-.6.16-.02.31-.04.46.03,1.1.46,2.26.61,3.21.62Z"/>
        <path class="cls-6" d="M149.99,25.92c-.95-.01-2.11-.17-3.21-.62-.16-.06-.31-.05-.46-.03-1.33.2-2.67.39-4,.6-.28.04-.36.01-.32-.31.14-.98.39-1.93.49-2.92.05-.44.09-.85-.16-1.25-.58-.91-.67-1.95-.7-2.99-.02-.73.07-1.46.3-2.15.43-1.27,1.18-2.33,2.19-3.21,1.01-.88,2.16-1.49,3.44-1.85,1.92-.54,3.84-.49,5.74.13,1.31.43,2.46,1.11,3.44,2.07.58.57,1.06,1.23,1.42,1.96.66,1.34.9,2.76.61,4.23-.31,1.55-1.07,2.85-2.23,3.95-1.76,1.67-4.23,2.41-6.55,2.4ZM150.25,24.67c1.89-.03,3.59-.59,5.05-1.83,1.11-.94,1.79-2.13,2.08-3.53.17-.79.1-1.59-.14-2.41-.37-1.26-1.05-2.26-2.03-3.09-1.23-1.03-2.66-1.59-4.25-1.72-2.06-.17-3.94.31-5.59,1.63-1.04.83-1.78,1.85-2.16,3.12-.12.41-.16.83-.18,1.25-.08,1.23.26,2.35.92,3.37.17.26.24.47.17.74-.17.6-.23,1.21-.33,1.82-.04.27.03.35.3.3.76-.13,1.52-.24,2.27-.36.24-.04.45-.04.69.06,1.02.43,2.09.66,3.2.64Z"/>
        <path class="cls-2" d="M150.25,24.67c-1.11.02-2.18-.2-3.2-.64-.24-.1-.45-.1-.69-.06-.76.12-1.52.23-2.27.36-.27.05-.34-.03-.3-.3.09-.61.16-1.22.33-1.82.08-.28,0-.48-.17-.74-.65-1.01-1-2.14-.92-3.37.03-.42.06-.85.18-1.25.39-1.27,1.12-2.29,2.16-3.12,1.65-1.31,3.53-1.8,5.59-1.63,1.59.13,3.02.68,4.25,1.72.99.83,1.66,1.83,2.03,3.09.24.81.3,1.61.14,2.41-.29,1.4-.97,2.59-2.08,3.53-1.47,1.24-3.16,1.79-5.05,1.83ZM152.49,22.17c.36,0,.64-.09.92-.25.36-.21.56-.58.86-.84.17-.15.18-.41-.1-.59-.27-.18-.55-.35-.81-.55-.49-.39-.74-.32-1.29.1-.1.08-.19.18-.28.28-.25.25-.52.33-.84.14-.31-.19-.63-.38-.94-.57-.63-.38-1.11-.93-1.6-1.48-.46-.51-.46-.95.02-1.4.26-.24.28-.52.14-.77-.2-.34-.32-.71-.48-1.07-.15-.32-.42-.44-.75-.3-.89.36-1.4,1.03-1.28,2.02.11.85.57,1.55,1.06,2.21.75,1.02,1.73,1.8,2.9,2.34.81.37,1.63.68,2.47.75Z"/>
        <path class="cls-5" d="M152.49,22.17c-.84-.08-1.66-.39-2.47-.75-1.16-.53-2.14-1.32-2.9-2.34-.49-.65-.95-1.36-1.06-2.21-.13-.99.39-1.66,1.28-2.02.33-.14.6-.02.75.3.17.35.28.72.48,1.07.15.25.12.53-.14.77-.48.45-.48.89-.02,1.4.48.55.96,1.1,1.6,1.48.31.19.63.38.94.57.32.19.59.11.84-.14.09-.09.18-.2.28-.28.55-.42.79-.49,1.29-.1.25.2.54.37.81.55.28.18.27.44.1.59-.3.27-.5.63-.86.84-.28.16-.55.24-.92.25Z"/>
      </g>
      <g>
        <path class="cls-2" d="M65.99,29.6c-2.54,0-5.08-.01-7.63,0-1.25,0-2.42-.27-3.45-.97-.74-.5-1.32-1.16-1.71-2.01-.32-.7-.38-1.41-.38-2.14,0-4.38.02-8.76,0-13.14,0-.96.24-1.83.76-2.6.63-.93,1.52-1.57,2.59-1.95.76-.27,1.54-.35,2.34-.35,5.01,0,10.01.01,15.02,0,1.28,0,2.49.22,3.59.91.54.34,1,.77,1.37,1.28.57.79.82,1.68.82,2.66-.01,4.5-.02,9,0,13.5,0,1.03-.28,1.97-.9,2.75-.96,1.2-2.25,1.86-3.79,2.01-1.08.1-2.17.04-3.26.04-1.79,0-3.58,0-5.36,0ZM66.04,25.57c1.21,0,2.41,0,3.62,0,1.04.01,2.02-.15,2.93-.68,1.2-.69,2.04-1.69,2.11-3.07.13-2.58.1-5.16.01-7.74-.02-.66-.33-1.26-.73-1.76-1.01-1.27-2.37-1.87-3.99-1.87-2.54,0-5.09,0-7.63,0-.82,0-1.62.09-2.36.44-1.08.5-1.95,1.23-2.34,2.4-.19.57-.31,1.15-.3,1.77.03,1.89,0,3.79,0,5.68,0,.55.01,1.08.16,1.63.2.72.55,1.35,1.08,1.84.99.91,2.18,1.35,3.53,1.35,1.3,0,2.6,0,3.89,0Z"/>
        <path class="cls-6" d="M66.04,25.57c-1.3,0-2.6,0-3.89,0-1.35,0-2.54-.43-3.53-1.35-.53-.49-.88-1.12-1.08-1.84-.15-.54-.16-1.08-.16-1.63,0-1.89.02-3.79,0-5.68,0-.62.11-1.2.3-1.77.39-1.17,1.26-1.9,2.34-2.4.74-.34,1.54-.44,2.36-.44,2.54.01,5.09,0,7.63,0,1.62,0,2.98.6,3.99,1.87.39.5.7,1.1.73,1.76.09,2.58.12,5.16-.01,7.74-.07,1.38-.91,2.37-2.11,3.07-.91.53-1.9.69-2.93.68-1.2-.01-2.41,0-3.62,0ZM66.04,24.26c1.01,0,2.01,0,3.02,0,.54,0,1.09.03,1.62-.07,1.44-.28,2.56-1.36,2.52-2.95-.05-2.17-.01-4.34,0-6.51,0-.48-.06-.96-.31-1.38-.64-1.06-1.63-1.55-2.83-1.56-2.69-.03-5.38-.04-8.06,0-1.68.02-3.19,1.23-3.09,3.2.08,1.58.01,3.18.02,4.76,0,.67.01,1.35.03,2.02.01.38.12.75.34,1.04.75.99,1.76,1.45,3,1.44,1.24-.01,2.49,0,3.73,0Z"/>
        <path class="cls-1" d="M66.04,24.26c-1.24,0-2.49-.01-3.73,0-1.24.01-2.26-.44-3-1.44-.22-.29-.33-.67-.34-1.04-.02-.67-.03-1.35-.03-2.02,0-1.59.06-3.18-.02-4.76-.1-1.98,1.41-3.18,3.09-3.2,2.69-.04,5.38-.03,8.06,0,1.2.01,2.19.5,2.83,1.56.25.42.31.89.31,1.38,0,2.17-.04,4.34,0,6.51.04,1.59-1.09,2.67-2.52,2.95-.54.1-1.08.07-1.62.07-1.01,0-2.01,0-3.02,0ZM61.41,18c.03.76.17,1.46.62,2.11.61.87,1.4,1.47,2.39,1.77,1.79.55,3.46.3,4.94-.92.95-.78,1.38-1.79,1.46-3,.02-.36-.14-.66-.22-.99-.23-.98-.87-1.68-1.67-2.2-1.4-.93-2.95-1.12-4.54-.59-1.68.56-3.05,2.04-2.99,3.82ZM71.7,13.99c.02-.52-.45-.86-.97-.88-.57-.02-1.02.38-1.01.89,0,.48.45.86,1,.86.56,0,.98-.38.98-.87Z"/>
        <path class="cls-5" d="M61.41,18c-.06-1.78,1.31-3.27,2.99-3.82,1.6-.53,3.14-.34,4.54.59.8.53,1.43,1.23,1.67,2.2.08.33.24.63.22.99-.08,1.2-.51,2.22-1.46,3-1.48,1.22-3.15,1.47-4.94.92-.99-.3-1.78-.89-2.39-1.77-.45-.66-.6-1.35-.62-2.11ZM66.05,20.75c.12,0,.25,0,.39-.02,1.11-.11,1.99-.65,2.49-1.62.4-.79.37-1.63-.17-2.42-.48-.7-1.12-1.1-1.91-1.28-1.14-.26-2.15.04-3.06.76-.7.56-1.07,1.98-.67,2.74.61,1.19,1.59,1.8,2.95,1.83Z"/>
        <path class="cls-5" d="M71.7,13.99c0,.49-.42.87-.98.87-.55,0-.99-.38-1-.86,0-.5.44-.91,1.01-.89.52.02,1,.35.97.88Z"/>
        <path class="cls-2" d="M66.05,20.75c-1.35-.03-2.34-.64-2.95-1.83-.39-.77-.02-2.19.67-2.74.91-.73,1.92-1.03,3.06-.76.79.18,1.43.58,1.91,1.28.54.8.58,1.64.17,2.42-.5.97-1.38,1.51-2.49,1.62-.13.01-.26.01-.39.02Z"/>
      </g>
      <text/>
      <text/>
      <line class="cls-3" x1=".04" y1=".37" x2="176.09" y2=".7"/>
      <line class="cls-3" x1=".04" y1="35.78" x2="176.06" y2="36.08"/>
      <line class="cls-3" x1="175.71" y1=".36" x2="175.67" y2="36.41"/>
      <line class="cls-3" x1=".41" y1=".26" x2=".37" y2="36.05"/>
    </g>
  </g>
</svg>